<svg width="1480" height="224" viewBox="0 0 1480 224" fill="none" xmlns="http://www.w3.org/2000/svg">
<mask id="path-1-inside-1_462_6868" fill="white">
<path d="M40 0H1480V224H40V0Z"/>
</mask>
<path d="M40 0H1480V224H40V0Z" fill="#D1EADC"/>
<path d="M1480 222H40V226H1480V222Z" fill="#13120F" mask="url(#path-1-inside-1_462_6868)"/>
<mask id="mask0_462_6868" style="mask-type:luminance" maskUnits="userSpaceOnUse" x="0" y="0" width="1480" height="222">
<path d="M1480 0H0V222H1480V0Z" fill="white"/>
</mask>
<g mask="url(#mask0_462_6868)">
<path d="M310.125 175.596L322.047 164.316L325.855 180.281L310.125 175.596Z" fill="#6EB171" stroke="#13120F" stroke-width="1.02778"/>
<path d="M13.8753 99.6943L14.1223 121.737L23.9089 101.984L14.5674 121.952L31.9551 108.401L14.8753 122.337L36.4205 117.673L14.9853 122.819L36.4205 127.965L14.8753 123.301L31.9551 137.238L14.5674 123.687L23.9089 143.654L14.1223 123.902L13.8753 145.944L13.6283 123.902L3.84173 143.654L13.1832 123.687L-4.20457 137.238L12.8753 123.301L-8.66992 127.965L12.7653 122.819L-8.66992 117.673L12.8753 122.337L-4.20457 108.401L13.1832 121.952L3.84173 101.984L13.6283 121.737L13.8753 99.6943Z" fill="#13120F"/>
<path d="M1096.64 76.5701C1100.33 76.5701 1103.32 73.5791 1103.32 69.8895C1103.32 66.2 1100.33 63.209 1096.64 63.209C1092.95 63.209 1089.96 66.2 1089.96 69.8895C1089.96 73.5791 1092.95 76.5701 1096.64 76.5701Z" fill="#FF8AAE" stroke="#13120F" stroke-width="1.02778"/>
<path d="M1310.16 154.92C1309.31 160.593 1304.54 165.223 1297.33 168.061C1290.14 170.893 1280.61 171.892 1270.46 170.354C1260.3 168.816 1251.49 165.04 1245.46 160.205C1239.41 155.361 1236.23 149.529 1237.09 143.856C1237.95 138.184 1242.72 133.554 1249.92 130.716C1257.12 127.884 1266.64 126.886 1276.8 128.423C1286.96 129.961 1295.77 133.737 1301.8 138.572C1307.85 143.417 1311.02 149.248 1310.16 154.92Z" fill="#E2A127" stroke="#13120F" stroke-width="1.02778"/>
<path d="M1245.34 141.725L1246.07 144.017L1248.37 144.714L1246.42 146.117L1246.46 148.523L1244.53 147.098L1242.26 147.886L1243.02 145.602L1241.56 143.684L1243.96 143.698L1245.34 141.725Z" fill="#DF6845"/>
<path d="M1301.38 150.282L1302.11 152.574L1304.42 153.273L1302.46 154.676L1302.5 157.081L1300.57 155.655L1298.3 156.444L1299.05 154.16L1297.6 152.242L1300.01 152.256L1301.38 150.282Z" fill="#DF6845"/>
<path d="M1255.77 152.229L1253.02 151.812L1254.88 139.516L1257.63 139.932L1256.89 144.815L1263.31 145.787L1264.05 140.905L1266.81 141.321L1264.95 153.619L1262.19 153.202L1262.94 148.265L1256.52 147.292L1255.77 152.229Z" fill="#13120F"/>
<path d="M1271.31 154.77C1269.72 154.528 1268.52 153.94 1267.7 153.004C1266.91 152.057 1266.63 150.795 1266.87 149.217C1267.1 147.76 1267.73 146.669 1268.79 145.941C1269.87 145.215 1271.17 144.968 1272.7 145.199C1274.23 145.43 1275.39 146.007 1276.17 146.927C1276.96 147.834 1277.25 148.999 1277.04 150.417C1277.01 150.589 1276.94 150.879 1276.83 151.288L1269.34 150.154C1269.27 150.881 1269.4 151.433 1269.73 151.808C1270.07 152.172 1270.67 152.42 1271.55 152.553C1272.35 152.674 1272.92 152.661 1273.28 152.515C1273.65 152.36 1273.87 152.079 1273.93 151.675L1273.96 151.492L1276.72 151.908L1276.69 152.111C1276.53 153.114 1275.97 153.866 1274.97 154.367C1273.98 154.856 1272.76 154.99 1271.31 154.77ZM1274.03 148.03C1273.71 147.69 1273.13 147.46 1272.32 147.338C1271.52 147.216 1270.89 147.266 1270.46 147.488C1270.04 147.712 1269.75 148.119 1269.59 148.709L1274.48 149.449C1274.54 148.831 1274.38 148.359 1274.03 148.03Z" fill="#13120F"/>
<path d="M1278.78 158.905L1277.27 158.676L1277.65 156.181L1279.91 156.522C1280.5 156.612 1280.91 156.474 1281.16 156.11L1278.05 146.198L1281.18 146.67L1282.48 151.168L1282.92 153.45L1283.11 153.478L1284.18 151.405L1286.55 147.484L1289.62 147.949L1283.57 157.115C1283.01 157.992 1282.36 158.552 1281.65 158.795C1280.93 159.05 1279.97 159.087 1278.78 158.905Z" fill="#13120F"/>
<path d="M1292.89 153.72L1290.12 153.3C1290.19 152.786 1290.3 151.601 1290.45 149.745C1290.6 147.891 1290.71 146.732 1290.79 146.267L1290.98 144.982L1294.53 145.519L1294.33 146.804C1294.26 147.268 1294.01 148.414 1293.6 150.242C1293.2 152.059 1292.96 153.218 1292.89 153.72ZM1292.46 157.785L1289.33 157.31L1289.78 154.318L1292.91 154.794L1292.46 157.785Z" fill="#13120F"/>
<mask id="mask1_462_6868" style="mask-type:luminance" maskUnits="userSpaceOnUse" x="167" y="59" width="64" height="58">
<path d="M167.527 59.6113H230.936V116.706H167.527V59.6113Z" fill="white"/>
</mask>
<g mask="url(#mask1_462_6868)">
<path d="M214.943 90.9879C210.409 78.6143 200.169 69.2336 189.163 61.5977C190.935 64.4293 192.205 67.5533 192.91 70.8327L193.123 71.8213L192.199 71.4103C184.898 68.1623 177.213 65.8631 169.332 64.5673C174.405 69.1499 179.239 73.9905 183.814 79.07L184.559 79.8955L183.448 79.9276C178.617 80.067 173.823 80.8006 169.176 82.1102C182.155 86.8432 194.618 92.8889 206.371 100.154L214.943 90.9879Z" fill="#E2A127" stroke="#13120F" stroke-width="1.02778"/>
<path d="M213.338 89.6042L212.933 90.1255L212.527 89.6042L207.254 82.8255L207.572 91.4078L207.597 92.068L206.95 91.9293L198.553 90.1256L204.314 96.4956L204.757 96.9856L204.173 97.2946L196.58 101.312L205.089 102.489L205.743 102.58L205.494 103.192L202.26 111.147L209.534 106.58L210.093 106.23L210.296 106.858L212.933 115.033L215.571 106.858L215.774 106.23L216.333 106.58L223.608 111.147L220.373 103.192L220.124 102.58L220.778 102.489L229.287 101.312L221.694 97.2946L221.11 96.9856L221.553 96.4956L227.314 90.1256L218.917 91.9293L218.27 92.068L218.295 91.4078L218.614 82.8252L213.338 89.6042Z" fill="#DF6845" stroke="#13120F" stroke-width="1.02778"/>
</g>
</g>
</svg>
