<svg width="92" height="93" viewBox="0 0 92 93" fill="none" xmlns="http://www.w3.org/2000/svg">
<g clip-path="url(#clip0_3338_6129)">
<mask id="mask0_3338_6129" style="mask-type:luminance" maskUnits="userSpaceOnUse" x="0" y="0" width="92" height="93">
<path d="M92 0.610107H0V92.6101H92V0.610107Z" fill="white"/>
</mask>
<g mask="url(#mask0_3338_6129)">
<path d="M75.9019 91.6902H16.1019C14.0522 91.6902 12.0643 91.289 10.1935 90.4977C8.38589 89.7332 6.7624 88.6385 5.36799 87.2441C3.97359 85.8497 2.87893 84.2262 2.11441 82.4187C1.3231 80.5478 0.921875 78.5599 0.921875 76.5102V16.7102C0.921875 14.6606 1.3231 12.6727 2.11441 10.8018C2.87893 8.99429 3.97359 7.3708 5.36799 5.97639C6.7624 4.58199 8.38589 3.48733 10.1935 2.72281C12.0643 1.9315 14.0522 1.53027 16.1019 1.53027H75.9019C77.9516 1.53027 79.9395 1.9315 81.8104 2.72281C83.6179 3.48733 85.2414 4.58199 86.6358 5.97639C88.0302 7.3708 89.1249 8.99429 89.8894 10.8018C90.6807 12.6727 91.0819 14.6606 91.0819 16.7102V76.5102C91.0819 78.5599 90.6807 80.5478 89.8894 82.4187C89.1249 84.2262 88.0302 85.8497 86.6358 87.2441C85.2414 88.6385 83.6179 89.7332 81.8104 90.4977C79.9395 91.289 77.9516 91.6902 75.9019 91.6902Z" fill="#FF8AAE"/>
<path d="M16.1 2.45011C14.1741 2.45011 12.3068 2.82689 10.5499 3.56998C8.85208 4.28811 7.32686 5.31656 6.01665 6.62676C4.70645 7.93697 3.678 9.46219 2.95987 11.16C2.21678 12.9169 1.84 14.7842 1.84 16.7101V76.5101C1.84 78.436 2.21678 80.3033 2.95987 82.0602C3.678 83.758 4.70645 85.2832 6.01665 86.5934C7.32686 87.9036 8.85208 88.9321 10.5499 89.6502C12.3068 90.3933 14.1741 90.7701 16.1 90.7701H75.9C77.8259 90.7701 79.6932 90.3933 81.4501 89.6502C83.1479 88.9321 84.6731 87.9036 85.9833 86.5934C87.2935 85.2832 88.322 83.758 89.0401 82.0602C89.7832 80.3033 90.16 78.436 90.16 76.5101V16.7101C90.16 14.7842 89.7832 12.9169 89.0401 11.16C88.322 9.46219 87.2935 7.93697 85.9833 6.62676C84.6731 5.31656 83.1479 4.28811 81.4501 3.56998C79.6932 2.82689 77.8259 2.45011 75.9 2.45011H16.1ZM16.1 0.610107H75.9C84.7918 0.610107 92 7.81832 92 16.7101V76.5101C92 85.4019 84.7918 92.6101 75.9 92.6101H16.1C7.20821 92.6101 0 85.4019 0 76.5101V16.7101C0 7.81832 7.20821 0.610107 16.1 0.610107Z" fill="#13120F"/>
<path d="M58.9729 24.6902H33.0432C30.4989 24.697 28.0611 25.7127 26.2648 27.5145C24.4684 29.3163 23.46 31.7571 23.4609 34.3014V59.2334C23.46 61.7777 24.4684 64.2184 26.2648 66.0201C28.0612 67.8219 30.4989 68.8375 33.0432 68.8442H58.9729C61.517 68.8371 63.9544 67.8213 65.7505 66.0195C67.5466 64.2177 68.5548 61.7771 68.5538 59.233V34.301C68.5545 31.757 67.5463 29.3165 65.7502 27.5149C63.9542 25.7132 61.5169 24.6974 58.9729 24.6902Z" fill="#13120F"/>
<path d="M52.7427 40.6605C50.7097 39.4316 48.3793 38.7819 46.0037 38.7819C43.6281 38.7819 41.2977 39.4316 39.2647 40.6605H25.3359V34.3019C25.3347 32.2558 26.145 30.2926 27.5892 28.843C29.0333 27.3935 30.9934 26.5758 33.0395 26.5693H58.9674C61.0136 26.5758 62.9737 27.3935 64.4178 28.843C65.862 30.2926 66.6723 32.2558 66.6711 34.3019V40.6605H52.7427Z" fill="#F4ECE9"/>
<path d="M61.4134 29.3872H56.9054C56.2575 29.3873 55.6362 29.6446 55.1779 30.1025C54.7195 30.5604 54.4617 31.1815 54.4609 31.8293V36.3373C54.4617 36.9848 54.7192 37.6056 55.177 38.0634C55.6349 38.5212 56.2556 38.7787 56.9031 38.7795H61.4111C62.0586 38.7787 62.6793 38.5212 63.1371 38.0634C63.595 37.6056 63.8525 36.9848 63.8532 36.3373V31.8293C63.8526 31.1822 63.5954 30.5618 63.1381 30.104C62.6807 29.6462 62.0605 29.3884 61.4134 29.3872Z" fill="#13120F"/>
<path d="M61.9788 36.3398C61.9787 36.4892 61.9193 36.6325 61.8136 36.7381C61.708 36.8438 61.5647 36.9032 61.4153 36.9033H56.9073C56.7579 36.9032 56.6146 36.8438 56.509 36.7381C56.4033 36.6325 56.3439 36.4892 56.3438 36.3398V31.8318C56.3434 31.6823 56.4023 31.5388 56.5077 31.4328C56.6131 31.3268 56.7564 31.2669 56.9059 31.2664H61.4139C61.5633 31.2666 61.7066 31.326 61.8122 31.4316C61.9179 31.5373 61.9773 31.6805 61.9774 31.8299L61.9788 36.3398Z" fill="#FF8AAE"/>
<path d="M66.6711 59.2329C66.6723 61.2791 65.862 63.2424 64.4178 64.6919C62.9737 66.1415 61.0136 66.9591 58.9674 66.9655H33.0395C30.9934 66.9591 29.0333 66.1415 27.5892 64.6919C26.145 63.2424 25.3347 61.2791 25.3359 59.2329V42.5396H36.8166C34.9454 44.3661 33.6611 46.7089 33.1277 49.2687C32.5943 51.8286 32.8361 54.4893 33.8221 56.9111C34.8081 59.3329 36.4937 61.4059 38.6634 62.8652C40.8332 64.3245 43.3887 65.1038 46.0035 65.1038C48.6183 65.1038 51.1738 64.3245 53.3436 62.8652C55.5133 61.4059 57.1989 59.3329 58.1849 56.9111C59.1709 54.4893 59.4127 51.8286 58.8793 49.2687C58.3459 46.7089 57.0616 44.3661 55.1904 42.5396H66.6711V59.2329Z" fill="#F4ECE9"/>
<path d="M57.2809 51.9336C57.2809 54.1633 56.6196 56.3428 55.3809 58.1967C54.1422 60.0506 52.3815 61.4955 50.3216 62.3487C48.2617 63.202 45.995 63.4252 43.8082 62.9902C41.6215 62.5553 39.6128 61.4816 38.0362 59.905C36.4596 58.3284 35.3859 56.3197 34.9509 54.1329C34.516 51.9461 34.7393 49.6795 35.5925 47.6196C36.4458 45.5596 37.8907 43.799 39.7446 42.5603C41.5984 41.3216 43.778 40.6604 46.0076 40.6604C48.9965 40.6637 51.862 41.8525 53.9754 43.9659C56.0888 46.0793 57.2776 48.9448 57.2809 51.9336Z" fill="#FF8AAE"/>
<path d="M37.5547 51.9338C37.5547 53.606 38.0506 55.2406 38.9796 56.631C39.9087 58.0214 41.2291 59.1051 42.774 59.745C44.3189 60.3849 46.0189 60.5523 47.659 60.2261C49.2991 59.8999 50.8056 59.0946 51.988 57.9122C53.1704 56.7298 53.9756 55.2233 54.3019 53.5832C54.6281 51.9432 54.4607 50.2432 53.8207 48.6983C53.1808 47.1533 52.0972 45.8329 50.7068 44.9039C49.3164 43.9748 47.6817 43.479 46.0095 43.479C43.7679 43.4814 41.6188 44.373 40.0338 45.958C38.4487 47.5431 37.5572 49.6922 37.5547 51.9338Z" fill="#13120F"/>
<path d="M52.5857 51.9354C52.5857 53.2364 52.1999 54.5082 51.4771 55.59C50.7543 56.6717 49.727 57.5148 48.525 58.0127C47.323 58.5106 46.0004 58.6409 44.7244 58.387C43.4484 58.1332 42.2763 57.5067 41.3564 56.5868C40.4364 55.6668 39.8099 54.4947 39.5561 53.2187C39.3023 51.9427 39.4326 50.6201 39.9304 49.4181C40.4283 48.2162 41.2714 47.1888 42.3532 46.466C43.4349 45.7432 44.7067 45.3574 46.0077 45.3574C47.7519 45.3589 49.4241 46.0524 50.6574 47.2857C51.8907 48.519 52.5842 50.1913 52.5857 51.9354Z" fill="#F4ECE9"/>
</g>
</g>
<defs>
<clipPath id="clip0_3338_6129">
<rect width="92" height="92" fill="white" transform="translate(0 0.610107)"/>
</clipPath>
</defs>
</svg>
