<svg width="60" height="93" viewBox="0 0 60 93" fill="none" xmlns="http://www.w3.org/2000/svg">
<g clip-path="url(#clip0_3338_6190)">
<path d="M56.3885 17.4663H3.6092C3.40519 17.466 3.20309 17.5053 3.0145 17.5822C2.82591 17.6591 2.65453 17.772 2.51015 17.9143C2.36576 18.0567 2.25123 18.2258 2.17307 18.4119C2.09492 18.5981 2.05469 18.7976 2.05469 18.9992V37.3986H57.9403V19.0097C57.9417 18.8075 57.9026 18.607 57.8253 18.4199C57.7479 18.2327 57.6338 18.0624 57.4895 17.919C57.3453 17.7755 57.1738 17.6617 56.9848 17.584C56.7958 17.5063 56.5932 17.4663 56.3885 17.4663ZM37.7608 31.2646H22.2369C21.4137 31.2646 20.6243 30.9416 20.0422 30.3667C19.4602 29.7917 19.1332 29.012 19.1332 28.1989C19.1332 27.3858 19.4602 26.606 20.0422 26.0311C20.6243 25.4562 21.4137 25.1332 22.2369 25.1332H37.7608C38.584 25.1332 39.3734 25.4562 39.9555 26.0311C40.5375 26.606 40.8646 27.3858 40.8646 28.1989C40.8646 29.012 40.5375 29.7917 39.9555 30.3667C39.3734 30.9416 38.584 31.2646 37.7608 31.2646Z" fill="#DF6845"/>
<path d="M2.05469 37.4092V89.5419C2.05469 89.9492 2.21846 90.3397 2.50999 90.6277C2.80152 90.9157 3.19692 91.0774 3.6092 91.0774H56.3885C56.8003 91.0767 57.195 90.9147 57.486 90.6268C57.7769 90.3389 57.9403 89.9487 57.9403 89.5419V37.4092H2.05469Z" fill="#ECD6C4"/>
<path d="M39.3102 48.1421L22.2344 52.7433V58.8773L39.3102 54.2761V48.1421Z" fill="#DF6845"/>
<path d="M37.9489 17.4773L40.8607 2.14355H31.5469L34.4586 17.4773H37.9489Z" fill="#D1EADC"/>
<path d="M34.4621 17.4773L31.5504 2.14355H19.1328L22.0419 17.4773L23.4978 25.1442L23.7884 26.6771H36.206L34.4621 17.4773Z" fill="#6EB171"/>
<path d="M19.1271 72.6753C20.8412 72.6753 22.2308 71.3027 22.2308 69.6096C22.2308 67.9164 20.8412 66.5439 19.1271 66.5439C17.413 66.5439 16.0234 67.9164 16.0234 69.6096C16.0234 71.3027 17.413 72.6753 19.1271 72.6753Z" fill="#DF6845"/>
<path d="M36.2053 68.0743C37.9194 68.0743 39.309 66.7018 39.309 65.0086C39.309 63.3155 37.9194 61.9429 36.2053 61.9429C34.4912 61.9429 33.1016 63.3155 33.1016 65.0086C33.1016 66.7018 34.4912 68.0743 36.2053 68.0743Z" fill="#DF6845"/>
<path d="M0.5 19.0099V89.5421C0.500706 90.3556 0.82822 91.1357 1.41063 91.7109C1.99303 92.2862 2.78274 92.6097 3.60639 92.6104H56.3856C57.209 92.6097 57.9984 92.2861 58.5804 91.7108C59.1624 91.1354 59.4893 90.3554 59.4893 89.5421V29.7425H56.3856V35.8765H3.60639V19.0204H20.7515L21.6368 23.6795C20.46 23.8221 19.3829 24.4038 18.6263 25.3054C17.8696 26.207 17.4907 27.3602 17.567 28.5289C17.6434 29.6975 18.1692 30.7931 19.0369 31.5912C19.9046 32.3892 21.0485 32.8293 22.234 32.8213H37.758C38.9934 32.8213 40.1783 32.3366 41.0519 31.4737C41.9255 30.6108 42.4162 29.4405 42.4162 28.2201C42.4162 26.9998 41.9255 25.8295 41.0519 24.9666C40.1783 24.1037 38.9934 23.619 37.758 23.619H37.2007L36.3288 19.0204H56.3856V25.1544H59.5V19.0099C59.4993 18.197 59.1721 17.4176 58.5902 16.8429C58.0083 16.2681 57.2192 15.9449 56.3963 15.9442H39.8218L42.3869 2.42502C42.4293 2.20364 42.4217 1.97574 42.3646 1.75761C42.3075 1.53948 42.2024 1.33648 42.0567 1.16313C41.911 0.989783 41.7283 0.850348 41.5217 0.754792C41.3152 0.659236 41.0898 0.609919 40.8617 0.610356H19.1277C18.8997 0.609837 18.6743 0.659135 18.4678 0.754711C18.2614 0.850287 18.0788 0.98978 17.9333 1.1632C17.7878 1.33662 17.683 1.53967 17.6262 1.75782C17.5695 1.97597 17.5623 2.2038 17.6051 2.42502L20.1702 15.9442H3.60639C2.78321 15.9449 1.9939 16.268 1.41157 16.8427C0.82924 17.4174 0.501412 18.1968 0.5 19.0099ZM56.3856 38.9422V89.5421H3.60639V38.9422H56.3856ZM39.3205 28.2096C39.3198 28.6159 39.1561 29.0054 38.8652 29.2927C38.5743 29.58 38.18 29.7418 37.7686 29.7425H22.2447C21.8338 29.7459 21.4384 29.5881 21.1453 29.3036C20.8523 29.0191 20.6857 28.6312 20.6822 28.2254C20.6786 27.8196 20.8385 27.429 21.1265 27.1395C21.4145 26.8501 21.8071 26.6855 22.218 26.682L22.2713 26.9454C22.3379 27.2969 22.5268 27.6144 22.8053 27.8428C23.0839 28.0713 23.4345 28.1964 23.7966 28.1964H36.2168C36.4447 28.1962 36.6699 28.1466 36.8763 28.051C37.0827 27.9554 37.2653 27.8163 37.4113 27.6434C37.6309 27.3639 37.7442 27.0171 37.7313 26.6636H37.7686C38.1805 26.6671 38.574 26.8318 38.863 27.1217C39.152 27.4115 39.3127 27.8028 39.3098 28.2096H39.3205ZM36.6754 15.9442H35.7555L33.4277 3.67606H39.0006L36.6754 15.9442ZM30.276 3.67606L34.3503 25.1439H25.0898L21.0155 3.67606H30.276Z" fill="#13120F"/>
<path d="M28.4397 9.81006H25.3359V12.8757H28.4397V9.81006Z" fill="#13120F"/>
<path d="M53.2827 83.4106H6.71094V86.4763H53.2827V83.4106Z" fill="#13120F"/>
<path d="M14.4701 69.615C14.4552 70.2283 14.5647 70.8384 14.792 71.4093C15.0194 71.9802 15.36 72.5005 15.7939 72.9394C16.2278 73.3784 16.7462 73.7272 17.3186 73.9654C17.891 74.2035 18.5059 74.3262 19.127 74.3262C19.7481 74.3262 20.3629 74.2035 20.9353 73.9654C21.5077 73.7272 22.0261 73.3784 22.46 72.9394C22.8939 72.5005 23.2346 71.9802 23.4619 71.4093C23.6893 70.8384 23.7988 70.2283 23.7839 69.615V60.0518L37.7559 56.2881V60.6971C36.8256 60.3739 35.8153 60.3515 34.8713 60.6332C33.9273 60.915 33.0986 61.4862 32.5051 62.2641C31.9117 63.0421 31.5842 63.9865 31.5703 64.9605C31.5564 65.9345 31.8567 66.8876 32.4277 67.6817C32.9987 68.4759 33.8109 69.07 34.7465 69.3779C35.6821 69.6858 36.6926 69.6917 37.6317 69.3945C38.5709 69.0973 39.39 68.5126 39.9703 67.725C40.5507 66.9375 40.8621 65.9879 40.8597 65.0138V48.1577C40.86 47.922 40.8052 47.6894 40.6995 47.478C40.5938 47.2667 40.4402 47.0823 40.2504 46.9393C40.0607 46.7962 39.8401 46.6985 39.6058 46.6535C39.3716 46.6086 39.13 46.6177 38.8999 46.6802L21.8347 51.2787C21.5058 51.3668 21.2154 51.5596 21.0086 51.8272C20.8018 52.0948 20.6901 52.4222 20.6908 52.7589V65.3088C20.1934 65.1252 19.6673 65.0289 19.1363 65.0243C17.9017 65.0236 16.7173 65.5065 15.8426 66.367C14.9679 67.2276 14.4743 68.3956 14.4701 69.615ZM36.2041 66.5493C35.8965 66.5498 35.5957 66.4602 35.3397 66.2918C35.0837 66.1234 34.8841 65.8837 34.766 65.6032C34.6479 65.3227 34.6168 65.0139 34.6765 64.7159C34.7362 64.4178 34.884 64.144 35.1013 63.929C35.3186 63.714 35.5956 63.5675 35.8972 63.508C36.1988 63.4485 36.5115 63.4788 36.7957 63.5949C37.0799 63.7111 37.3229 63.9079 37.4938 64.1605C37.6647 64.413 37.7559 64.71 37.7559 65.0138C37.7538 65.4195 37.5896 65.8078 37.299 66.0944C37.0083 66.381 36.6148 66.5426 36.2041 66.544V66.5493ZM37.7559 50.1567V53.1118L23.7839 56.8755V53.9204L37.7559 50.1567ZM20.6908 69.615C20.6914 69.9188 20.6007 70.2159 20.4302 70.4688C20.2597 70.7216 20.017 70.9188 19.733 71.0354C19.449 71.1521 19.1364 71.1829 18.8347 71.1239C18.533 71.065 18.2557 70.9189 18.038 70.7043C17.8204 70.4897 17.672 70.2161 17.6118 69.9181C17.5516 69.6202 17.5823 69.3113 17.6999 69.0306C17.8174 68.7499 18.0167 68.5099 18.2724 68.3411C18.5281 68.1722 18.8287 68.0821 19.1363 68.0821C19.5463 68.0849 19.9386 68.2475 20.2277 68.5346C20.5169 68.8217 20.6795 69.21 20.6801 69.615H20.6908Z" fill="#13120F"/>
<path d="M12.9162 42.0103H9.8125V45.0761H12.9162V42.0103Z" fill="#13120F"/>
<path d="M9.81467 45.0762H6.71094V48.1419H9.81467V45.0762Z" fill="#13120F"/>
<path d="M16.0256 45.0762H12.9219V48.1419H16.0256V45.0762Z" fill="#13120F"/>
<path d="M12.9162 48.1421H9.8125V51.2078H12.9162V48.1421Z" fill="#13120F"/>
<path d="M50.1741 68.0771H47.0703V71.1429H50.1741V68.0771Z" fill="#13120F"/>
<path d="M47.0724 71.1426H43.9688V74.2083H47.0724V71.1426Z" fill="#13120F"/>
<path d="M53.2756 71.1426H50.1719V74.2083H53.2756V71.1426Z" fill="#13120F"/>
<path d="M50.1741 74.2109H47.0703V77.2766H50.1741V74.2109Z" fill="#13120F"/>
</g>
<defs>
<clipPath id="clip0_3338_6190">
<rect width="59" height="92" fill="white" transform="translate(0.5 0.610352)"/>
</clipPath>
</defs>
</svg>
