<svg width="92" height="93" viewBox="0 0 92 93" fill="none" xmlns="http://www.w3.org/2000/svg">
<g clip-path="url(#clip0_3338_6155)">
<path d="M55.2028 22.0742H50.6016V32.8062H55.2028V22.0742Z" fill="#13120F"/>
<path d="M24.5312 51.7522V57.4197C24.5312 58.416 24.7276 59.4025 25.1089 60.3229C25.4903 61.2433 26.0493 62.0796 26.754 62.7839C27.4586 63.4883 28.2951 64.0469 29.2157 64.4279C30.1362 64.8089 31.1228 65.0049 32.1191 65.0045H35.3428C36.3392 65.0049 37.3258 64.8089 38.2464 64.4279C39.167 64.0469 40.0035 63.4883 40.7081 62.7839C41.4127 62.0796 41.9717 61.2433 42.3531 60.3229C42.7344 59.4025 42.9308 58.416 42.9308 57.4197V51.7522H24.5312Z" fill="#ECD6C4"/>
<path d="M60.9491 49.5952C59.6907 52.3625 57.6624 54.7091 55.1063 56.3548C52.5503 58.0005 49.5746 58.8757 46.5345 58.8761H42.7761C42.4395 60.6023 41.5132 62.1578 40.1559 63.2763C38.7985 64.3948 37.0946 65.0067 35.3357 65.0071H32.112C30.41 65.0055 28.7583 64.4305 27.4232 63.375C26.0881 62.3195 25.1475 60.8451 24.7533 59.1895C22.6331 59.7162 18.2189 60.8592 13.7915 62.3367C13.0251 62.6 12.256 62.8634 11.5028 63.1267C9.71538 63.7634 7.96322 64.4948 6.25368 65.3179C5.63474 65.626 5.0553 65.9368 4.53118 66.2528C2.68755 67.3537 1.52344 68.4914 1.52344 69.6028V91.0694H59.7903V78.802L66.1323 69.2894L60.9491 49.5952Z" fill="#FF8AAE"/>
<path d="M79.7326 80.3374H69V84.9383H79.7326V80.3374Z" fill="#D1EADC"/>
<path d="M17.955 46.6061C18.5099 47.6616 19.2649 48.599 20.1779 49.3662L27.3892 53.3166C28.5341 53.9436 29.8184 54.2724 31.1238 54.2726H36.344C37.6494 54.2724 38.9337 53.9436 40.0786 53.3166L47.2899 49.3662C48.3263 48.5028 49.1603 47.422 49.7324 46.2005C50.3045 44.9789 50.6009 43.6464 50.6005 42.2975V23.5989H26.067L18.4001 28.1998H16.8672V42.2896C16.8703 43.7959 17.2439 45.2783 17.955 46.6061Z" fill="#F4ECE9"/>
<path d="M16.8689 42.2976V28.2078H13.8059C12.1791 28.2078 10.6188 28.854 9.46851 30.0043C8.31815 31.1546 7.67188 32.7147 7.67188 34.3415V40.4725C7.67153 41.2781 7.82998 42.0758 8.13812 42.8202C8.44626 43.5645 8.89807 44.2408 9.46774 44.8104C10.0374 45.3801 10.7137 45.8319 11.4581 46.14C12.2025 46.4481 13.0003 46.6065 13.8059 46.6062H17.9594C17.2486 45.2809 16.8741 43.8014 16.8689 42.2976Z" fill="#E2A127"/>
<path d="M35.2634 75.7393H19.9297V91.0721H35.2634V75.7393Z" fill="#E2A127"/>
<path d="M26.0653 19.0087C26.0653 16.1624 27.196 13.4327 29.2088 11.42C31.2215 9.40744 33.9514 8.27675 36.7979 8.27675H50.5988C50.5988 4.88729 46.6482 2.14307 39.8662 2.14307H27.5981C25.1584 2.14377 22.8188 3.11319 21.0937 4.83823C19.3685 6.56326 18.3991 8.90271 18.3984 11.3422V28.1974L26.0653 23.5965V19.0087Z" fill="#DF6845"/>
<path d="M26.0641 35.8743C26.3673 35.8743 26.6637 35.7844 26.9158 35.616C27.1679 35.4476 27.3643 35.2082 27.4804 34.9281C27.5964 34.6481 27.6267 34.3399 27.5676 34.0425C27.5084 33.7452 27.3624 33.4721 27.1481 33.2578C26.9337 33.0434 26.6604 32.8974 26.3631 32.8383C26.0658 32.7791 25.7577 32.8095 25.4776 32.9255C25.1975 33.0415 24.958 33.2379 24.7896 33.49C24.6212 33.7421 24.5312 34.0384 24.5312 34.3416C24.5312 34.7481 24.6927 35.138 24.9802 35.4254C25.2676 35.7129 25.6576 35.8743 26.0641 35.8743Z" fill="#F4ECE9"/>
<path d="M41.4001 35.8743C41.7033 35.8743 41.9996 35.7844 42.2517 35.616C42.5038 35.4476 42.7003 35.2082 42.8163 34.9281C42.9323 34.6481 42.9627 34.3399 42.9035 34.0425C42.8444 33.7452 42.6983 33.4721 42.484 33.2578C42.2696 33.0434 41.9965 32.8974 41.6992 32.8383C41.4018 32.7791 41.0936 32.8095 40.8135 32.9255C40.5334 33.0415 40.294 33.2379 40.1256 33.49C39.9572 33.7421 39.8672 34.0384 39.8672 34.3416C39.8672 34.7481 40.0287 35.138 40.3162 35.4254C40.6037 35.7129 40.9936 35.8743 41.4001 35.8743Z" fill="#F4ECE9"/>
<path d="M42.9357 12.8747C42.936 14.2841 42.6586 15.6798 42.1194 16.982C41.5801 18.2842 40.7896 19.4675 39.7929 20.4641C38.7962 21.4607 37.6129 22.2512 36.3106 22.7904C35.0083 23.3296 33.6126 23.607 32.2031 23.6067H41.4028C42.8123 23.607 44.2081 23.3296 45.5104 22.7904C46.8127 22.2512 47.9959 21.4607 48.9926 20.4641C49.9893 19.4675 50.7798 18.2842 51.3191 16.982C51.8583 15.6798 52.1357 14.2841 52.1354 12.8747V8.27637H42.9357V12.8747Z" fill="#DF6845"/>
<path d="M42.9292 12.8747V8.27637H36.7951C33.9487 8.27637 31.2188 9.40707 29.206 11.4197C27.1933 13.4323 26.0625 16.1621 26.0625 19.0084V23.6067H32.1966C33.6061 23.607 35.0018 23.3296 36.3041 22.7904C37.6064 22.2512 38.7897 21.4607 39.7864 20.4641C40.7831 19.4675 41.5736 18.2842 42.1129 16.982C42.6521 15.6798 42.9295 14.2841 42.9292 12.8747Z" fill="#DF6845"/>
<path d="M41.3984 23.6067H50.5981C52.1912 23.603 53.7633 23.243 55.1993 22.5532C57.0331 21.6841 58.5827 20.3126 59.668 18.598C60.7533 16.8833 61.3299 14.896 61.3307 12.8668V8.27637H52.131V12.8747C52.1313 14.2841 51.8539 15.6798 51.3147 16.982C50.7754 18.2842 49.9849 19.4675 48.9882 20.4641C47.9915 21.4607 46.8083 22.2512 45.506 22.7904C44.2037 23.3296 42.8079 23.607 41.3984 23.6067Z" fill="#DF6845"/>
<path d="M90.4701 84.9382H44.4688V91.0719H90.4701V84.9382Z" fill="#E2A127"/>
<path d="M80.4225 25.8297C80.7184 26.128 81.079 26.3544 81.4763 26.4914C81.8735 26.6284 82.297 26.6723 82.714 26.6198L76.6562 22.0847L80.4225 25.8297Z" fill="#ECD6C4"/>
<path d="M87.0196 17.4206L79.7241 11.3422V4.90045C79.7234 4.16891 79.4323 3.46756 78.9147 2.95053C78.3971 2.43349 77.6955 2.14307 76.9639 2.14307H76.3476C75.9852 2.14272 75.6263 2.21379 75.2915 2.35221C74.9566 2.49063 74.6523 2.69367 74.396 2.94976C74.1396 3.20584 73.9363 3.50993 73.7975 3.84465C73.6588 4.17936 73.5874 4.53813 73.5874 4.90045V12.9461C73.5881 13.4484 73.4655 13.9431 73.2302 14.3868C72.9949 14.8305 72.6541 15.2097 72.238 15.4908C71.8218 15.772 71.3428 15.9466 70.8433 15.9993C70.3438 16.052 69.8391 15.9812 69.3733 15.7931L68.628 15.4955C68.2791 15.3556 67.9054 15.2885 67.5297 15.2985C67.154 15.3084 66.7843 15.3951 66.4433 15.5532C66.1024 15.7113 65.7974 15.9376 65.5471 16.218C65.2969 16.4983 65.1067 16.827 64.9882 17.1836C64.8091 17.7187 64.7988 18.2959 64.9584 18.8371C65.1181 19.3783 65.4401 19.8574 65.881 20.2096L72.0466 25.1424L60.9453 49.5955L66.1338 69.3002L75.1255 55.8134L81.2595 32.8167L82.8398 26.5856C83.2073 26.5254 83.5586 26.3906 83.872 26.1895C84.1855 25.9884 84.4545 25.7252 84.6624 25.4163L87.5595 21.0787C87.9381 20.5102 88.0924 19.8216 87.9927 19.1459C87.893 18.4702 87.5463 17.8555 87.0196 17.4206Z" fill="#F4ECE9"/>
<path d="M52.1345 28.2078H50.6016V46.6062C52.635 46.6062 54.5851 45.7985 56.023 44.3607C57.4608 42.923 58.2685 40.973 58.2685 38.9397V34.3415C58.2685 32.7147 57.6223 31.1546 56.4719 30.0043C55.3215 28.854 53.7613 28.2078 52.1345 28.2078Z" fill="#E2A127"/>
<path d="M24.5337 2.14307H21.4681C19.0279 2.14307 16.6876 3.11219 14.9619 4.8373C13.2362 6.56241 12.2663 8.90225 12.2656 11.3422V28.4239C12.7663 28.2874 13.2823 28.2149 13.8011 28.2079H18.3997V11.3528C18.4004 8.91324 19.3698 6.57379 21.095 4.84876C22.8201 3.12372 25.1597 2.15429 27.5994 2.1536L24.5337 2.14307Z" fill="#E2A127"/>
<path d="M50.6005 23.6067H26.067L18.4001 28.2076H16.8672V34.1438C19.8065 32.7848 23.0171 31.2652 26.067 29.7404C35.2668 25.1421 50.6005 29.7404 50.6005 29.7404V23.6067Z" fill="#ECD6C4"/>
<path d="M4.54173 70.8537C5.06848 70.5403 5.64529 70.227 6.26422 69.9215C7.97326 69.0973 9.72549 68.3658 11.5133 67.7303C12.2666 67.4669 13.0356 67.2036 13.8021 66.9402C18.2294 65.4627 22.6436 64.3198 24.7638 63.7957C25.1585 65.451 26.0992 66.9252 27.4342 67.9807C28.7692 69.0361 30.4207 69.6112 32.1226 69.6133H35.3463C37.1056 69.6132 38.8101 69.0012 40.1676 67.8821C41.5251 66.763 42.4511 65.2066 42.7867 63.4796H46.5398C49.5799 63.4793 52.5556 62.604 55.1116 60.9583C57.6676 59.3126 59.696 56.966 60.9544 54.1988L65.2764 70.6036L66.1429 69.3025L60.9491 49.5952C59.6907 52.3625 57.6624 54.7091 55.1063 56.3548C52.5503 58.0005 49.5746 58.8757 46.5345 58.8761H42.7761C42.4395 60.6023 41.5132 62.1578 40.1559 63.2763C38.7985 64.3948 37.0946 65.0067 35.3357 65.0071H32.112C30.41 65.0055 28.7583 64.4305 27.4232 63.375C26.0881 62.3195 25.1475 60.8451 24.7533 59.1895C22.6331 59.7162 18.2189 60.8592 13.7915 62.3367C13.0251 62.6 12.2561 62.8634 11.5028 63.1267C9.71538 63.7634 7.96322 64.4948 6.25368 65.3179C5.63474 65.626 5.0553 65.9368 4.53118 66.2528C2.68755 67.3537 1.52344 68.4914 1.52344 69.6028V74.2037C1.53398 73.0949 2.70863 71.9546 4.54173 70.8537Z" fill="#FF8AAE"/>
<path d="M26.0666 37.025C25.5358 37.025 25.0169 36.8676 24.5756 36.5728C24.1342 36.2779 23.7903 35.8587 23.5871 35.3684C23.384 34.878 23.3309 34.3384 23.4344 33.8178C23.538 33.2973 23.7935 32.8191 24.1689 32.4437C24.5442 32.0684 25.0224 31.8128 25.543 31.7093C26.0636 31.6057 26.6033 31.6589 27.0937 31.862C27.5841 32.0651 28.0032 32.4091 28.2981 32.8504C28.593 33.2918 28.7504 33.8106 28.7504 34.3414C28.749 35.0527 28.4658 35.7345 27.9628 36.2375C27.4598 36.7405 26.778 37.0236 26.0666 37.025ZM26.0666 33.9569C25.9651 33.9576 25.868 33.9984 25.7964 34.0704C25.7249 34.1425 25.6848 34.2399 25.6848 34.3414C25.6848 34.7628 26.4512 34.7628 26.4512 34.3414C26.4505 34.2396 26.4098 34.1422 26.3378 34.0703C26.2658 33.9983 26.1684 33.9576 26.0666 33.9569Z" fill="#13120F"/>
<path d="M41.4024 37.025C40.872 37.0235 40.3538 36.8647 39.9135 36.5689C39.4732 36.2731 39.1304 35.8534 38.9285 35.3629C38.7266 34.8724 38.6746 34.333 38.7791 33.813C38.8835 33.2929 39.1397 32.8155 39.5154 32.441C39.891 32.0664 40.3692 31.8116 40.8896 31.7087C41.41 31.6058 41.9493 31.6594 42.4392 31.8628C42.9291 32.0661 43.3478 32.4101 43.6423 32.8512C43.9369 33.2924 44.0941 33.8109 44.0941 34.3414C44.0927 35.0541 43.8085 35.737 43.3037 36.2402C42.799 36.7435 42.1152 37.0257 41.4024 37.025ZM41.4024 33.9569C41.3007 33.9575 41.2032 33.9983 41.1313 34.0702C41.0593 34.1422 41.0186 34.2396 41.0179 34.3414C41.0179 34.7627 41.7869 34.7627 41.7869 34.3414C41.7862 34.2396 41.7455 34.1422 41.6736 34.0702C41.6016 33.9983 41.5042 33.9575 41.4024 33.9569Z" fill="#13120F"/>
<path d="M90.4672 83.4056H87.3988V80.3375H84.3331V83.4056H81.2674V80.3375C81.2667 79.9312 81.105 79.5417 80.8177 79.2544C80.5304 78.9671 80.1409 78.8054 79.7346 78.8047H68.9994C68.7981 78.8047 68.5987 78.8444 68.4128 78.9214C68.2268 78.9984 68.0578 79.1113 67.9155 79.2536C67.7731 79.396 67.6602 79.565 67.5832 79.7509C67.5062 79.9369 67.4665 80.1362 67.4665 80.3375V83.4056H61.3325V79.2682L76.4081 56.656C76.5024 56.5172 76.572 56.363 76.6136 56.2004L82.7529 33.18L84.104 27.7784C84.8509 27.4582 85.4907 26.9309 85.9476 26.2589L88.8447 21.9213C89.435 21.0408 89.6774 19.9726 89.5251 18.9237C89.3728 17.8747 88.8366 16.9195 88.0204 16.2432L81.2674 10.6178V4.90026C81.266 3.76241 80.8132 2.67161 80.0083 1.86728C79.2035 1.06294 78.1123 0.610804 76.9744 0.610107H76.3581C75.2206 0.611501 74.1302 1.06395 73.3259 1.86821C72.5216 2.67247 72.0691 3.76287 72.0677 4.90026V12.946C72.0676 13.197 72.0061 13.4441 71.8883 13.6658C71.7706 13.8875 71.6003 14.0769 71.3923 14.2175C71.1844 14.3581 70.9452 14.4456 70.6956 14.4723C70.446 14.499 70.1936 14.4642 69.9607 14.3707L69.2153 14.0705C68.258 13.6849 67.1939 13.657 66.2178 13.9919C65.2416 14.3268 64.4188 15.0021 63.9 15.8942C63.3812 16.7862 63.2011 17.8353 63.3927 18.8493C63.5843 19.8633 64.1348 20.7744 64.9433 21.4156L70.1661 25.5926L59.5468 48.958C58.4073 51.4551 56.5748 53.5725 54.2669 55.0586C51.9591 56.5446 49.273 57.3367 46.5281 57.3408H44.4553V52.6608L48.0161 50.7093C48.1029 50.662 48.185 50.6064 48.2611 50.5434C49.1837 49.774 49.9707 48.8553 50.5893 47.8255V48.1389C53.0277 48.134 55.3649 47.1633 57.0892 45.4392C58.8134 43.715 59.7842 41.378 59.7891 38.9397V34.3414C59.7867 33.1584 59.5094 31.9921 58.9792 30.9346C58.449 29.877 57.6804 28.957 56.7339 28.2472V23.4804C58.5969 22.4061 60.1445 20.8605 61.2211 18.999C62.2978 17.1374 62.8658 15.0253 62.868 12.8748V8.27655C62.868 7.86934 62.7062 7.47881 62.4182 7.19086C62.1303 6.90292 61.7397 6.74117 61.3325 6.74117H51.9194C51.0213 3.50709 47.1997 0.610107 39.8778 0.610107H21.4678C18.6213 0.610805 15.8915 1.74164 13.8785 3.75405C11.8655 5.76646 10.734 8.49576 10.7326 11.3421V27.3149C9.36623 27.9127 8.20363 28.8956 7.38695 30.1435C6.57027 31.3913 6.13484 32.8501 6.13398 34.3414V40.4725C6.13586 42.239 6.74674 43.9508 7.86361 45.3195C8.98049 46.6881 10.5351 47.63 12.2654 47.9862V61.1832C5.82321 63.4402 0 66.3741 0 69.6108V91.0774C0 91.4839 0.161484 91.8737 0.448949 92.1612C0.736414 92.4486 1.12627 92.6101 1.5328 92.6101H90.4672C90.8737 92.6101 91.2636 92.4486 91.551 92.1612C91.8385 91.8737 92 91.4839 92 91.0774V84.9384C92.0003 84.737 91.961 84.5375 91.8841 84.3514C91.8072 84.1653 91.6942 83.9962 91.5518 83.8538C91.4094 83.7114 91.2403 83.5985 91.0542 83.5216C90.8681 83.4447 90.6686 83.4053 90.4672 83.4056ZM70.5322 81.8703H78.1991V83.4056H70.5322V81.8703ZM73.0264 23.9439L66.8581 19.0112C66.6139 18.8327 66.4444 18.5702 66.3822 18.2742C66.32 17.9782 66.3696 17.6697 66.5213 17.408C66.6731 17.1464 66.9163 16.9502 67.2042 16.8572C67.492 16.7642 67.804 16.7809 68.0802 16.9043L68.8255 17.2045C69.5242 17.4861 70.2813 17.5918 71.0304 17.5124C71.7795 17.4329 72.4976 17.1708 73.1218 16.7491C73.7459 16.3273 74.2569 15.7587 74.6099 15.0933C74.963 14.4279 75.1472 13.686 75.1465 12.9328V4.90026C75.1472 4.57568 75.2765 4.26461 75.506 4.03509C75.7356 3.80558 76.0467 3.67634 76.3713 3.67564H76.9875C77.3123 3.67564 77.6239 3.80466 77.8535 4.03432C78.0832 4.26398 78.2123 4.57547 78.2123 4.90026V11.3421C78.2121 11.5669 78.2616 11.789 78.3572 11.9925C78.4528 12.196 78.5922 12.3759 78.7653 12.5193L86.0609 18.6003C86.2934 18.7935 86.446 19.066 86.4893 19.3651C86.5326 19.6642 86.4635 19.9688 86.2953 20.22L83.3981 24.5575C83.2977 24.7085 83.165 24.8352 83.0096 24.9286C82.8542 25.022 82.68 25.0797 82.4995 25.0976C82.3191 25.1155 82.137 25.0931 81.9663 25.032C81.7956 24.971 81.6405 24.8728 81.5124 24.7445L77.7593 20.9916L75.5917 23.1591L79.3448 26.912C79.7914 27.3579 80.331 27.6997 80.9251 27.9128L79.8004 32.411L73.7428 55.1654L66.6316 65.8289L62.7257 49.4452L73.4873 25.7769C73.6259 25.4637 73.6558 25.1132 73.5723 24.7811C73.4888 24.449 73.2967 24.1543 73.0264 23.9439ZM26.0664 57.4198V54.3358L26.6511 54.6571C28.0242 55.407 29.5638 55.8001 31.1285 55.8001H36.4539C37.9784 55.7808 39.475 55.3884 40.8128 54.6571L41.3975 54.3358V57.4145C41.3975 59.021 40.7593 60.5617 39.6232 61.6977C38.4872 62.8336 36.9464 63.4718 35.3398 63.4718H32.1161C30.5118 63.4697 28.9738 62.8313 27.8397 61.6967C26.7055 60.5621 26.0678 59.024 26.0664 57.4198ZM49.067 42.2976C49.0685 43.3971 48.8325 44.484 48.3752 45.484C47.918 46.4839 47.2502 47.3734 46.4175 48.0915L39.3511 51.9656C38.5527 52.4009 37.6694 52.6579 36.7621 52.7188H31.1337C30.0863 52.7176 29.0559 52.4541 28.1365 51.9524L21.0596 48.0731C20.2269 47.355 19.559 46.4655 19.1017 45.4655C18.6445 44.4656 18.4085 43.3787 18.41 42.2791V29.7405C18.6907 29.7364 18.9645 29.6534 19.2001 29.5008V29.5219L26.5009 25.1422H49.0775V42.2976H49.067ZM50.5999 9.80932V12.8748C50.595 15.3131 49.6242 17.6501 47.8999 19.3743C46.1757 21.0984 43.8386 22.0692 41.4001 22.074H40.2861C41.5985 20.9274 42.6504 19.5133 43.3713 17.9267C44.0923 16.34 44.4654 14.6176 44.4658 12.8748V9.80932H50.5999ZM41.4001 12.8748C41.3953 15.3131 40.4244 17.6501 38.7002 19.3743C36.976 21.0984 34.6388 22.0692 32.2004 22.074H27.5992V19.0085C27.604 16.5702 28.5749 14.2332 30.2991 12.5091C32.0233 10.785 34.3605 9.81419 36.799 9.80932H41.4001V12.8748ZM56.7339 38.9476C56.7322 40.3672 56.2384 41.7423 55.3365 42.8387C54.4346 43.935 53.1804 44.6848 51.7877 44.9602C52.0142 44.0934 52.1302 43.2014 52.1327 42.3055V29.7405C53.3526 29.7419 54.5221 30.2271 55.3847 31.0896C56.2473 31.9521 56.7325 33.1216 56.7339 34.3414V38.9476ZM53.6656 26.833C53.1613 26.7289 52.6477 26.6768 52.1327 26.6776V25.0369C52.6497 24.9717 53.1618 24.8723 53.6656 24.7393V26.833ZM59.7996 12.8748C59.7947 15.3131 58.8239 17.6501 57.0997 19.3743C55.3755 21.0984 53.0383 22.0692 50.5999 22.074H49.4858C50.7982 20.9274 51.8502 19.5133 52.5711 17.9267C53.292 16.34 53.6652 14.6176 53.6656 12.8748V9.80932H59.7996V12.8748ZM27.5992 3.67564H39.8778C44.5448 3.67564 47.4683 5.06092 48.5692 6.74117H36.8095C33.5573 6.74535 30.4396 8.03922 28.1402 10.339C25.8408 12.6387 24.5475 15.7565 24.544 19.0085V22.7325L19.9429 25.4925V11.3421C19.9436 9.30903 20.7515 7.35945 22.1892 5.92186C23.6269 4.48428 25.5765 3.67634 27.6097 3.67564H27.5992ZM13.8035 11.3421C13.8031 9.57525 14.4131 7.86252 15.5304 6.49379C16.6477 5.12505 18.2037 4.18438 19.935 3.83101C19.6063 4.16861 19.2993 4.52662 19.0158 4.9029C17.6267 6.76278 16.8739 9.02077 16.8692 11.3421V26.6829H13.8035V11.3421ZM9.20236 40.4725V34.3414C9.20375 33.1216 9.68893 31.9521 10.5515 31.0896C11.4141 30.2271 12.5837 29.7419 13.8035 29.7405H15.3364V42.2976C15.3414 43.2352 15.4679 44.1683 15.713 45.0734H13.8035C12.5832 45.0727 11.413 44.5878 10.5498 43.7252C9.68669 42.8626 9.20112 41.6927 9.19972 40.4725H9.20236ZM15.3364 48.1389H17.0773C17.6607 49.042 18.3763 49.8526 19.2001 50.5434C19.2749 50.607 19.3561 50.6626 19.4424 50.7093L23.0033 52.6608V57.4198C23.0033 57.6226 23.0191 57.8227 23.0323 58.0229C20.7567 58.5891 18.065 59.3133 15.3364 60.164V48.1389ZM3.06567 69.6108C3.06567 68.4467 6.78453 66.4847 12.2654 64.4963V89.542H3.06567V69.6108ZM33.7332 89.542H21.4678V77.2772H33.7332V89.542ZM42.933 84.9437V89.542H36.799V75.7445C36.7993 75.5431 36.7599 75.3436 36.683 75.1575C36.606 74.9714 36.4932 74.8023 36.3508 74.6599C36.2084 74.5175 36.0392 74.4045 35.8531 74.3276C35.667 74.2507 35.4675 74.2113 35.2661 74.2117H19.9323C19.5258 74.2117 19.1359 74.3732 18.8484 74.6606C18.5609 74.9481 18.3994 75.338 18.3994 75.7445V89.542H15.3338V63.4402C17.9254 62.5922 20.7751 61.7679 23.7407 61.0199C24.4449 62.6594 25.6138 64.0568 27.1032 65.0397C28.5925 66.0225 30.337 66.5477 32.1214 66.5505H35.3451C37.2392 66.5473 39.0854 65.9552 40.6279 64.8562C42.1705 63.7573 43.3332 62.2058 43.9549 60.4168H46.5386C49.2526 60.4144 51.9283 59.7773 54.3521 58.5563C56.7758 57.3354 58.8804 55.5644 60.4976 53.3851L64.2981 69.3211L58.5354 77.9646C58.3652 78.2158 58.2736 78.5118 58.2721 78.8152V83.4162H55.2063V80.348H52.138V83.4162H49.0723V80.348H46.0066V83.4162H44.4711C44.0655 83.4148 43.6758 83.5742 43.3875 83.8595C43.0992 84.1448 42.9358 84.5328 42.933 84.9384V84.9437ZM88.9343 89.542H46.004V86.4659H88.9343V89.542Z" fill="#13120F"/>
</g>
<defs>
<clipPath id="clip0_3338_6155">
<rect width="92" height="92" fill="white" transform="translate(0 0.610107)"/>
</clipPath>
</defs>
</svg>
