<svg width="92" height="93" viewBox="0 0 92 93" fill="none" xmlns="http://www.w3.org/2000/svg">
<g clip-path="url(#clip0_3338_6221)">
<path d="M70.5386 34.3582H67.6572C57.0695 34.3582 45.9998 23.2942 45.9998 9.62744C45.9998 23.2837 34.938 34.3582 24.3397 34.3582H13.8047V77.2971H23.0044V68.0956H35.2646V60.4377H56.7324V68.106H69.0031V77.2971H78.2028V34.3582H70.5386ZM24.532 51.2177L20.6972 47.3822C20.1226 46.765 19.8101 45.9489 19.8254 45.1057C19.8408 44.2626 20.1829 43.4583 20.7796 42.8626C21.3763 42.2668 22.1809 41.926 23.0239 41.9121C23.8669 41.8982 24.6824 42.2122 25.2984 42.788L29.1332 46.6209L24.532 51.2177ZM71.1101 47.3874L67.278 51.2177L62.682 46.6209L66.5115 42.788C67.1264 42.2032 67.9454 41.8818 68.7939 41.8925C69.6423 41.9032 70.4529 42.2451 71.0529 42.8451C71.6529 43.4452 71.9947 44.2561 72.0053 45.1047C72.016 45.9533 71.6948 46.7724 71.1101 47.3874Z" fill="#DF6845"/>
<path d="M56.7334 60.4243H35.2656V68.0928V77.2943H56.7334V68.0928V60.4243Z" fill="#FF8AAE"/>
<path d="M68.9999 68.0933H56.7344V77.2948H68.9999V68.0933Z" fill="#FF8AAE"/>
<path d="M35.2654 68.0933H23V77.2948H35.2654V68.0933Z" fill="#FF8AAE"/>
<path d="M84.3294 59.6578L78.1953 51.2227V68.0928L84.3294 59.6578Z" fill="#ECD6C4"/>
<path d="M78.1953 84.9633L84.3294 76.5282L78.1953 68.0933V77.2948V84.9633Z" fill="#ECD6C4"/>
<path d="M21.2739 34.3582H24.3396C34.93 34.3582 45.9997 23.2941 45.9997 9.62749V2.15137L16.354 23.6208L1.53125 34.3582H21.2844H21.2739Z" fill="#E2A127"/>
<path d="M75.6431 23.6155L46 2.146V9.62213C46 23.2783 57.0619 34.3529 67.6575 34.3529H90.4659L75.6431 23.6155Z" fill="#E2A127"/>
<path d="M20.702 42.7881C20.0924 43.3982 19.75 44.2254 19.75 45.0879C19.75 45.9503 20.0924 46.7775 20.702 47.3876L24.5367 51.2179L29.1379 46.6158L25.3031 42.7881C25.0013 42.4855 24.6427 42.2455 24.2479 42.0817C23.8531 41.9179 23.4299 41.8335 23.0026 41.8335C22.5752 41.8335 22.152 41.9179 21.7572 42.0817C21.3624 42.2455 21.0038 42.4855 20.702 42.7881Z" fill="#6EB171"/>
<path d="M71.1155 47.3872C71.7002 46.7722 72.0215 45.9531 72.0108 45.1045C72.0001 44.2559 71.6583 43.4451 71.0584 42.845C70.4584 42.2449 69.6477 41.903 68.7993 41.8923C67.9509 41.8817 67.1319 42.203 66.517 42.7878L62.6875 46.6207L67.2834 51.2175L71.1155 47.3872Z" fill="#6EB171"/>
<path d="M78.2055 77.2944H13.8047V91.0981H78.2055V77.2944Z" fill="#D1EADC"/>
<path d="M61.593 56.8317L57.2578 52.493L63.7632 48.1543L65.9308 50.325L61.593 56.8317Z" fill="#E2A127"/>
<path d="M34.7381 52.493L30.4003 56.8317L26.0625 50.325L28.2301 48.1543L34.7381 52.493Z" fill="#E2A127"/>
<path d="M91.892 33.8105C91.868 33.7562 91.8407 33.7034 91.8104 33.6524C91.7241 33.4853 91.6081 33.3353 91.468 33.2099C91.4311 33.1782 91.4048 33.1387 91.3653 33.1098L80.3772 25.1384H85.8607V22.0826H76.1421L74.1457 20.6364L85.4182 9.36419L83.2506 7.19617L71.6384 18.8161L69.0046 16.9115V6.74572H65.9336V14.6881L46.8994 0.902847C46.8652 0.879139 46.8283 0.868609 46.7915 0.844901C46.7546 0.821192 46.7335 0.797483 46.6966 0.779043C46.6598 0.760603 46.6387 0.763242 46.6124 0.75007C46.5431 0.720429 46.4718 0.695771 46.399 0.676302C46.3385 0.659096 46.2769 0.645889 46.2147 0.636781C46.0764 0.621073 45.9368 0.621073 45.7985 0.636781C45.7275 0.647915 45.6572 0.662876 45.5878 0.681575C45.522 0.70265 45.4588 0.723727 45.3929 0.75007C45.3271 0.776413 45.3323 0.765875 45.3034 0.78168C45.2744 0.797486 45.2402 0.8291 45.2059 0.850174C45.1717 0.871249 45.1348 0.881776 45.1006 0.905484L26.0743 14.6881V6.74572H23.0007V16.9115L20.3669 18.8161L8.74936 7.19617L6.57914 9.36419L17.8517 20.6364L15.8553 22.0826H6.13404V25.1384H11.6228L0.634738 33.0992C0.595232 33.1282 0.568894 33.1677 0.532021 33.1993C0.391932 33.3248 0.275902 33.4748 0.189631 33.6419C0.159122 33.6924 0.1327 33.7452 0.110618 33.7999C0.0422014 33.9674 0.00472267 34.1459 0 34.3268V91.0747C-5.98398e-07 91.4816 0.16141 91.8718 0.4488 92.1598C0.73619 92.4477 1.12607 92.6098 1.53285 92.6105H90.4672C90.8739 92.6098 91.2638 92.4477 91.5512 92.1598C91.8386 91.8718 92 91.4816 92 91.0747V34.3584C91.9974 34.1707 91.9609 33.9851 91.892 33.8105ZM19.7796 35.8863L19.9192 41.4552C19.8191 41.5395 19.7111 41.608 19.6163 41.7028C18.7198 42.6012 18.2163 43.8186 18.2163 45.0879C18.2163 46.3571 18.7198 47.5746 19.6163 48.4729L22.3659 51.2178L21.9155 51.6657L24.0831 53.8337L25.6186 52.3006L30.2172 47.701L31.75 46.1653L29.5824 43.9973L29.1347 44.4478L26.385 41.6975C25.9356 41.2491 25.4014 40.8947 24.8135 40.655C24.2257 40.4152 23.596 40.2951 22.9612 40.3014L22.8505 35.881H24.3439C32.9826 35.881 42.401 28.8738 46.004 18.5368C49.6043 28.8738 59.0226 35.881 67.6614 35.881H68.9783L68.8677 40.3435C68.2358 40.3313 67.6077 40.4448 67.02 40.6772C66.4323 40.9096 65.8965 41.2564 65.4438 41.6975L62.6836 44.453L62.2358 44.0025L60.0656 46.1706L61.5985 47.7064L66.1997 52.3058L67.7325 53.839L69.9001 51.671L69.4524 51.2232L72.202 48.4729C73.0978 47.5742 73.6009 46.3569 73.6009 45.0879C73.6009 43.8188 73.0978 42.6015 72.202 41.7028C72.1072 41.608 71.9966 41.5421 71.8991 41.4578L72.0387 35.8863H76.6689V75.7589H70.5348V68.0932C70.5348 67.6858 70.3731 67.2951 70.0851 67.0071C69.7971 66.7191 69.4066 66.5574 68.9994 66.5574H58.2668V60.4379C58.2668 60.031 58.1053 59.6408 57.818 59.3529C57.5306 59.0649 57.1407 58.9028 56.7339 58.9021H35.2661C34.8593 58.9028 34.4694 59.0649 34.182 59.3529C33.8947 59.6408 33.7332 60.031 33.7332 60.4379V66.5704H23.0007C22.7991 66.5704 22.5996 66.6103 22.4135 66.6875C22.2273 66.7647 22.0582 66.8779 21.9158 67.0205C21.7735 67.1632 21.6606 67.3325 21.5837 67.5188C21.5069 67.7051 21.4675 67.9048 21.4678 68.1063V75.772H15.3338V35.8863H19.7796ZM21.7839 46.3022C21.4785 45.9764 21.3118 45.5446 21.319 45.0981C21.3262 44.6515 21.5068 44.2253 21.8225 43.9095C22.1382 43.5937 22.5644 43.4131 23.0108 43.4059C23.4573 43.3987 23.8891 43.5654 24.2148 43.8708L26.9645 46.6211L24.5335 49.0525L21.7839 46.3022ZM67.2821 49.0525L64.8485 46.6211L67.5982 43.8708C67.9252 43.5574 68.3607 43.3823 68.8137 43.3823C69.2666 43.3823 69.7021 43.5574 70.0292 43.8708C70.189 44.0304 70.3158 44.2199 70.4023 44.4285C70.4888 44.6371 70.5333 44.8607 70.5333 45.0866C70.5333 45.3124 70.4888 45.536 70.4023 45.7446C70.3158 45.9533 70.189 46.1426 70.0292 46.3022L67.2821 49.0525ZM82.4368 42.7881L79.7346 46.5051V39.0685L82.4368 42.7881ZM79.7346 55.9384L82.4368 59.6476L79.7346 63.3646V55.9384ZM80.0954 51.2232L84.3331 45.3935L88.5708 51.2178L84.3331 57.0449L80.0954 51.2232ZM86.2294 42.7934L88.9343 39.0738V46.5104L86.2294 42.7934ZM84.3331 40.1855L81.2121 35.8916H87.4568L84.3331 40.1855ZM33.7332 75.7589H24.5335V69.6263H33.7332V75.7589ZM55.2011 75.7589H36.799V61.9579H55.2011V75.7589ZM58.2668 69.6263H67.4665V75.7589H58.2668V69.6263ZM3.0657 39.0685L5.77058 42.7881L3.0657 46.5051V39.0685ZM7.66688 45.3908L11.9046 51.2178L7.66688 57.0449L3.42389 51.2178L7.66688 45.3908ZM12.2654 46.5025L9.5632 42.7881L12.2654 39.0685V46.5025ZM12.2654 55.9359V63.3725L9.5632 59.6476L12.2654 55.9359ZM7.66688 40.1776L4.54324 35.8837H10.7984L7.66688 40.1776ZM3.0657 55.9359L5.77058 59.6476L3.0657 63.3646V55.9359ZM3.0657 72.7953L5.77058 76.515L3.0657 80.2319V72.7953ZM3.42916 68.0799L7.66688 62.2503L11.9046 68.0799L7.66688 73.907L3.42916 68.0799ZM12.2654 72.7953V80.2319L9.5632 76.515L12.2654 72.7953ZM15.3338 78.8147H76.6662V89.5495H15.3338V78.8147ZM79.7346 77.2973V72.8191L82.4368 76.5281L79.7346 80.245V77.2973ZM80.0954 68.0957L84.3331 62.2661L88.5708 68.0957L84.3331 73.9228L80.0954 68.0957ZM88.9343 72.8111V80.2477L86.2294 76.5308L88.9343 72.8111ZM86.2294 59.6476L88.9343 55.928V63.3646L86.2294 59.6476ZM85.7343 32.8068H67.6588C58.351 32.8068 47.5342 22.6753 47.5342 9.61183V5.13353L75.1334 25.1384H75.1466L85.7343 32.8068ZM16.8561 25.1384L44.4553 5.14669V9.62498C44.4553 22.6885 33.6384 32.82 24.3307 32.82H6.26573L16.8561 25.1384ZM3.06833 85.4637L7.66952 79.1413L12.2681 85.4637V89.5652H3.0657L3.06833 85.4637ZM79.7372 89.5652V85.4637L84.3358 79.1413L88.9369 85.4637V89.5652H79.7372Z" fill="#13120F"/>
<path d="M26.0657 0.610352H23V3.67667H26.0657V0.610352Z" fill="#13120F"/>
<path d="M2.61309 1.06152L0.445312 3.22973L3.5126 6.29764L5.68037 4.12943L2.61309 1.06152Z" fill="#13120F"/>
<path d="M3.0657 22.0825H0V25.1488H3.0657V22.0825Z" fill="#13120F"/>
<path d="M69.0032 0.610352H65.9375V3.67667H69.0032V0.610352Z" fill="#13120F"/>
<path d="M89.3798 1.06104L86.3125 4.12895L88.4803 6.29716L91.5476 3.22925L89.3798 1.06104Z" fill="#13120F"/>
<path d="M92.0032 22.0825H88.9375V25.1488H92.0032V22.0825Z" fill="#13120F"/>
<path d="M30.6673 71.1597H27.6016V74.226H30.6673V71.1597Z" fill="#13120F"/>
<path d="M64.4016 71.1597H61.3359V74.226H64.4016V71.1597Z" fill="#13120F"/>
</g>
<defs>
<clipPath id="clip0_3338_6221">
<rect width="92" height="92" fill="white" transform="translate(0 0.610352)"/>
</clipPath>
</defs>
</svg>
