<svg width="1440" height="853" viewBox="0 0 1440 853" fill="none" xmlns="http://www.w3.org/2000/svg">
<g clip-path="url(#clip0_461_5603)">
<rect width="1440" height="852.81" fill="#D1EADC"/>
<g clip-path="url(#clip1_461_5603)">
<path d="M1200.6 692.07C1199.36 684.514 1203.59 677.202 1210.39 673.678C1215.79 670.875 1221.01 667.707 1226 664.192C1241.91 652.708 1248.79 637.585 1253.66 639.709C1257.71 641.476 1254.25 646.64 1252.24 650.125C1252.24 650.125 1257.48 644.571 1260.4 640.571C1265.43 633.674 1273.61 636.531 1267.49 646.101C1274.38 637.04 1276.86 637.469 1278.96 638.758C1281.06 640.047 1280.6 644.097 1275.12 652.564C1269.63 661.031 1260.69 671.387 1260.69 671.387C1260.69 671.387 1273.28 666.402 1279.46 675.888C1285.65 685.373 1276.82 698.261 1271.08 703.04C1269.68 704.21 1268.26 705.072 1265.97 703.411C1263.33 701.48 1263.52 698.614 1265.64 695.475C1269.36 689.962 1270.9 685.666 1267.87 683.424C1264.84 681.181 1256.94 682.189 1250.13 692.523C1243.33 702.856 1243.55 707.155 1246.71 709.604C1249.87 712.053 1254.57 710.176 1258.89 706.21C1264.44 701.119 1268.12 704.062 1268.25 706.892C1268.39 710.051 1261.88 715.973 1256.6 718.623C1247.11 723.391 1235.14 726.054 1221.59 710.554C1212.21 712.642 1202.96 706.449 1201.4 696.961L1200.6 692.07Z" fill="#DF6845"/>
<mask id="mask0_461_5603" style="mask-type:luminance" maskUnits="userSpaceOnUse" x="1200" y="636" width="82" height="87">
<path d="M1200.6 692.07C1199.36 684.514 1203.59 677.202 1210.39 673.678C1215.79 670.875 1221.01 667.707 1226 664.192C1241.91 652.708 1248.79 637.585 1253.66 639.709C1257.71 641.476 1254.25 646.64 1252.24 650.125C1252.24 650.125 1257.48 644.571 1260.4 640.571C1265.43 633.674 1273.61 636.531 1267.49 646.101C1274.38 637.04 1276.86 637.469 1278.96 638.758C1281.06 640.047 1280.6 644.097 1275.12 652.564C1269.63 661.031 1260.69 671.387 1260.69 671.387C1260.69 671.387 1273.28 666.402 1279.46 675.888C1285.65 685.373 1276.82 698.261 1271.08 703.04C1269.68 704.21 1268.26 705.072 1265.97 703.411C1263.33 701.48 1263.52 698.614 1265.64 695.475C1269.36 689.962 1270.9 685.666 1267.87 683.424C1264.84 681.181 1256.94 682.189 1250.13 692.523C1243.33 702.856 1243.55 707.155 1246.71 709.604C1249.87 712.053 1254.57 710.176 1258.89 706.21C1264.44 701.119 1268.12 704.062 1268.25 706.892C1268.39 710.051 1261.88 715.973 1256.6 718.623C1247.11 723.391 1235.14 726.054 1221.59 710.554C1212.21 712.642 1202.96 706.449 1201.4 696.961L1200.6 692.07Z" fill="white"/>
</mask>
<g mask="url(#mask0_461_5603)">
<path d="M1226 664.192L1226.58 665.009V665.003L1226 664.192ZM1252.24 650.125L1251.37 649.625L1252.96 650.811L1252.24 650.125ZM1260.4 640.571L1261.2 641.161H1261.21L1260.4 640.571ZM1267.49 646.101L1266.65 645.563L1268.29 646.707L1267.49 646.101ZM1260.69 671.387L1259.94 670.733L1261.06 672.317L1260.69 671.387ZM1265.97 703.411L1265.38 704.218V704.221L1265.97 703.411ZM1258.89 706.21L1258.21 705.472V705.473L1258.89 706.21ZM1210.85 674.566C1216.29 671.742 1221.55 668.55 1226.58 665.009L1225.42 663.374C1220.47 666.863 1215.29 670.008 1209.93 672.79L1210.85 674.566ZM1226.58 665.003C1234.65 659.184 1240.41 652.448 1244.73 647.505C1246.9 645.009 1248.66 643.031 1250.16 641.796C1251.71 640.521 1252.62 640.345 1253.26 640.626L1254.06 638.793C1252.27 638.012 1250.5 638.929 1248.89 640.252C1247.23 641.614 1245.36 643.736 1243.22 646.191C1238.89 651.15 1233.26 657.716 1225.41 663.381L1226.58 665.003ZM1253.26 640.626C1254.03 640.962 1254.34 641.396 1254.46 641.854C1254.6 642.374 1254.55 643.078 1254.27 643.973C1253.7 645.785 1252.42 647.812 1251.37 649.625L1253.1 650.625C1254.07 648.953 1255.52 646.656 1256.18 644.572C1256.5 643.52 1256.68 642.384 1256.39 641.331C1256.09 640.214 1255.31 639.34 1254.06 638.793L1253.26 640.626ZM1252.24 650.125C1252.96 650.811 1252.96 650.811 1252.96 650.811C1252.97 650.81 1252.97 650.808 1252.97 650.807C1252.97 650.804 1252.97 650.8 1252.98 650.794C1252.99 650.783 1253.01 650.767 1253.03 650.746C1253.06 650.704 1253.12 650.641 1253.2 650.561C1253.35 650.4 1253.57 650.165 1253.84 649.872C1254.38 649.285 1255.13 648.462 1255.97 647.512C1257.65 645.619 1259.72 643.201 1261.2 641.161L1259.59 639.982C1258.16 641.942 1256.15 644.301 1254.47 646.184C1253.64 647.123 1252.9 647.937 1252.37 648.517C1252.1 648.807 1251.88 649.038 1251.74 649.196C1251.66 649.275 1251.61 649.336 1251.57 649.377C1251.55 649.397 1251.53 649.413 1251.52 649.423C1251.52 649.428 1251.52 649.432 1251.51 649.435C1251.51 649.436 1251.51 649.437 1251.51 649.438C1251.51 649.438 1251.51 649.438 1252.24 650.125ZM1261.21 641.161C1262.37 639.563 1263.68 638.58 1264.86 638.108C1266.05 637.63 1267.03 637.699 1267.64 638.038C1268.22 638.351 1268.68 639.007 1268.67 640.22C1268.66 641.469 1268.12 643.257 1266.65 645.563L1268.33 646.64C1269.92 644.16 1270.65 642.003 1270.67 640.24C1270.69 638.441 1269.95 637.019 1268.61 636.284C1267.31 635.575 1265.68 635.624 1264.12 636.251C1262.54 636.885 1260.94 638.131 1259.59 639.982L1261.21 641.161ZM1268.29 646.707C1271.73 642.187 1273.95 640.197 1275.47 639.444C1276.19 639.084 1276.72 639.028 1277.13 639.079C1277.56 639.133 1277.96 639.316 1278.44 639.609L1279.48 637.906C1278.91 637.554 1278.22 637.201 1277.38 637.095C1276.52 636.987 1275.6 637.147 1274.58 637.652C1272.61 638.628 1270.15 640.954 1266.7 645.496L1268.29 646.707ZM1278.44 639.609C1278.92 639.908 1279.41 640.649 1278.91 642.735C1278.41 644.8 1277 647.816 1274.28 652.021L1275.96 653.108C1278.72 648.846 1280.28 645.602 1280.86 643.203C1281.43 640.826 1281.1 638.896 1279.48 637.906L1278.44 639.609ZM1274.28 652.021C1271.57 656.212 1267.98 660.886 1265.07 664.526C1263.61 666.342 1262.33 667.896 1261.41 668.994C1260.95 669.544 1260.58 669.979 1260.33 670.277C1260.2 670.426 1260.1 670.54 1260.03 670.617C1260 670.656 1259.98 670.685 1259.96 670.704C1259.95 670.714 1259.95 670.721 1259.94 670.726C1259.94 670.729 1259.94 670.731 1259.94 670.733C1259.94 670.733 1259.94 670.733 1260.69 671.387C1261.45 672.04 1261.45 672.04 1261.45 672.04C1261.45 672.039 1261.45 672.039 1261.45 672.038C1261.45 672.037 1261.45 672.035 1261.46 672.032C1261.46 672.027 1261.47 672.019 1261.48 672.009C1261.49 671.989 1261.52 671.959 1261.55 671.919C1261.62 671.841 1261.72 671.724 1261.85 671.574C1262.11 671.272 1262.48 670.832 1262.94 670.279C1263.87 669.171 1265.16 667.606 1266.63 665.776C1269.56 662.12 1273.19 657.384 1275.96 653.108L1274.28 652.021ZM1260.69 671.387C1261.06 672.317 1261.06 672.317 1261.06 672.317C1261.06 672.317 1261.06 672.316 1261.06 672.315C1261.07 672.314 1261.07 672.311 1261.08 672.307C1261.1 672.3 1261.14 672.288 1261.18 672.273C1261.26 672.242 1261.39 672.196 1261.56 672.141C1261.89 672.03 1262.39 671.879 1263 671.726C1264.22 671.42 1265.91 671.109 1267.77 671.08C1271.5 671.023 1275.79 672.083 1278.63 676.434L1280.3 675.342C1276.95 670.207 1271.86 669.017 1267.74 669.08C1265.69 669.112 1263.84 669.454 1262.51 669.786C1261.85 669.952 1261.31 670.117 1260.93 670.242C1260.74 670.304 1260.59 670.356 1260.49 670.394C1260.44 670.412 1260.4 670.427 1260.37 670.438C1260.36 670.444 1260.35 670.448 1260.34 670.451C1260.33 670.453 1260.33 670.454 1260.33 670.455L1260.32 670.457C1260.32 670.457 1260.32 670.457 1260.69 671.387ZM1278.63 676.434C1281.46 680.777 1280.91 685.978 1278.82 690.834C1276.74 695.685 1273.2 699.976 1270.44 702.271L1271.72 703.808C1274.7 701.325 1278.44 696.783 1280.66 691.624C1282.88 686.47 1283.66 680.484 1280.3 675.342L1278.63 676.434ZM1270.44 702.271C1269.75 702.851 1269.21 703.202 1268.67 703.304C1268.2 703.394 1267.55 703.32 1266.56 702.602L1265.38 704.221C1266.68 705.163 1267.88 705.489 1269.04 705.27C1270.14 705.063 1271.01 704.399 1271.72 703.808L1270.44 702.271ZM1266.56 702.604C1265.47 701.805 1265.03 700.887 1265.02 699.883C1265.01 698.817 1265.47 697.518 1266.47 696.034L1264.81 694.916C1263.69 696.571 1263 698.274 1263.02 699.909C1263.04 701.605 1263.83 703.086 1265.38 704.218L1266.56 702.604ZM1266.47 696.034C1268.34 693.257 1269.75 690.679 1270.26 688.448C1270.52 687.32 1270.57 686.222 1270.29 685.209C1270 684.178 1269.39 683.305 1268.46 682.62L1267.27 684.228C1267.86 684.664 1268.2 685.169 1268.36 685.746C1268.53 686.342 1268.52 687.083 1268.31 687.998C1267.89 689.854 1266.66 692.179 1264.81 694.916L1266.47 696.034ZM1268.46 682.62C1266.57 681.223 1263.45 680.988 1260.05 682.327C1256.61 683.682 1252.79 686.674 1249.3 691.973L1250.97 693.073C1254.29 688.038 1257.81 685.36 1260.78 684.188C1263.79 683 1266.13 683.382 1267.27 684.228L1268.46 682.62ZM1249.3 691.973C1245.88 697.165 1244.13 700.974 1243.69 703.871C1243.47 705.342 1243.58 706.615 1244.02 707.722C1244.46 708.831 1245.19 709.696 1246.09 710.394L1247.32 708.813C1246.64 708.287 1246.16 707.697 1245.88 706.988C1245.6 706.277 1245.49 705.371 1245.67 704.169C1246.04 701.721 1247.58 698.214 1250.97 693.073L1249.3 691.973ZM1246.09 710.394C1248.01 711.877 1250.34 711.992 1252.66 711.267C1254.96 710.549 1257.34 708.986 1259.56 706.946L1258.21 705.473C1256.11 707.399 1253.98 708.759 1252.06 709.358C1250.16 709.951 1248.57 709.78 1247.32 708.813L1246.09 710.394ZM1259.56 706.947C1262.21 704.52 1264.17 704.221 1265.34 704.544C1266.51 704.871 1267.2 705.913 1267.25 706.937L1269.25 706.848C1269.17 705.042 1267.96 703.197 1265.87 702.617C1263.77 702.034 1261.12 702.808 1258.21 705.472L1259.56 706.947ZM1267.25 706.937C1267.27 707.409 1267.03 708.153 1266.39 709.142C1265.77 710.1 1264.86 711.161 1263.76 712.231C1261.56 714.375 1258.69 716.455 1256.15 717.729L1257.05 719.516C1259.79 718.141 1262.82 715.935 1265.16 713.665C1266.32 712.529 1267.35 711.352 1268.07 710.228C1268.78 709.136 1269.3 707.954 1269.25 706.847L1267.25 706.937ZM1256.15 717.729C1251.48 720.077 1246.32 721.839 1240.73 721.195C1235.17 720.555 1229 717.51 1222.34 709.896L1220.84 711.212C1227.73 719.098 1234.33 722.471 1240.51 723.182C1246.66 723.89 1252.24 721.936 1257.05 719.516L1256.15 717.729ZM1202.39 696.799L1201.59 691.907L1199.61 692.232L1200.42 697.123L1202.39 696.799ZM1221.37 709.578C1212.54 711.542 1203.86 705.715 1202.39 696.799L1200.42 697.123C1202.07 707.182 1211.87 713.742 1221.81 711.53L1221.37 709.578ZM1209.93 672.79C1202.79 676.487 1198.29 684.194 1199.61 692.232L1201.59 691.907C1200.42 684.833 1204.38 677.918 1210.85 674.566L1209.93 672.79Z" fill="#13120F"/>
</g>
<path d="M1408.24 94.9183C1406.78 101.895 1400.56 107.283 1391.49 110.283C1382.43 113.279 1370.63 113.853 1358.23 111.263C1345.84 108.674 1335.25 103.423 1328.15 97.0506C1321.04 90.6686 1317.5 83.2406 1318.96 76.2641C1320.41 69.2876 1326.63 63.8996 1335.71 60.8992C1344.77 57.9035 1356.57 57.3298 1368.96 59.9189C1381.35 62.508 1391.94 67.7597 1399.04 74.1318C1406.15 80.5137 1409.7 87.9418 1408.24 94.9183Z" fill="#E2A127" stroke="#13120F"/>
<path d="M1343.38 70.3596C1343.39 70.4763 1343.43 70.484 1343.45 70.5649C1343.5 70.6891 1343.46 70.6815 1343.52 70.769C1343.55 70.8349 1343.58 70.9033 1343.59 70.9735C1343.63 71.0488 1343.65 71.1307 1343.66 71.2144C1343.7 71.2725 1343.73 71.345 1343.73 71.4196C1343.77 71.4845 1343.81 71.5558 1343.84 71.6313C1343.89 71.7191 1343.86 71.7114 1343.91 71.8356C1343.91 71.9102 1343.93 71.9826 1343.98 72.0407C1343.98 72.1151 1344 72.1874 1344.05 72.2451C1344.08 72.3109 1344.1 72.3796 1344.12 72.4502C1344.15 72.5158 1344.17 72.5842 1344.19 72.6544C1344.23 72.7295 1344.25 72.8116 1344.25 72.8954C1344.3 72.9526 1344.33 73.0252 1344.32 73.0997L1344.44 73.2758C1344.49 73.4 1344.45 73.3926 1344.5 73.5168C1344.52 73.5969 1344.56 73.6045 1344.57 73.721C1344.62 73.7862 1344.66 73.858 1344.68 73.9338C1344.7 73.9979 1344.71 74.0638 1344.72 74.1305C1344.75 74.1963 1344.77 74.265 1344.79 74.3356C1344.84 74.46 1344.85 74.4234 1344.89 74.5476C1344.94 74.6052 1344.97 74.6775 1344.97 74.7518C1345.02 74.8402 1344.98 74.8686 1345.04 74.957C1345.07 75.0229 1345.09 75.0912 1345.11 75.1613C1345.16 75.2855 1345.12 75.278 1345.17 75.4022L1345.29 75.5783C1345.34 75.7025 1345.3 75.6949 1345.31 75.8116C1345.36 75.8767 1345.4 75.9481 1345.42 76.0235C1345.48 76.1111 1345.44 76.1034 1345.49 76.2278C1345.51 76.3086 1345.55 76.3162 1345.6 76.4406C1345.62 76.5205 1345.58 76.5497 1345.63 76.6372C1345.66 76.7034 1345.69 76.772 1345.7 76.8424C1345.73 76.9083 1345.76 76.9766 1345.78 77.0467C1345.83 77.1709 1345.83 77.1342 1345.88 77.2586C1345.91 77.3247 1345.94 77.3934 1345.95 77.4637C1346 77.5879 1345.97 77.5803 1346.03 77.668C1346.04 77.7846 1346.08 77.7922 1346.1 77.8723C1346.13 77.9481 1346.15 78.0302 1346.16 78.1141C1346.18 78.1477 1346.21 78.1757 1346.25 78.1961C1346.28 78.2165 1346.32 78.2288 1346.36 78.2321C1346.4 78.2242 1346.44 78.2062 1346.47 78.1798C1346.51 78.1534 1346.53 78.1193 1346.55 78.0808L1346.59 77.8618C1346.61 77.7527 1346.58 77.7452 1346.6 77.6362L1346.65 77.418C1346.68 77.2731 1346.71 77.2806 1346.74 77.1698L1346.78 76.9517C1346.8 76.8426 1346.77 76.8351 1346.79 76.7261C1346.81 76.617 1346.85 76.6244 1346.87 76.5145C1346.9 76.4046 1346.86 76.398 1346.88 76.2889C1346.91 76.1798 1346.94 76.1873 1346.96 76.0782L1347.01 75.8601C1347.03 75.751 1347 75.7435 1347.02 75.6344C1347.04 75.5254 1347.08 75.5328 1347.11 75.3862C1347.13 75.2772 1347.1 75.2697 1347.12 75.1606C1347.14 75.0515 1347.18 75.059 1347.2 74.9499L1347.34 74.2946C1347.36 74.1855 1347.32 74.1781 1347.35 74.069C1347.36 73.9965 1347.41 73.9316 1347.44 73.8208C1347.45 73.7475 1347.43 73.6676 1347.45 73.5952L1347.58 72.9398C1347.57 72.865 1347.57 72.7874 1347.59 72.714C1347.58 72.626 1347.59 72.5367 1347.61 72.4507C1347.62 72.3774 1347.6 72.2975 1347.62 72.2251C1347.59 72.1503 1347.58 72.0706 1347.59 71.9916C1347.57 71.928 1347.56 71.8614 1347.56 71.7942L1347.49 71.5532C1347.48 71.4823 1347.45 71.4136 1347.42 71.349C1347.41 71.2741 1347.41 71.1966 1347.43 71.1232C1347.44 71.0598 1347.47 70.9999 1347.51 70.9484C1347.55 70.9203 1347.6 70.8545 1347.64 70.8263C1347.71 70.8116 1347.77 70.8121 1347.83 70.8276C1347.91 70.8429 1348.01 70.9023 1348.08 70.9176C1348.15 70.9329 1348.23 70.9114 1348.31 70.9265L1352.27 71.7542C1352.33 71.7578 1352.39 71.7842 1352.44 71.8287C1352.47 71.8482 1352.49 71.8736 1352.5 71.9028C1352.52 71.932 1352.52 71.9641 1352.52 71.9963C1352.54 72.0599 1352.55 72.1266 1352.55 72.1938C1352.54 72.261 1352.5 72.3202 1352.44 72.3602L1352.29 72.5556C1352.27 72.6289 1352.19 72.6862 1352.18 72.7228C1352.12 72.7805 1352.08 72.8499 1352.06 72.9257C1352.01 72.9837 1351.97 73.0531 1351.94 73.1287C1351.89 73.1935 1351.88 73.2659 1351.82 73.3316L1351.77 73.5872C1351.72 73.653 1351.74 73.733 1351.69 73.7979L1351.64 74.0169C1351.63 74.0893 1351.58 74.1541 1351.56 74.2274L1351.52 74.4456C1351.5 74.518 1351.45 74.583 1351.43 74.6563L1351.38 74.9119C1351.36 75.021 1351.39 75.0285 1351.37 75.1376L1351.14 76.2292C1351.12 76.3383 1351.08 76.3308 1351.06 76.4399C1351.04 76.549 1351.07 76.5564 1351.05 76.6655L1351.01 76.8836C1350.98 76.9927 1350.95 76.9853 1350.93 77.0577C1350.91 77.1668 1350.95 77.1743 1350.92 77.2833C1350.9 77.3924 1350.86 77.3849 1350.84 77.494L1350.75 77.9303C1350.73 78.0394 1350.76 78.0469 1350.74 78.1559L1350.69 78.3741C1350.67 78.4832 1350.64 78.4757 1350.61 78.5848C1350.59 78.6939 1350.63 78.7014 1350.6 78.8104L1350.51 79.2476C1350.49 79.3567 1350.45 79.3492 1350.43 79.4583C1350.41 79.5674 1350.44 79.5748 1350.42 79.6839L1349.97 81.8654C1349.94 81.9745 1349.91 81.9671 1349.88 82.0761C1349.86 82.1852 1349.9 82.1927 1349.87 82.3018L1349.78 82.7381C1349.76 82.8472 1349.72 82.8397 1349.7 82.9488C1349.68 83.0579 1349.71 83.0653 1349.69 83.1744L1349.51 84.047C1349.49 84.1569 1349.45 84.1495 1349.43 84.2586C1349.41 84.3677 1349.44 84.3751 1349.42 84.4842L1349.19 85.575C1349.17 85.684 1349.13 85.6766 1349.11 85.7857C1349.09 85.8947 1349.12 85.9022 1349.1 86.0113C1349.08 86.1204 1349.04 86.1129 1349.02 86.222C1348.99 86.3311 1349.03 86.3385 1349.01 86.4476L1348.73 87.7565C1348.71 87.8656 1348.68 87.8582 1348.65 87.9672C1348.63 88.0763 1348.67 88.0837 1348.64 88.1928L1348.6 88.411C1348.57 88.5201 1348.54 88.5126 1348.52 88.5859C1348.5 88.695 1348.54 88.7024 1348.51 88.8115C1348.49 88.9206 1348.46 88.9131 1348.43 89.0222L1348.39 89.2404C1348.36 89.3495 1348.4 89.3569 1348.38 89.466C1348.35 89.5751 1348.32 89.5676 1348.3 89.6767C1348.27 89.7857 1348.31 89.7932 1348.29 89.9023L1348.24 90.1204C1348.22 90.2295 1348.18 90.2221 1348.16 90.3311C1348.14 90.4402 1348.16 90.5201 1348.14 90.5943L1348 91.2487C1348.03 91.3288 1347.97 91.3945 1348 91.4746L1347.94 91.7302C1347.96 91.8101 1347.95 91.8826 1347.97 91.9635C1347.95 92.0369 1347.94 92.1144 1347.96 92.1893C1347.95 92.2617 1347.97 92.3418 1347.95 92.4151C1347.97 92.4861 1347.99 92.5549 1348.02 92.6194C1348.05 92.6942 1348.06 92.7738 1348.05 92.8526L1348.11 93.0936C1348.15 93.153 1348.16 93.2232 1348.15 93.2911C1348.12 93.3521 1348.08 93.4083 1348.04 93.4574C1348.02 93.4877 1348.01 93.5147 1347.98 93.5361C1347.96 93.5575 1347.93 93.5727 1347.9 93.5804C1347.84 93.6014 1347.77 93.6007 1347.71 93.5783L1343.27 92.6519C1343.22 92.6239 1343.16 92.5993 1343.1 92.5782C1343.07 92.5339 1343.01 92.4822 1342.99 92.4021C1342.96 92.322 1343.02 92.2564 1343.02 92.2206C1343.03 92.1447 1343.06 92.0724 1343.11 92.0101C1343.16 91.9637 1343.21 91.91 1343.25 91.8505C1343.29 91.7912 1343.34 91.7378 1343.4 91.6917C1343.42 91.6161 1343.46 91.5467 1343.52 91.4887C1343.57 91.423 1343.58 91.3506 1343.64 91.2858C1343.65 91.2101 1343.67 91.1379 1343.72 91.0752L1343.76 90.863C1343.81 90.7853 1343.85 90.7051 1343.89 90.6226C1343.9 90.5502 1343.88 90.4692 1343.9 90.3968C1343.94 90.3344 1343.97 90.2621 1343.98 90.1863L1344.07 89.75C1344.09 89.6767 1344.14 89.6117 1344.16 89.5018L1344.25 89.0655C1344.27 88.9564 1344.24 88.9489 1344.25 88.8765L1344.3 88.6584C1344.32 88.5493 1344.36 88.5568 1344.38 88.4477L1344.47 88.0105C1344.49 87.9014 1344.46 87.894 1344.48 87.7849C1344.5 87.6758 1344.54 87.6833 1344.56 87.5742L1344.65 87.1362C1344.68 87.0271 1344.64 87.0196 1344.66 86.9105C1344.69 86.8015 1344.72 86.8089 1344.75 86.6999L1344.88 86.0454C1344.91 85.9363 1344.87 85.9289 1344.89 85.8198C1344.91 85.7107 1344.95 85.7182 1344.97 85.6091C1345 85.5 1344.96 85.4925 1344.98 85.3835C1345.02 85.2832 1345.01 85.1748 1344.97 85.0776C1344.95 85.007 1344.93 84.9383 1344.9 84.8724C1344.89 84.7998 1344.87 84.7299 1344.83 84.6681C1344.82 84.5516 1344.78 84.544 1344.76 84.463C1344.71 84.3388 1344.7 84.3754 1344.65 84.2512C1344.64 84.1345 1344.67 84.1421 1344.62 84.0178L1344.51 83.8418L1344.48 83.6084C1344.44 83.5435 1344.4 83.4721 1344.37 83.3966C1344.36 83.3264 1344.33 83.258 1344.3 83.1921C1344.28 83.1114 1344.25 83.1037 1344.23 82.9872C1344.19 82.9224 1344.15 82.851 1344.12 82.7752C1344.11 82.7107 1344.09 82.6445 1344.09 82.5776C1344.04 82.5127 1344.01 82.4413 1343.98 82.3658C1343.97 82.2491 1343.96 82.2857 1343.91 82.1615C1343.86 82.1038 1343.84 82.031 1343.84 81.9564C1343.79 81.832 1343.83 81.8397 1343.77 81.7521C1343.72 81.6277 1343.76 81.6354 1343.71 81.5112C1343.67 81.4626 1343.64 81.4046 1343.63 81.3427L1343.53 81.0941C1343.51 81.0241 1343.49 80.9558 1343.46 80.8898C1343.44 80.8195 1343.42 80.7508 1343.39 80.6847C1343.38 80.6122 1343.35 80.5425 1343.31 80.4804C1343.3 80.3637 1343.26 80.3929 1343.24 80.2761C1343.21 80.2137 1343.18 80.1437 1343.17 80.071C1343.12 79.9466 1343.11 79.9833 1343.07 79.8591C1343.07 79.7847 1343.04 79.7124 1342.99 79.6547C1342.98 79.538 1342.94 79.5306 1342.92 79.4496C1342.89 79.3837 1342.87 79.3153 1342.85 79.2453C1342.8 79.1211 1342.84 79.1286 1342.79 79.0044C1342.74 78.9463 1342.72 78.8738 1342.72 78.7993C1342.67 78.7416 1342.65 78.6693 1342.65 78.595C1342.6 78.5299 1342.56 78.4585 1342.54 78.383C1342.48 78.2946 1342.52 78.3023 1342.47 78.1779C1342.47 78.1035 1342.44 78.0309 1342.4 77.9736C1342.39 77.9525 1342.38 77.9327 1342.37 77.9153C1342.36 77.8979 1342.34 77.8833 1342.32 77.8723C1342.3 77.8614 1342.28 77.8543 1342.26 77.8514C1342.24 77.8485 1342.22 77.85 1342.19 77.8557C1342.16 77.8617 1342.12 77.8806 1342.09 77.9094C1342.07 77.9382 1342.05 77.9752 1342.05 78.0144L1341.87 78.8504C1341.85 78.9595 1341.81 78.9518 1341.79 79.0609C1341.77 79.17 1341.8 79.1785 1341.78 79.2875L1341.55 80.3783C1341.53 80.4874 1341.49 80.4797 1341.47 80.5888L1341.43 80.807C1341.4 80.916 1341.44 80.9237 1341.42 81.0328L1341.37 81.2509C1341.35 81.36 1341.31 81.3524 1341.29 81.4614C1341.27 81.5705 1341.3 81.5782 1341.28 81.6873L1341.23 81.9054C1341.21 82.0145 1341.18 82.0068 1341.15 82.1159L1341.11 82.3341C1341.08 82.4431 1341.12 82.4508 1341.1 82.5599L1340.96 83.2144C1340.95 83.2876 1340.91 83.28 1340.89 83.3891C1340.86 83.4982 1340.9 83.5058 1340.88 83.6148L1340.83 83.833C1340.81 83.9421 1340.77 83.9344 1340.75 84.0435C1340.73 84.1526 1340.76 84.1603 1340.74 84.2693L1340.69 84.4875C1340.67 84.5966 1340.64 84.5889 1340.61 84.698C1340.59 84.8071 1340.63 84.8147 1340.6 84.9238L1340.51 85.3601C1340.49 85.4692 1340.45 85.4615 1340.43 85.5706C1340.41 85.6797 1340.44 85.6873 1340.42 85.7964L1340.38 86.0146C1340.35 86.1237 1340.32 86.116 1340.29 86.2251L1340.2 86.6614C1340.18 86.7705 1340.22 86.7781 1340.19 86.8872C1340.17 86.9963 1340.13 86.9887 1340.11 87.0977C1340.09 87.2068 1340.13 87.2144 1340.1 87.3235L1340.06 87.5425C1340.03 87.6516 1340 87.644 1339.97 87.753C1339.95 87.8621 1339.99 87.8698 1339.97 87.9789L1339.88 88.3785C1339.86 88.4876 1339.82 88.48 1339.8 88.589C1339.78 88.6981 1339.8 88.7782 1339.78 88.8523L1339.65 89.5068C1339.66 89.5816 1339.66 89.6592 1339.64 89.7326C1339.61 89.8177 1339.6 89.9081 1339.62 89.9959L1339.57 90.2141C1339.6 90.2888 1339.61 90.3686 1339.6 90.4473C1339.62 90.5222 1339.61 90.5998 1339.59 90.6732C1339.62 90.7479 1339.63 90.8276 1339.62 90.9064C1339.63 90.9774 1339.66 91.0461 1339.69 91.1107C1339.7 91.182 1339.73 91.251 1339.76 91.3159C1339.78 91.3503 1339.8 91.3891 1339.8 91.4294C1339.81 91.4698 1339.8 91.5107 1339.79 91.5491C1339.78 91.6121 1339.75 91.6717 1339.71 91.7232C1339.67 91.7522 1339.62 91.817 1339.54 91.8385C1339.48 91.8595 1339.41 91.8588 1339.35 91.8364L1334.92 90.91C1334.85 90.8824 1334.8 90.8452 1334.75 90.7996C1334.71 90.792 1334.69 90.7121 1334.66 90.6678C1334.64 90.6046 1334.63 90.5381 1334.63 90.4711C1334.65 90.3954 1334.69 90.326 1334.75 90.2681C1334.8 90.2218 1334.85 90.1681 1334.89 90.1085C1334.95 90.0437 1334.99 90.0146 1335.04 89.9498C1335.09 89.885 1335.11 89.8117 1335.16 89.7468C1335.17 89.6735 1335.23 89.6087 1335.24 89.5363C1335.3 89.4783 1335.34 89.4089 1335.36 89.3332C1335.41 89.2676 1335.39 89.1875 1335.44 89.1227L1335.49 88.867C1335.54 88.8047 1335.57 88.7324 1335.58 88.6565L1335.67 88.2202C1335.68 88.1469 1335.73 88.082 1335.75 88.0096L1335.89 87.3184C1335.92 87.2093 1335.88 87.2019 1335.9 87.0928C1335.93 86.9837 1335.96 86.9912 1335.98 86.8821L1336.11 86.2634C1336.14 86.1544 1336.1 86.1469 1336.12 86.0378L1336.17 85.8197C1336.19 85.7106 1336.23 85.718 1336.25 85.609L1336.3 85.39C1336.32 85.2809 1336.28 85.2734 1336.31 85.1643C1336.33 85.0553 1336.36 85.0627 1336.39 84.9536L1336.43 84.7355C1336.46 84.6264 1336.42 84.6189 1336.44 84.5099C1336.47 84.4008 1336.5 84.4083 1336.52 84.2992L1336.62 83.8629C1336.64 83.7538 1336.6 83.7463 1336.63 83.6372L1336.67 83.4225C1336.69 83.3134 1336.73 83.3209 1336.75 83.2118L1336.89 82.5573C1336.91 82.4482 1336.88 82.4408 1336.9 82.3317L1336.94 82.1136C1336.97 82.0045 1337 82.012 1337.03 81.9029L1337.44 79.9361C1337.46 79.827 1337.42 79.8195 1337.45 79.7104C1337.47 79.6014 1337.5 79.6088 1337.53 79.4997C1337.55 79.3907 1337.51 79.3832 1337.54 79.2741L1337.63 78.8378C1337.65 78.7287 1337.69 78.7362 1337.71 78.6271L1337.76 78.409C1337.78 78.2999 1337.74 78.2924 1337.77 78.1833L1337.81 77.9652C1337.83 77.8561 1337.87 77.8636 1337.89 77.7545L1338.07 76.8819C1338.1 76.7728 1338.06 76.7653 1338.08 76.6563C1338.11 76.5472 1338.14 76.5546 1338.17 76.4456L1338.57 74.5162C1338.59 74.4072 1338.56 74.3997 1338.58 74.2906C1338.6 74.1815 1338.64 74.189 1338.66 74.0799L1338.89 72.9883C1338.91 72.8792 1338.87 72.8718 1338.9 72.7627L1338.94 72.5445C1338.97 72.4354 1339 72.4429 1339.02 72.3338L1339.08 72.0782C1339.09 72.0049 1339.07 71.925 1339.09 71.8525C1339.1 71.7801 1339.15 71.7143 1339.17 71.6419C1339.19 71.5685 1339.19 71.4911 1339.18 71.4162L1339.22 71.1972C1339.2 71.1171 1339.22 71.0447 1339.2 70.9638L1339.25 70.7081C1339.26 70.6293 1339.25 70.5495 1339.22 70.4748C1339.25 70.4014 1339.25 70.3239 1339.23 70.249C1339.25 70.1757 1339.18 70.1248 1339.16 70.0439C1339.17 69.9651 1339.16 69.8854 1339.13 69.8106C1339.12 69.7397 1339.1 69.671 1339.06 69.6063C1339.04 69.5316 1339.03 69.4519 1339.04 69.3731C1339.06 69.3117 1339.1 69.2552 1339.15 69.2058L1339.28 69.1195C1339.34 69.0978 1339.41 69.0862 1339.48 69.085L1341.18 69.4419C1341.29 69.4646 1341.29 69.5013 1341.39 69.524C1341.5 69.5468 1341.51 69.5102 1341.62 69.533L1342.89 69.7988C1342.96 69.8062 1343.02 69.8321 1343.07 69.8733C1343.14 69.8884 1343.16 69.9685 1343.19 70.0128C1343.22 70.0571 1343.29 70.0713 1343.31 70.1521C1343.37 70.2431 1343.32 70.2721 1343.38 70.3596Z" fill="#13120F"/>
<path d="M1349.35 93.8858C1349.32 93.8417 1349.3 93.7616 1349.27 93.7173C1349.25 93.654 1349.24 93.5876 1349.24 93.5207C1349.25 93.4535 1349.29 93.3941 1349.35 93.3534L1349.5 93.158C1349.56 93.104 1349.6 93.0333 1349.62 92.9552C1349.66 92.926 1349.75 92.8689 1349.77 92.7965C1349.81 92.7337 1349.84 92.6615 1349.85 92.5858C1349.89 92.5233 1349.92 92.4511 1349.93 92.3753C1349.98 92.3011 1350.01 92.216 1350.02 92.1273C1350.06 92.0645 1350.09 91.9923 1350.1 91.9166C1350.12 91.8442 1350.17 91.7785 1350.18 91.7061L1350.27 91.2698C1350.29 91.1965 1350.34 91.1317 1350.36 91.0593L1350.5 90.3682C1350.52 90.2591 1350.49 90.2514 1350.51 90.1423L1350.59 89.7427C1350.62 89.6336 1350.65 89.6412 1350.68 89.5313L1350.77 89.095C1350.79 88.9859 1350.75 88.9783 1350.78 88.8692C1350.8 88.7601 1350.84 88.7678 1350.86 88.6587L1351.13 87.3498C1351.15 87.2407 1351.12 87.233 1351.14 87.124C1351.16 87.0149 1351.2 87.0225 1351.22 86.9134L1351.27 86.6953C1351.29 86.5862 1351.25 86.5785 1351.28 86.4695C1351.3 86.3604 1351.34 86.368 1351.36 86.259C1351.38 86.1499 1351.35 86.1422 1351.37 86.0331C1351.39 85.9241 1351.43 85.9317 1351.45 85.8226C1351.47 85.7136 1351.44 85.7059 1351.46 85.5969C1351.48 85.4878 1351.52 85.4954 1351.54 85.3864C1351.56 85.2773 1351.53 85.2696 1351.55 85.1605C1351.57 85.0515 1351.61 85.0591 1351.63 84.95L1351.86 83.8584C1351.88 83.7493 1351.85 83.7417 1351.87 83.6326C1351.89 83.5235 1351.93 83.5312 1351.95 83.4221L1352.41 81.2405C1352.43 81.1315 1352.39 81.1238 1352.42 81.0147C1352.44 80.9057 1352.48 80.9133 1352.5 80.8042L1352.59 80.3679C1352.61 80.2588 1352.58 80.2512 1352.6 80.1421L1352.69 79.7058C1352.71 79.5967 1352.75 79.6043 1352.77 79.4953L1352.82 79.2763C1352.84 79.1672 1352.8 79.1595 1352.83 79.0504L1352.87 78.8323C1352.9 78.7232 1352.93 78.7309 1352.96 78.6218L1353.04 78.2221C1353.06 78.113 1353.03 78.1054 1353.05 77.9963C1353.07 77.8872 1353.11 77.8949 1353.13 77.7858C1353.15 77.6768 1353.12 77.6691 1353.14 77.56L1353.18 77.3419C1353.21 77.2328 1353.24 77.2404 1353.27 77.1313C1353.29 77.0223 1353.25 77.0146 1353.28 76.9055C1353.3 76.7965 1353.34 76.8041 1353.36 76.695C1353.38 76.5859 1353.34 76.5783 1353.37 76.4692L1353.41 76.2485C1353.44 76.1394 1353.47 76.1471 1353.5 76.0372C1353.52 75.9272 1353.48 75.9204 1353.5 75.8114C1353.53 75.7023 1353.56 75.7099 1353.59 75.6008C1353.61 75.4918 1353.57 75.4841 1353.6 75.375C1353.61 75.3026 1353.66 75.2378 1353.69 75.127C1353.7 75.0537 1353.68 74.9737 1353.69 74.9012C1353.71 74.8288 1353.76 74.7631 1353.78 74.6907C1353.76 74.6098 1353.77 74.5373 1353.75 74.4573C1353.76 74.384 1353.82 74.3192 1353.79 74.2383C1353.82 74.1649 1353.82 74.0875 1353.8 74.0126L1353.86 73.757C1353.84 73.6821 1353.85 73.6046 1353.87 73.5312C1353.84 73.4564 1353.83 73.3767 1353.84 73.2979C1353.82 73.2169 1353.83 73.1445 1353.81 73.0644C1353.78 72.9994 1353.76 72.9305 1353.74 72.8593C1353.72 72.7794 1353.74 72.707 1353.68 72.6184C1353.66 72.557 1353.66 72.4903 1353.68 72.4294C1353.65 72.3851 1353.7 72.3203 1353.75 72.2545C1353.77 72.2308 1353.79 72.2106 1353.81 72.1956C1353.83 72.1806 1353.86 72.1712 1353.89 72.1682C1353.95 72.1465 1354.02 72.135 1354.08 72.1338L1358.01 72.9533C1358.08 72.9686 1358.14 73.0203 1358.22 73.0356C1358.29 73.0509 1358.37 73.0293 1358.44 73.0446L1361.5 73.6827C1361.57 73.698 1361.63 73.7498 1361.71 73.7649C1361.78 73.78 1361.86 73.7587 1361.93 73.7738L1362.59 73.9105C1362.66 73.895 1362.74 73.898 1362.81 73.9194L1363.03 73.9649C1363.11 73.9444 1363.16 73.9154 1363.23 73.9305C1363.3 73.9519 1363.38 73.955 1363.45 73.9395C1363.53 73.9546 1363.61 73.9341 1363.67 73.985C1363.75 74.0087 1363.82 74.0493 1363.87 74.1038C1363.93 74.1458 1363.97 74.2083 1363.99 74.2791C1364.02 74.3441 1364.05 74.4131 1364.06 74.4842C1364.05 74.5567 1364.07 74.6366 1364.05 74.7099C1364.07 74.79 1364.06 74.8632 1364.08 74.9433C1364.06 75.0158 1364.08 75.0965 1364.07 75.169C1364.05 75.2414 1364.07 75.3223 1364.06 75.3948C1364.07 75.4696 1364.07 75.5472 1364.05 75.6206C1364.07 75.6955 1364.06 75.7728 1364.04 75.8462C1364.06 75.9263 1364.05 75.9996 1364.07 76.0796C1364.05 76.153 1364.04 76.2304 1364.06 76.3053C1364.06 76.3686 1364.06 76.4321 1364.06 76.4953C1364.08 76.57 1364.09 76.6498 1364.08 76.7286C1364.08 76.8075 1364.08 76.8873 1364.11 76.9621C1364.09 77.0354 1364.09 77.1128 1364.1 77.1877C1364.08 77.2611 1364.08 77.3386 1364.09 77.4135C1364.07 77.4869 1364.07 77.5644 1364.08 77.6393C1364.07 77.7181 1364.08 77.7978 1364.11 77.8725C1364.09 77.946 1364.09 78.0235 1364.1 78.0984L1364.06 78.2799C1364.02 78.3089 1363.97 78.3736 1363.92 78.4028C1363.85 78.4183 1363.77 78.4152 1363.7 78.3939C1363.64 78.366 1363.58 78.3284 1363.53 78.2826C1363.49 78.2269 1363.43 78.1775 1363.37 78.1356C1363.3 78.1118 1363.23 78.0715 1363.17 78.0176C1363.14 77.9733 1363.07 77.9582 1363 77.9064C1362.93 77.8911 1362.87 77.8402 1362.79 77.8251C1362.74 77.7708 1362.67 77.7302 1362.59 77.7063C1362.53 77.6628 1362.46 77.6349 1362.38 77.6249C1362.32 77.5967 1362.27 77.5717 1362.21 77.5502C1362.13 77.5351 1362.07 77.4831 1362 77.468L1361.34 77.3314C1361.27 77.3162 1361.2 77.2652 1361.13 77.25C1361.06 77.2349 1360.98 77.2554 1360.91 77.2403C1360.8 77.2175 1360.8 77.1817 1360.69 77.1589C1360.59 77.1362 1360.58 77.172 1360.47 77.1492L1360.25 77.1031C1360.14 77.0803 1360.15 77.0445 1360.04 77.0218C1359.93 76.999 1359.92 77.0348 1359.81 77.012L1359.16 76.8754C1359.05 76.8524 1359.06 76.8166 1358.95 76.7941C1358.84 76.7715 1358.83 76.8069 1358.72 76.7841C1358.61 76.7613 1358.62 76.7255 1358.51 76.7028C1358.4 76.68 1358.4 76.7158 1358.29 76.693C1358.21 76.6717 1358.14 76.6687 1358.06 76.6841C1357.99 76.669 1357.94 76.7338 1357.86 76.7553C1357.8 76.8015 1357.75 76.8549 1357.71 76.9141C1357.66 76.9618 1357.64 77.0236 1357.63 77.0887L1357.32 78.5792C1357.3 78.6883 1357.26 78.6808 1357.24 78.7907C1357.22 78.9007 1357.25 78.9073 1357.23 79.0164L1356.92 80.5068C1356.9 80.6159 1356.86 80.6085 1356.84 80.7175C1356.82 80.8266 1356.85 80.834 1356.83 80.9431C1356.81 81.0043 1356.81 81.0716 1356.83 81.1332C1356.84 81.2041 1356.87 81.2728 1356.9 81.3374C1356.96 81.3892 1356.99 81.4693 1357.06 81.4844C1357.12 81.5385 1357.18 81.5788 1357.26 81.6024L1358.9 81.9442C1358.97 81.9593 1359.05 81.9387 1359.12 81.954L1359.34 81.9995C1359.41 81.9839 1359.49 81.9869 1359.57 82.0084C1359.65 81.9977 1359.74 82.0033 1359.83 82.0251C1359.9 82.0102 1359.98 82.0136 1360.05 82.0349C1360.13 82.0133 1360.21 82.0285 1360.29 82.0071C1360.36 82.0082 1360.43 81.983 1360.49 81.9359C1360.57 81.9448 1360.65 81.9356 1360.72 81.9091C1360.8 81.8875 1360.88 81.9028 1360.97 81.8455C1361.02 81.8105 1361.09 81.7982 1361.16 81.811C1361.22 81.8383 1361.28 81.8757 1361.33 81.9215C1361.36 81.9656 1361.42 82.0167 1361.45 82.061C1361.47 82.1359 1361.46 82.2132 1361.44 82.2866L1360.64 86.141C1360.62 86.2083 1360.58 86.2678 1360.53 86.3082C1360.47 86.373 1360.46 86.4463 1360.39 86.4312C1360.32 86.453 1360.26 86.4646 1360.19 86.4655C1360.11 86.4416 1360.04 86.4013 1359.99 86.3475C1359.94 86.2913 1359.89 86.2416 1359.83 86.1997C1359.76 86.1488 1359.73 86.1045 1359.67 86.0528C1359.6 86.001 1359.53 85.9865 1359.47 85.9348C1359.39 85.9111 1359.32 85.8708 1359.26 85.8168C1359.19 85.8071 1359.12 85.7789 1359.05 85.7346C1358.97 85.7202 1358.88 85.6896 1358.81 85.6446C1358.73 85.6293 1358.67 85.5784 1358.6 85.5633L1358.16 85.4722C1358.08 85.4625 1358.01 85.4342 1357.95 85.39C1357.88 85.3747 1357.8 85.3962 1357.72 85.3811C1357.65 85.366 1357.55 85.3064 1357.48 85.2911L1356.54 85.0946C1356.46 85.0733 1356.38 85.0703 1356.31 85.0858C1356.23 85.1064 1356.18 85.172 1356.1 85.1927C1356.04 85.2391 1355.99 85.2928 1355.95 85.3523C1355.91 85.3996 1355.88 85.4612 1355.88 85.5262C1355.85 85.6352 1355.82 85.6278 1355.79 85.7368C1355.77 85.8459 1355.81 85.8534 1355.79 85.9625L1355.65 86.617C1355.62 86.7627 1355.58 86.7552 1355.56 86.8651C1355.54 86.9751 1355.57 86.9817 1355.55 87.0908L1355.5 87.3089C1355.48 87.418 1355.45 87.4105 1355.42 87.5196C1355.4 87.6287 1355.44 87.6361 1355.41 87.7452L1355.28 88.3997C1355.25 88.5088 1355.22 88.5013 1355.19 88.6104C1355.17 88.7195 1355.21 88.727 1355.18 88.836L1354.96 89.9277C1354.93 90.0367 1354.9 90.0293 1354.88 90.1384C1354.85 90.2474 1354.89 90.2549 1354.86 90.4015L1354.81 90.6205C1354.79 90.7296 1354.75 90.7221 1354.73 90.8312C1354.72 90.8987 1354.73 90.9686 1354.77 91.0278C1354.78 91.0988 1354.8 91.1675 1354.84 91.2321C1354.9 91.2838 1354.92 91.3639 1354.99 91.4157C1355.06 91.431 1355.12 91.4828 1355.2 91.4979L1355.63 91.589C1355.74 91.6117 1355.75 91.5751 1355.86 91.598C1355.93 91.6132 1355.92 91.6498 1356.03 91.6726L1356.25 91.7181C1356.36 91.7409 1356.37 91.7042 1356.48 91.727L1356.7 91.7726C1356.8 91.7953 1356.8 91.832 1356.91 91.8548L1357.34 91.9459C1357.45 91.9686 1357.46 91.932 1357.57 91.9548L1358.22 92.0914C1358.29 92.1067 1358.36 92.1585 1358.43 92.1736C1358.51 92.1581 1358.58 92.1612 1358.66 92.1825C1358.73 92.1978 1358.81 92.1763 1358.88 92.1914L1359.1 92.2371C1359.18 92.2222 1359.25 92.2256 1359.33 92.2469C1359.39 92.2434 1359.45 92.2438 1359.52 92.2481C1359.6 92.2266 1359.67 92.2419 1359.75 92.2212C1359.82 92.2426 1359.9 92.2457 1359.97 92.2301C1360.05 92.2086 1360.13 92.2239 1360.21 92.2033C1360.28 92.2184 1360.33 92.1527 1360.41 92.1321C1360.49 92.1474 1360.53 92.1182 1360.61 92.0969C1360.67 92.075 1360.74 92.0634 1360.81 92.0623C1360.88 92.0861 1360.95 92.1264 1361.01 92.1803C1361.05 92.1879 1361.07 92.2687 1361.05 92.3411C1361.07 92.3899 1361.07 92.4443 1361.06 92.4945C1361.01 92.5593 1360.99 92.6317 1360.94 92.6975C1360.92 92.77 1360.87 92.8348 1360.86 92.9081C1360.81 92.9728 1360.79 93.0453 1360.74 93.1111C1360.73 93.1869 1360.7 93.2592 1360.66 93.3216C1360.64 93.394 1360.59 93.4596 1360.57 93.5321C1360.53 93.5948 1360.5 93.667 1360.49 93.7428C1360.45 93.8052 1360.42 93.8774 1360.41 93.9533C1360.37 94.0157 1360.34 94.0879 1360.33 94.1638C1360.28 94.2287 1360.26 94.302 1360.21 94.3668C1360.2 94.4393 1360.14 94.5049 1360.13 94.5773C1360.11 94.6498 1360.07 94.6789 1360.06 94.7514C1360 94.8092 1359.96 94.8786 1359.94 94.9542C1359.89 95.017 1359.86 95.0892 1359.85 95.1649C1359.8 95.2305 1359.79 95.303 1359.74 95.3686C1359.72 95.441 1359.67 95.506 1359.65 95.5793C1359.64 95.6526 1359.59 95.7165 1359.57 95.7898C1359.52 95.8546 1359.51 95.927 1359.45 95.9929C1359.39 96.0387 1359.32 96.0747 1359.24 96.0996C1359.17 96.1324 1359.09 96.1421 1359.01 96.1274C1358.94 96.1123 1358.87 96.0605 1358.8 96.0452C1358.75 96.004 1358.69 95.9781 1358.62 95.9706C1358.56 95.9271 1358.49 95.8992 1358.41 95.8893C1358.34 95.8742 1358.28 95.8223 1358.2 95.8071L1357.99 95.7616C1357.91 95.7463 1357.85 95.6945 1357.78 95.6794L1356.68 95.451C1356.61 95.4296 1356.53 95.4266 1356.46 95.4421C1356.38 95.4269 1356.36 95.3826 1356.28 95.3675L1356.06 95.322C1355.99 95.3068 1355.91 95.3282 1355.84 95.3131C1355.77 95.298 1355.7 95.246 1355.63 95.2309L1349.52 93.9554C1349.46 93.9461 1349.4 93.9223 1349.35 93.8858Z" fill="#13120F"/>
<path d="M1365.05 77.5446C1365.07 77.4712 1365.07 77.3937 1365.06 77.3188C1365.08 77.2454 1365.08 77.1679 1365.07 77.093C1365.07 77.0301 1365.07 76.967 1365.07 76.904C1365.09 76.8306 1365.1 76.7531 1365.08 76.6782C1365.09 76.6049 1365.07 76.5249 1365.09 76.4524C1365.1 76.38 1365.08 76.2992 1365.1 76.2268C1365.08 76.1458 1365.09 76.0734 1365.07 75.9934C1365.07 75.9261 1365.06 75.8594 1365.04 75.7959C1365.01 75.7158 1365.03 75.6433 1365.01 75.5626C1365.01 75.4955 1365 75.4291 1364.97 75.3658C1364.95 75.2892 1364.92 75.2173 1364.87 75.154C1364.84 75.1097 1364.82 75.0296 1364.79 74.9855C1364.77 74.9054 1364.71 74.817 1364.72 74.7804C1364.7 74.7003 1364.75 74.6355 1364.8 74.5697C1364.81 74.5396 1364.83 74.5127 1364.85 74.4915C1364.88 74.4702 1364.91 74.4551 1364.94 74.4476C1364.99 74.4274 1365.04 74.4252 1365.09 74.4414L1366.84 74.8058C1366.91 74.8211 1366.97 74.8728 1367.05 74.8879C1367.12 74.903 1367.2 74.8817 1367.27 74.8968L1369.45 75.3525C1369.53 75.3623 1369.6 75.3904 1369.66 75.4346L1369.78 75.61C1369.8 75.6907 1369.78 75.7631 1369.81 75.8074L1369.77 76.0256C1369.72 76.0904 1369.67 76.1196 1369.62 76.1843C1369.6 76.2576 1369.55 76.3224 1369.54 76.3948C1369.49 76.4576 1369.47 76.5298 1369.46 76.6055C1369.41 76.6679 1369.38 76.7402 1369.37 76.816C1369.36 76.8893 1369.31 76.9541 1369.29 77.0265C1369.28 77.099 1369.3 77.1799 1369.28 77.2523L1369.24 77.4705C1369.22 77.5438 1369.24 77.6239 1369.22 77.7338L1369.18 77.952C1369.16 78.0252 1369.22 78.1128 1369.2 78.1852C1369.18 78.2586 1369.18 78.3362 1369.19 78.4111C1369.17 78.4844 1369.17 78.5617 1369.18 78.6367L1369.14 78.8548C1369.15 78.9715 1369.11 78.9639 1369.13 79.0806C1369.11 79.1897 1369.14 79.1974 1369.12 79.3064C1369.13 79.4238 1369.1 79.4163 1369.11 79.5329C1369.09 79.6063 1369.09 79.6838 1369.1 79.7587C1369.08 79.8321 1369.08 79.9097 1369.09 79.9845C1369.07 80.046 1369.07 80.1116 1369.09 80.1735C1369.07 80.2591 1369.06 80.3488 1369.07 80.4368C1369.06 80.5092 1369.01 80.5382 1369.03 80.655C1369.01 80.7284 1369 80.8059 1369.02 80.8808C1369 80.9899 1369.04 80.9607 1369.02 81.0697C1369.03 81.1865 1368.99 81.1788 1369.01 81.2956C1368.99 81.369 1368.98 81.4465 1369 81.5214L1368.95 81.7395C1368.97 81.8144 1368.96 81.8918 1368.94 81.9652C1368.96 82.04 1368.96 82.1176 1368.93 82.191C1368.95 82.3077 1368.91 82.3001 1368.92 82.4168C1368.9 82.4901 1368.9 82.5675 1368.92 82.6424C1368.89 82.7524 1368.93 82.76 1368.91 82.8691C1368.92 82.9858 1368.88 82.9781 1368.9 83.0949C1368.88 83.1682 1368.87 83.2456 1368.89 83.3205L1368.84 83.5387C1368.86 83.6135 1368.85 83.691 1368.83 83.7644C1368.85 83.8812 1368.81 83.8735 1368.82 83.9903C1368.8 84.0993 1368.84 84.1068 1368.81 84.2159C1368.83 84.3326 1368.79 84.325 1368.77 84.4341L1368.8 84.6675L1368.75 84.8857C1368.77 84.9606 1368.76 85.038 1368.74 85.1113C1368.76 85.1862 1368.75 85.2637 1368.73 85.3371C1368.75 85.4538 1368.71 85.4462 1368.72 85.5629C1368.7 85.6362 1368.7 85.7136 1368.71 85.7885C1368.69 85.8976 1368.73 85.9053 1368.7 86.0143C1368.68 86.0877 1368.68 86.1653 1368.69 86.2401C1368.67 86.3136 1368.67 86.3911 1368.69 86.466C1368.66 86.5393 1368.66 86.6167 1368.68 86.6916L1368.63 86.9098C1368.65 86.9846 1368.64 87.0622 1368.62 87.1356C1368.6 87.2446 1368.63 87.2521 1368.61 87.3612C1368.63 87.4779 1368.59 87.4702 1368.6 87.587C1368.58 87.6604 1368.58 87.7379 1368.59 87.8128L1368.55 88.0309C1368.56 88.1061 1368.56 88.1839 1368.54 88.2576C1368.52 88.3667 1368.55 88.3741 1368.53 88.4832L1368.44 88.9195C1368.42 89.0286 1368.45 89.0363 1368.43 89.1453L1368.35 89.545C1368.36 89.6617 1368.32 89.6541 1368.34 89.7708C1368.32 89.8442 1368.31 89.9216 1368.33 89.9965L1368.28 90.2146C1368.29 90.3313 1368.26 90.3237 1368.24 90.4328C1368.21 90.5419 1368.25 90.5495 1368.23 90.6586L1368.18 90.8767C1368.16 90.9501 1368.16 91.0277 1368.17 91.1025L1368.13 91.3207C1368.1 91.4298 1368.14 91.4372 1368.12 91.5463C1368.11 91.5905 1368.13 91.6342 1368.16 91.6683C1368.18 91.7025 1368.22 91.7246 1368.27 91.7301C1368.34 91.7452 1368.46 91.7322 1368.48 91.6223L1368.53 91.4041C1368.57 91.3417 1368.6 91.2695 1368.61 91.1936C1368.65 91.1309 1368.68 91.0586 1368.69 90.9829C1368.73 90.9205 1368.76 90.8483 1368.77 90.7725C1368.82 90.7101 1368.84 90.6378 1368.85 90.562C1368.91 90.4603 1368.88 90.4529 1368.94 90.3513C1368.94 90.2754 1368.97 90.2031 1369.02 90.1407C1369.02 90.0768 1369.05 90.0164 1369.09 89.9669C1369.1 89.8912 1369.13 89.8189 1369.17 89.7562L1369.22 89.538L1369.34 89.3352C1369.35 89.2595 1369.38 89.1872 1369.42 89.1245L1369.46 88.9063L1369.58 88.7035C1369.61 88.5944 1369.57 88.5868 1369.63 88.4854C1369.64 88.4094 1369.67 88.3368 1369.71 88.2738C1369.73 88.1647 1369.77 88.1724 1369.79 88.0633C1369.85 87.9619 1369.82 87.9542 1369.87 87.8528L1369.92 87.6346L1370.04 87.4316L1370.08 87.2134C1370.14 87.112 1370.14 87.1487 1370.19 87.0471L1370.24 86.8289C1370.28 86.7665 1370.31 86.6942 1370.32 86.6184C1370.37 86.556 1370.39 86.4837 1370.4 86.4079C1370.46 86.3063 1370.43 86.2988 1370.49 86.1972C1370.5 86.1214 1370.52 86.0491 1370.57 85.9867C1370.59 85.8776 1370.63 85.8853 1370.65 85.7762C1370.66 85.7005 1370.69 85.6282 1370.73 85.5655C1370.74 85.4897 1370.77 85.4174 1370.81 85.355L1370.86 85.136C1370.92 85.0345 1370.88 85.0269 1370.94 84.9255C1370.95 84.8497 1370.98 84.7775 1371.02 84.7148C1371.05 84.6057 1371.08 84.6133 1371.11 84.5043C1371.14 84.4531 1371.17 84.3935 1371.18 84.3304C1371.24 84.229 1371.21 84.1847 1371.27 84.0824C1371.28 84.01 1371.32 84.0175 1371.34 83.9084C1371.39 83.846 1371.42 83.7737 1371.43 83.6979C1371.44 83.622 1371.46 83.5498 1371.51 83.4874C1371.52 83.4116 1371.55 83.3394 1371.59 83.2767C1371.6 83.2008 1371.63 83.1285 1371.67 83.0662L1371.72 82.848C1371.76 82.7856 1371.79 82.7134 1371.8 82.6375C1371.84 82.5748 1371.87 82.5026 1371.88 82.4268C1371.9 82.3178 1371.94 82.3254 1371.96 82.2163C1372.02 82.1149 1371.99 82.1072 1372.01 81.9982C1372.05 81.9355 1372.08 81.8629 1372.09 81.7868L1372.21 81.5838L1372.25 81.3656C1372.31 81.2642 1372.31 81.3008 1372.36 81.1992L1372.41 80.9811C1372.47 80.8797 1372.43 80.872 1372.49 80.7706C1372.51 80.6615 1372.55 80.6691 1372.57 80.5601C1372.62 80.4973 1372.65 80.4251 1372.66 80.3494C1372.7 80.287 1372.73 80.2147 1372.74 80.1389C1372.76 80.0298 1372.8 80.0374 1372.82 79.9284C1372.88 79.8267 1372.84 79.8193 1372.9 79.7177L1372.95 79.4995L1373.07 79.2967L1373.11 79.0785L1373.23 78.8755C1373.24 78.7996 1373.27 78.7274 1373.31 78.665C1373.33 78.5559 1373.3 78.5482 1373.36 78.4468C1373.38 78.3369 1373.42 78.3444 1373.44 78.2353C1373.48 78.188 1373.51 78.1264 1373.51 78.0614C1373.56 77.999 1373.59 77.9268 1373.6 77.8509C1373.65 77.7493 1373.62 77.7418 1373.64 77.6328C1373.68 77.57 1373.71 77.4978 1373.72 77.4221L1373.84 77.2192L1373.89 77.0011C1373.93 76.9383 1373.96 76.8661 1373.97 76.7904C1373.98 76.723 1374.02 76.6636 1374.08 76.6233C1374.12 76.5646 1374.18 76.5237 1374.25 76.5087C1374.3 76.4797 1374.35 76.4149 1374.42 76.4301C1374.48 76.4121 1374.55 76.4126 1374.61 76.4315L1377.01 76.9325C1377.07 76.9399 1377.13 76.9658 1377.18 77.007C1377.23 77.0453 1377.28 77.0927 1377.31 77.1465C1377.37 77.1885 1377.41 77.251 1377.42 77.3218C1377.46 77.3814 1377.47 77.4514 1377.46 77.5193L1377.41 77.7374C1377.43 77.8123 1377.42 77.8898 1377.4 77.9632C1377.38 78.0723 1377.42 78.08 1377.39 78.1891C1377.41 78.264 1377.4 78.3413 1377.38 78.4147C1377.36 78.4881 1377.36 78.5656 1377.37 78.6405C1377.35 78.7138 1377.35 78.7912 1377.36 78.8661C1377.35 78.9386 1377.39 78.9462 1377.36 79.0553C1377.38 79.172 1377.34 79.1643 1377.35 79.2819C1377.33 79.3553 1377.33 79.4329 1377.35 79.5077L1377.3 79.7276L1377.33 79.9609C1377.3 80.07 1377.27 80.0623 1377.28 80.179C1377.26 80.2524 1377.26 80.3298 1377.27 80.4047C1377.25 80.5138 1377.28 80.5214 1377.26 80.6305C1377.24 80.7396 1377.28 80.7472 1377.29 80.8639L1377.24 81.0821C1377.26 81.1986 1377.22 81.1912 1377.23 81.3077C1377.21 81.3811 1377.21 81.4587 1377.22 81.5335C1377.2 81.6069 1377.2 81.6845 1377.22 81.7593L1377.17 81.9775C1377.19 82.0388 1377.19 82.1056 1377.17 82.1665L1377.2 82.3999L1377.15 82.6181C1377.17 82.693 1377.16 82.7704 1377.14 82.8437C1377.15 82.9613 1377.12 82.9536 1377.13 83.0704C1377.11 83.1438 1377.11 83.2213 1377.12 83.2962C1377.1 83.3695 1377.1 83.4469 1377.11 83.5218C1377.09 83.5952 1377.09 83.6728 1377.1 83.7476L1377.06 83.9658C1377.07 84.0407 1377.07 84.1182 1377.05 84.1916C1377.06 84.2665 1377.06 84.3438 1377.04 84.4172C1377.05 84.4921 1377.05 84.5696 1377.03 84.643C1377.01 84.7521 1377.04 84.7597 1377.06 84.8396L1377.02 85.0578C1377.03 85.1327 1377.03 85.2102 1377.01 85.2836C1377.02 85.4003 1376.99 85.3927 1377 85.5094C1376.98 85.5828 1376.98 85.6601 1376.99 85.735C1376.97 85.8441 1377.01 85.8518 1376.98 85.9609C1377 86.0776 1376.96 86.0699 1376.97 86.1867C1376.95 86.26 1376.95 86.3374 1376.96 86.4123L1376.92 86.6313C1376.93 86.7062 1376.93 86.7837 1376.91 86.8571C1376.92 86.932 1376.92 87.0095 1376.9 87.0829C1376.91 87.1995 1376.88 87.192 1376.89 87.3086C1376.87 87.382 1376.87 87.4595 1376.88 87.5343C1376.86 87.6077 1376.86 87.6853 1376.87 87.7601C1376.85 87.8335 1376.85 87.9109 1376.86 87.9858C1376.84 88.0592 1376.84 88.1367 1376.85 88.2116L1376.82 88.3931C1376.83 88.4679 1376.83 88.5455 1376.81 88.6189C1376.82 88.6938 1376.82 88.7712 1376.8 88.8445L1376.82 89.078L1376.78 89.2962C1376.76 89.3695 1376.75 89.4469 1376.77 89.5218C1376.75 89.6309 1376.78 89.6385 1376.76 89.7476C1376.77 89.8652 1376.74 89.8575 1376.75 89.9742C1376.73 90.0477 1376.73 90.1252 1376.74 90.2001L1376.7 90.4182L1376.72 90.6515L1376.68 90.8697L1376.7 91.1029L1376.66 91.3211C1376.68 91.3829 1376.68 91.4487 1376.66 91.5103C1376.67 91.627 1376.63 91.6193 1376.65 91.736C1376.63 91.8451 1376.66 91.8526 1376.64 91.9617C1376.65 92.0784 1376.62 92.0707 1376.63 92.1875C1376.61 92.2608 1376.61 92.3382 1376.62 92.4131C1376.6 92.4865 1376.6 92.5641 1376.61 92.6389C1376.59 92.7123 1376.59 92.7899 1376.6 92.8647C1376.58 92.9381 1376.58 93.0157 1376.59 93.0905C1376.57 93.1639 1376.57 93.2413 1376.58 93.3162C1376.57 93.3895 1376.62 93.5138 1376.69 93.5289C1376.74 93.5358 1376.79 93.5249 1376.83 93.4982C1376.87 93.4716 1376.9 93.4312 1376.91 93.3845C1376.93 93.2754 1376.97 93.2831 1376.99 93.174L1377.04 92.9558C1377.1 92.8544 1377.06 92.8467 1377.12 92.7453L1377.17 92.5272C1377.22 92.4255 1377.19 92.4181 1377.25 92.3165L1377.29 92.0983C1377.35 91.9969 1377.32 91.9892 1377.34 91.8801C1377.36 91.7711 1377.4 91.7787 1377.42 91.6697L1377.47 91.4515C1377.47 91.3875 1377.5 91.3271 1377.54 91.2776L1377.59 91.0595C1377.64 90.9579 1377.61 90.9504 1377.63 90.8413C1377.65 90.7323 1377.69 90.7397 1377.71 90.6306L1377.76 90.4074C1377.78 90.2983 1377.82 90.3059 1377.84 90.1969C1377.89 90.1342 1377.91 90.0616 1377.92 89.9855L1377.97 89.7674C1377.98 89.6916 1378.01 89.6194 1378.05 89.5567C1378.06 89.4808 1378.09 89.4085 1378.13 89.3461C1378.14 89.2703 1378.17 89.198 1378.22 89.1356C1378.24 89.0266 1378.27 89.034 1378.3 88.9249C1378.31 88.8491 1378.33 88.7768 1378.38 88.7144C1378.39 88.6386 1378.42 88.5664 1378.46 88.504L1378.51 88.2858C1378.52 88.2101 1378.54 88.1378 1378.59 88.0751C1378.6 87.9993 1378.63 87.927 1378.67 87.8646C1378.69 87.7555 1378.73 87.7632 1378.75 87.6541C1378.78 87.545 1378.81 87.5525 1378.83 87.4434C1378.89 87.342 1378.86 87.3343 1378.92 87.2329L1378.96 87.0147L1379.08 86.8117L1379.13 86.5936C1379.17 86.5312 1379.2 86.4589 1379.21 86.3831C1379.25 86.3207 1379.28 86.2484 1379.29 86.1726C1379.31 86.0635 1379.35 86.0709 1379.37 85.9619C1379.38 85.886 1379.41 85.8137 1379.45 85.7514L1379.5 85.5332C1379.54 85.4708 1379.57 85.3985 1379.58 85.3227C1379.6 85.2136 1379.64 85.2211 1379.7 85.1197C1379.72 85.0106 1379.69 85.0029 1379.74 84.9006C1379.75 84.8248 1379.78 84.7525 1379.83 84.6901C1379.85 84.5811 1379.89 84.5887 1379.91 84.4796C1379.92 84.4039 1379.95 84.3317 1379.99 84.269C1379.99 84.204 1380.02 84.1424 1380.07 84.0951C1380.09 83.986 1380.06 83.9417 1380.12 83.8394C1380.13 83.7636 1380.16 83.6913 1380.2 83.6289C1380.22 83.5198 1380.25 83.564 1380.27 83.4549C1380.3 83.3458 1380.33 83.3535 1380.36 83.2444C1380.37 83.1685 1380.39 83.0963 1380.44 83.0339C1380.45 82.9581 1380.48 82.8859 1380.52 82.8232C1380.53 82.7474 1380.56 82.6751 1380.6 82.6127L1380.65 82.3945L1380.77 82.1915C1380.79 82.0824 1380.75 82.075 1380.81 81.9733C1380.83 81.8643 1380.87 81.8719 1380.89 81.762C1380.92 81.6521 1380.95 81.6606 1380.98 81.5515L1381.02 81.3333L1381.14 81.1303L1381.19 80.9121C1381.23 80.8498 1381.26 80.7775 1381.27 80.7016C1381.28 80.6292 1381.33 80.5642 1381.35 80.4909C1381.37 80.3819 1381.42 80.3537 1381.43 80.2804C1381.48 80.204 1381.51 80.1199 1381.52 80.0324L1381.7 79.1598C1381.68 79.0797 1381.7 79.0073 1381.68 78.9264C1381.7 78.853 1381.7 78.7756 1381.69 78.7007C1381.66 78.6206 1381.68 78.5482 1381.66 78.4673C1381.64 78.4059 1381.64 78.3391 1381.66 78.2783C1381.69 78.2169 1381.72 78.1604 1381.77 78.111C1381.84 78.0788 1381.9 78.0549 1381.97 78.0399C1382.03 78.0051 1382.1 77.9929 1382.17 78.0055L1386.1 78.8253C1386.17 78.8406 1386.23 78.8924 1386.31 78.9077C1386.38 78.923 1386.42 78.8936 1386.5 78.9089C1386.56 78.9244 1386.62 78.9636 1386.66 79.0193L1386.75 79.1511C1386.76 79.226 1386.76 79.3035 1386.74 79.3769C1386.7 79.4059 1386.64 79.4717 1386.6 79.4999C1386.55 79.5655 1386.47 79.5862 1386.42 79.6518C1386.36 79.7174 1386.32 79.7458 1386.27 79.8105C1386.22 79.8753 1386.2 79.9486 1386.15 80.0136C1386.1 80.0598 1386.05 80.1132 1386 80.1723C1385.99 80.2482 1385.97 80.3205 1385.92 80.3828C1385.87 80.4232 1385.83 80.4827 1385.81 80.5501C1385.76 80.6149 1385.74 80.6873 1385.69 80.7529L1385.65 80.9711C1385.6 81.0361 1385.59 81.0727 1385.54 81.1375L1385.49 81.3556C1385.45 81.4181 1385.42 81.4903 1385.41 81.5662C1385.36 81.632 1385.34 81.7044 1385.29 81.7692L1385.25 81.9873L1385.13 82.1904L1385.08 82.4085C1385.06 82.5176 1385.02 82.5099 1384.97 82.5756C1384.96 82.6513 1384.93 82.7236 1384.89 82.7863C1384.87 82.8954 1384.9 82.9028 1384.84 83.0044C1384.82 83.1135 1384.78 83.1059 1384.76 83.215C1384.75 83.2908 1384.72 83.3631 1384.68 83.4255C1384.67 83.5012 1384.64 83.5734 1384.6 83.6361C1384.59 83.7119 1384.56 83.7842 1384.52 83.8466L1384.47 84.0716C1384.42 84.134 1384.4 84.2063 1384.39 84.2821L1384.27 84.4852C1384.26 84.561 1384.23 84.6333 1384.19 84.6957C1384.18 84.7714 1384.15 84.8436 1384.11 84.9064L1384.06 85.1245C1384.05 85.2003 1384.02 85.2726 1383.98 85.335C1383.97 85.4108 1383.94 85.4831 1383.9 85.5455C1383.89 85.6212 1383.86 85.6935 1383.81 85.7562C1383.76 85.8968 1383.7 86.0375 1383.65 86.178C1383.64 86.2538 1383.61 86.326 1383.57 86.3887C1383.55 86.4978 1383.51 86.4902 1383.49 86.5992C1383.45 86.6504 1383.42 86.71 1383.41 86.7731C1383.35 86.8747 1383.38 86.9188 1383.36 87.0287C1383.31 87.0915 1383.29 87.1637 1383.28 87.2394C1383.23 87.2907 1383.2 87.3464 1383.17 87.4056C1383.16 87.4814 1383.13 87.5536 1383.08 87.6163C1383.07 87.6922 1383.05 87.7644 1383 87.8268C1382.99 87.9027 1382.96 87.975 1382.92 88.0373L1382.87 88.2555C1382.85 88.3646 1382.82 88.3571 1382.79 88.4662C1382.75 88.5286 1382.72 88.6009 1382.71 88.6767C1382.65 88.7781 1382.69 88.7858 1382.66 88.8949C1382.61 88.9963 1382.57 88.9888 1382.55 89.0979C1382.54 89.174 1382.51 89.2466 1382.46 89.3093C1382.44 89.4183 1382.41 89.4107 1382.38 89.5198L1382.34 89.7379C1382.29 89.8006 1382.27 89.8729 1382.26 89.9486L1382.14 90.1514L1382.09 90.3696L1381.97 90.5726L1381.93 90.7908C1381.88 90.8532 1381.86 90.9255 1381.85 91.0013C1381.79 91.1027 1381.82 91.1104 1381.76 91.2118C1381.75 91.2875 1381.73 91.3598 1381.68 91.4225L1381.64 91.6406C1381.58 91.7054 1381.55 91.6978 1381.53 91.8069C1381.47 91.9085 1381.5 91.916 1381.48 92.025C1381.43 92.1659 1381.37 92.3066 1381.32 92.4471L1381.2 92.6501C1381.19 92.7259 1381.16 92.7982 1381.12 92.8606L1381.07 93.0787L1380.95 93.2818C1380.93 93.3908 1380.97 93.3983 1380.91 93.4999C1380.9 93.5758 1380.87 93.648 1380.82 93.7104C1380.81 93.7863 1380.79 93.8586 1380.74 93.921C1380.72 94.03 1380.68 94.0226 1380.66 94.1316C1380.6 94.2331 1380.64 94.2407 1380.58 94.3422C1380.57 94.418 1380.54 94.4903 1380.5 94.5527C1380.49 94.6284 1380.46 94.7006 1380.42 94.7634C1380.41 94.8392 1380.38 94.9114 1380.33 94.9738C1380.32 95.0497 1380.29 95.1219 1380.25 95.1843C1380.24 95.2601 1380.21 95.3323 1380.17 95.395C1380.16 95.4709 1380.13 95.5431 1380.09 95.6055L1380.04 95.8237C1380 95.8714 1379.97 95.9332 1379.97 95.9984L1379.85 96.2015L1379.8 96.4196C1379.76 96.482 1379.73 96.5543 1379.72 96.6301C1379.66 96.7317 1379.7 96.7392 1379.64 96.8408C1379.63 96.9166 1379.6 96.9889 1379.56 97.0513C1379.55 97.1271 1379.52 97.1994 1379.48 97.2618L1379.43 97.48L1379.31 97.683C1379.29 97.7921 1379.25 97.7844 1379.23 97.8935C1379.22 97.9692 1379.19 98.0414 1379.15 98.1042C1379.14 98.18 1379.11 98.2523 1379.07 98.3147L1379.02 98.5328C1379 98.6419 1378.96 98.6343 1378.94 98.7433C1378.89 98.8057 1378.87 98.878 1378.86 98.9539C1378.81 99.0166 1378.78 99.0888 1378.77 99.1645C1378.72 99.266 1378.75 99.2736 1378.69 99.3751C1378.67 99.4841 1378.63 99.4767 1378.61 99.5857L1378.46 99.7809C1378.4 99.8396 1378.32 99.8776 1378.24 99.8888C1378.16 99.9184 1378.06 99.9249 1377.97 99.9078L1376.16 99.5283C1376.05 99.5055 1376.04 99.5422 1375.93 99.5194C1375.82 99.4967 1375.83 99.46 1375.72 99.4372L1373.61 98.9969C1373.54 98.9734 1373.47 98.9331 1373.41 98.8788C1373.35 98.827 1373.24 98.7684 1373.22 98.6875L1373.16 98.4468C1373.18 98.3733 1373.18 98.2958 1373.17 98.2209L1373.22 97.996C1373.2 97.9211 1373.2 97.8436 1373.22 97.7701C1373.21 97.6953 1373.21 97.6177 1373.23 97.5443C1373.22 97.4694 1373.22 97.392 1373.24 97.3187C1373.23 97.2438 1373.23 97.1663 1373.25 97.0929C1373.24 97.018 1373.24 96.9405 1373.26 96.8671C1373.24 96.8058 1373.24 96.739 1373.26 96.6781C1373.25 96.6032 1373.25 96.5257 1373.27 96.4523L1373.25 96.219C1373.27 96.1453 1373.27 96.0675 1373.25 95.9924C1373.28 95.9189 1373.28 95.8414 1373.26 95.7666L1373.31 95.5484C1373.29 95.4735 1373.3 95.3961 1373.32 95.3228L1373.29 95.0893C1373.31 95.0285 1373.31 94.9617 1373.29 94.9003L1373.34 94.6822L1373.31 94.4487C1373.33 94.3754 1373.34 94.298 1373.32 94.2231C1373.34 94.1497 1373.35 94.0722 1373.33 93.9973C1373.35 93.9239 1373.35 93.8463 1373.34 93.7715C1373.36 93.6624 1373.33 93.6549 1373.35 93.5458C1373.34 93.4291 1373.37 93.4368 1373.36 93.32C1373.38 93.2466 1373.38 93.1691 1373.37 93.0942L1373.41 92.8786C1373.39 92.7979 1373.36 92.7902 1373.38 92.6811C1373.36 92.5644 1373.4 92.5721 1373.39 92.4553C1373.41 92.382 1373.41 92.3046 1373.4 92.2297C1373.42 92.1207 1373.38 92.113 1373.41 92.0039C1373.39 91.9291 1373.39 91.8515 1373.41 91.7781C1373.4 91.6616 1373.44 91.669 1373.42 91.5525L1373.47 91.3343L1373.44 91.1009C1373.47 90.9918 1373.42 91.021 1373.44 90.9119C1373.43 90.7952 1373.47 90.8028 1373.45 90.6861C1373.48 90.6124 1373.48 90.5346 1373.46 90.4594L1373.51 90.2413L1373.48 90.008C1373.5 89.9346 1373.51 89.857 1373.49 89.7822C1373.51 89.7088 1373.52 89.6314 1373.5 89.5565C1373.52 89.4475 1373.49 89.4398 1373.51 89.3307C1373.49 89.2559 1373.5 89.1783 1373.52 89.1049C1373.5 89.0248 1373.54 88.9958 1373.53 88.8791C1373.54 88.8171 1373.54 88.7524 1373.53 88.6901C1373.55 88.5811 1373.52 88.5734 1373.54 88.4643C1373.52 88.3476 1373.56 88.3552 1373.55 88.2385C1373.57 88.1294 1373.53 88.122 1373.56 88.0129C1373.54 87.938 1373.54 87.8605 1373.57 87.7871C1373.55 87.7122 1373.55 87.6347 1373.57 87.5613C1373.56 87.4447 1373.69 87.3584 1373.58 87.3357C1373.48 87.3129 1373.53 87.4371 1373.5 87.5462C1373.44 87.6476 1373.48 87.6552 1373.42 87.7567C1373.4 87.8658 1373.36 87.8583 1373.34 87.9674L1373.22 88.1702C1373.2 88.2793 1373.23 88.2869 1373.17 88.3883C1373.16 88.4641 1373.14 88.5363 1373.09 88.599C1373.07 88.7081 1373.04 88.6638 1373.02 88.7729C1372.97 88.8353 1372.95 88.9076 1372.94 88.9834C1372.89 89.0461 1372.87 89.1184 1372.86 89.1941C1372.81 89.2565 1372.78 89.3288 1372.77 89.4046L1372.66 89.6076L1372.61 89.8258C1372.57 89.8882 1372.54 89.9605 1372.53 90.0363L1372.41 90.2394L1372.36 90.4583C1372.32 90.5096 1372.28 90.5653 1372.25 90.6245L1372.21 90.8478C1372.16 90.9105 1372.13 90.9828 1372.12 91.0585C1372.07 91.1599 1372.1 91.1676 1372.04 91.269C1372.02 91.3781 1371.98 91.3705 1371.92 91.4721L1371.88 91.6902L1371.76 91.893C1371.75 91.9688 1371.72 92.041 1371.68 92.1037C1371.67 92.1687 1371.65 92.2303 1371.6 92.2776C1371.58 92.3876 1371.61 92.431 1371.56 92.4966C1371.54 92.6057 1371.5 92.5981 1371.48 92.7071C1371.43 92.7699 1371.4 92.8421 1371.39 92.9178C1371.34 93.0193 1371.37 93.0269 1371.31 93.1283C1371.3 93.2042 1371.27 93.2764 1371.23 93.3388C1371.21 93.4479 1371.17 93.4404 1371.11 93.5418L1371.07 93.76C1371.02 93.8224 1370.99 93.8947 1370.98 93.9705C1370.94 94.0332 1370.91 94.1055 1370.9 94.1812C1370.86 94.2325 1370.82 94.2882 1370.79 94.3474C1370.78 94.4232 1370.75 94.4955 1370.71 94.5579C1370.69 94.667 1370.72 94.6747 1370.66 94.7761L1370.55 94.9791C1370.54 95.0548 1370.51 95.1271 1370.46 95.1898L1370.42 95.408L1370.3 95.6117L1370.25 95.8298L1370.14 96.0329L1370.09 96.251C1370.05 96.3022 1370.01 96.358 1369.98 96.4174L1369.94 96.6356C1369.89 96.698 1369.86 96.7702 1369.85 96.8461C1369.81 96.9085 1369.78 96.9807 1369.77 97.0565C1369.71 97.158 1369.68 97.1505 1369.65 97.2596C1369.59 97.361 1369.63 97.3687 1369.61 97.4777C1369.56 97.5401 1369.54 97.6124 1369.53 97.6883L1369.37 97.8836C1369.29 97.9313 1369.21 97.9652 1369.12 97.9838C1369.05 98.0104 1368.97 98.0196 1368.89 98.0107L1364.53 97.0996C1364.44 97.079 1364.36 97.0356 1364.29 96.9738C1364.22 96.9308 1364.17 96.8663 1364.14 96.7902C1364.08 96.7026 1364.1 96.6302 1364.07 96.5493C1364.1 96.4758 1364.1 96.3983 1364.08 96.3235C1364.11 96.2144 1364.07 96.2069 1364.09 96.0978C1364.08 95.9811 1364.12 95.9887 1364.1 95.872C1364.12 95.7986 1364.13 95.7211 1364.11 95.6462C1364.13 95.5729 1364.14 95.4955 1364.12 95.4206C1364.14 95.3472 1364.14 95.2697 1364.13 95.1948C1364.15 95.1214 1364.15 95.0438 1364.14 94.969C1364.16 94.8956 1364.16 94.8183 1364.15 94.7433L1364.19 94.5252C1364.18 94.4503 1364.18 94.3728 1364.2 94.2994C1364.19 94.2245 1364.19 94.147 1364.21 94.0736C1364.2 93.957 1364.23 93.9645 1364.22 93.848C1364.24 93.7389 1364.21 93.7312 1364.23 93.6222C1364.21 93.5473 1364.22 93.4698 1364.24 93.3963C1364.22 93.3341 1364.22 93.2683 1364.24 93.2065C1364.23 93.0898 1364.27 93.0616 1364.3 92.9508C1364.28 92.8883 1364.28 92.8231 1364.3 92.7608L1364.27 92.5275L1364.32 92.3094C1364.3 92.2345 1364.3 92.157 1364.32 92.0836L1364.3 91.8501C1364.32 91.7768 1364.32 91.6994 1364.31 91.6245C1364.33 91.5511 1364.33 91.4736 1364.32 91.3987L1364.36 91.1805L1364.33 90.9473L1364.38 90.7248C1364.37 90.6081 1364.4 90.6158 1364.39 90.499C1364.41 90.39 1364.38 90.3823 1364.4 90.2732C1364.39 90.1567 1364.42 90.1641 1364.41 90.0476C1364.43 89.9742 1364.43 89.8966 1364.42 89.8218C1364.44 89.7484 1364.44 89.6709 1364.43 89.596C1364.45 89.5227 1364.45 89.4453 1364.44 89.3704L1364.48 89.1522C1364.49 89.0014 1364.49 88.8506 1364.5 88.6998C1364.49 88.6248 1364.49 88.5475 1364.51 88.4741C1364.49 88.394 1364.53 88.365 1364.52 88.2483C1364.54 88.1867 1364.54 88.121 1364.52 88.0592C1364.54 87.9858 1364.54 87.9084 1364.53 87.8335C1364.55 87.7601 1364.55 87.6826 1364.54 87.6077C1364.56 87.4986 1364.52 87.491 1364.55 87.3819C1364.57 87.2728 1364.53 87.2653 1364.56 87.1563C1364.58 87.0472 1364.54 87.0395 1364.57 86.9305C1364.55 86.8137 1364.59 86.8214 1364.61 86.7123C1364.6 86.6374 1364.6 86.5599 1364.62 86.4865C1364.61 86.4116 1364.61 86.3342 1364.63 86.2609C1364.62 86.1442 1364.65 86.1518 1364.64 86.0351C1364.66 85.926 1364.63 85.9183 1364.65 85.8093L1364.62 85.576C1364.64 85.5023 1364.65 85.4245 1364.63 85.3493C1364.65 85.2403 1364.69 85.2479 1364.68 85.1312C1364.7 85.0221 1364.66 85.0146 1364.69 84.9055C1364.67 84.8307 1364.67 84.7531 1364.7 84.6797C1364.68 84.563 1364.72 84.5706 1364.7 84.4539C1364.73 84.3806 1364.73 84.3032 1364.71 84.2283L1364.76 84.0101C1364.74 83.9353 1364.75 83.8577 1364.77 83.7843C1364.75 83.6676 1364.75 83.7042 1364.73 83.5877L1364.78 83.3695L1364.75 83.1361L1364.8 82.9179C1364.78 82.843 1364.79 82.7657 1364.81 82.6923C1364.79 82.6174 1364.8 82.5399 1364.82 82.4665C1364.8 82.3498 1364.84 82.3574 1364.83 82.2407C1364.85 82.1316 1364.81 82.1241 1364.84 82.0151C1364.82 81.8983 1364.86 81.906 1364.84 81.7884C1364.87 81.715 1364.87 81.6375 1364.85 81.5626L1364.9 81.3444C1364.89 81.2279 1364.85 81.2202 1364.87 81.1112C1364.86 80.9944 1364.9 81.0021 1364.88 80.8853C1364.9 80.7763 1364.87 80.7688 1364.89 80.6597L1364.94 80.4416C1364.92 80.3667 1364.92 80.2891 1364.95 80.2157C1364.93 80.1409 1364.93 80.0634 1364.95 79.99C1364.94 79.9151 1364.94 79.8377 1364.96 79.7643C1364.99 79.6909 1364.99 79.6134 1364.97 79.5385C1365 79.4294 1364.96 79.4218 1364.98 79.3127C1364.97 79.1962 1365.01 79.2036 1364.99 79.0871C1365.01 79.0137 1365.02 78.9361 1365 78.8613C1365.02 78.7522 1364.98 78.7812 1365 78.6721C1364.99 78.5554 1365.03 78.5631 1365.01 78.4455L1365.06 78.2273C1365.04 78.1524 1365.05 78.075 1365.07 78.0017L1365.04 77.7682C1365.06 77.6956 1365.06 77.619 1365.05 77.5446Z" fill="#13120F"/>
<path d="M1387.08 82.1096L1387.17 81.6732C1387.18 81.5999 1387.16 81.52 1387.18 81.4476L1387.22 81.2286C1387.24 81.1562 1387.22 81.0761 1387.23 81.0028C1387.23 80.9123 1387.23 80.8219 1387.21 80.732L1387.26 80.5139C1387.28 80.4406 1387.22 80.3528 1387.23 80.2804C1387.21 80.1996 1387.23 80.1272 1387.21 80.0471C1387.22 79.9738 1387.19 79.9304 1387.17 79.8496L1387.11 79.6087C1387.07 79.5497 1387.06 79.4796 1387.07 79.4119C1387.04 79.3678 1387.1 79.3028 1387.15 79.2372C1387.2 79.2011 1387.26 79.1744 1387.32 79.1585C1387.37 79.1236 1387.44 79.1114 1387.51 79.124L1387.95 79.2151C1388.02 79.2302 1388.1 79.2089 1388.17 79.224C1388.25 79.2391 1388.31 79.2911 1388.38 79.3062L1392.31 80.1262C1392.38 80.1417 1392.43 80.1808 1392.48 80.2365C1392.52 80.2753 1392.57 80.3225 1392.6 80.376C1392.61 80.4386 1392.61 80.5037 1392.6 80.566C1392.58 80.6332 1392.54 80.6923 1392.49 80.7322C1392.43 80.798 1392.42 80.8705 1392.37 80.9353C1392.32 81.0001 1392.24 81.0215 1392.22 81.0948C1392.17 81.1596 1392.15 81.2321 1392.1 81.2979C1392.08 81.3735 1392.04 81.4429 1391.98 81.5007C1391.97 81.5766 1391.95 81.6488 1391.9 81.7112C1391.89 81.7837 1391.84 81.8486 1391.81 81.9594C1391.8 81.9961 1391.74 82.0975 1391.73 82.1699C1391.71 82.2424 1391.66 82.3082 1391.65 82.3815C1391.63 82.4547 1391.65 82.5338 1391.6 82.5996L1391.46 83.2899C1391.45 83.3657 1391.42 83.438 1391.38 83.5004C1391.35 83.6095 1391.39 83.6171 1391.37 83.7262C1391.34 83.8353 1391.31 83.8276 1391.29 83.9367L1391.19 84.3739C1391.17 84.4829 1391.13 84.4753 1391.11 84.5844L1390.93 85.457C1390.89 85.5194 1390.86 85.5917 1390.85 85.6675L1390.8 85.8857C1390.74 85.9873 1390.78 85.9947 1390.76 86.1038L1390.71 86.322C1390.67 86.3847 1390.64 86.457 1390.63 86.5327C1390.62 86.6085 1390.59 86.6807 1390.55 86.7431C1390.52 86.8522 1390.56 86.8599 1390.5 86.9613L1390.36 87.6158C1390.34 87.7249 1390.31 87.7174 1390.28 87.8265C1390.26 87.9356 1390.3 87.943 1390.24 88.0446L1390.19 88.2628C1390.18 88.3386 1390.15 88.4109 1390.11 88.4733L1389.93 89.3468C1389.92 89.4226 1389.89 89.4949 1389.85 89.5573L1389.8 89.7754C1389.78 89.8845 1389.81 89.8922 1389.79 90.0012C1389.75 90.0636 1389.72 90.1359 1389.71 90.2117L1389.62 90.6481C1389.59 90.7571 1389.56 90.7495 1389.53 90.8586L1389.49 91.0793C1389.43 91.1809 1389.47 91.1884 1389.44 91.2974L1389.4 91.5156C1389.37 91.6247 1389.34 91.6172 1389.32 91.7263L1389.27 91.9444C1389.23 92.0068 1389.2 92.0791 1389.19 92.1549C1389.17 92.264 1389.2 92.2716 1389.14 92.3731L1389.01 93.0241C1388.98 93.1332 1388.95 93.1256 1388.92 93.2347L1388.79 93.89C1388.78 93.9657 1388.75 94.0379 1388.71 94.1007C1388.68 94.2097 1388.72 94.2172 1388.7 94.3263C1388.65 94.389 1388.63 94.4613 1388.62 94.537L1388.57 94.7552C1388.53 94.8175 1388.5 94.8898 1388.49 94.9656L1388.4 95.4019C1388.37 95.511 1388.34 95.5034 1388.31 95.6124C1388.31 95.6772 1388.28 95.7387 1388.24 95.7865C1388.23 95.8598 1388.14 95.8803 1388.09 95.9461C1388.01 95.9666 1387.97 95.9957 1387.89 96.0171C1387.83 96.0343 1387.76 96.0336 1387.7 96.015L1386.14 95.6885C1386.03 95.6658 1386.02 95.7024 1385.87 95.6718C1385.76 95.649 1385.77 95.6124 1385.66 95.5896L1385.45 95.5441C1385.37 95.5341 1385.3 95.5062 1385.24 95.4627C1385.2 95.4512 1385.18 95.4325 1385.16 95.4082C1385.14 95.384 1385.12 95.3548 1385.11 95.3234C1385.05 95.2715 1385.06 95.199 1385.04 95.1181C1385.01 95.0588 1384.99 94.989 1385.01 94.9214L1385.14 94.267C1385.13 94.1921 1385.13 94.1146 1385.15 94.0412L1385.24 93.6049C1385.27 93.4958 1385.23 93.4883 1385.25 93.3792L1385.39 92.7239C1385.37 92.649 1385.38 92.5715 1385.4 92.4981L1385.49 92.0618C1385.51 91.9527 1385.48 91.945 1385.5 91.836L1385.64 91.1815C1385.66 91.1082 1385.66 91.0308 1385.65 90.9559L1385.78 90.3048C1385.8 90.1957 1385.77 90.1881 1385.79 90.079C1385.81 89.9699 1385.78 89.9623 1385.8 89.8532L1385.89 89.4169C1385.88 89.3003 1385.91 89.3078 1385.94 89.1988C1385.92 89.0822 1385.96 89.0897 1385.98 88.9806C1386.01 88.8715 1385.97 88.864 1385.99 88.755L1386.08 88.3178C1386.07 88.2429 1386.07 88.1654 1386.09 88.092L1386.14 87.8738C1386.16 87.8004 1386.16 87.7229 1386.15 87.648C1386.17 87.5389 1386.21 87.5466 1386.23 87.4375C1386.25 87.3284 1386.22 87.3208 1386.24 87.2117L1386.33 86.7728C1386.35 86.6638 1386.32 86.6563 1386.34 86.5472L1386.48 85.8927C1386.5 85.8193 1386.5 85.7418 1386.49 85.6669L1386.53 85.4488C1386.52 85.3321 1386.55 85.3397 1386.58 85.2306L1386.62 85.0125C1386.64 84.9034 1386.61 84.8957 1386.63 84.7867L1386.77 84.1322C1386.75 84.0573 1386.76 83.9799 1386.78 83.9066L1386.82 83.6884C1386.85 83.5793 1386.81 83.5717 1386.83 83.4626L1386.88 83.241C1386.86 83.1243 1386.9 83.132 1386.92 83.022C1386.95 82.9121 1386.91 82.9053 1386.93 82.7962L1387.08 82.106V82.1096ZM1386.34 97.8184C1386.4 97.8626 1386.47 97.8907 1386.55 97.9006C1386.61 97.9525 1386.68 97.9677 1386.75 98.0186C1386.81 98.0695 1386.89 98.0856 1386.95 98.1376C1387.02 98.1895 1387.04 98.2694 1387.1 98.3204C1387.17 98.3713 1387.24 98.3874 1387.26 98.4673C1387.33 98.5104 1387.39 98.5749 1387.41 98.6511C1387.44 98.6952 1387.46 98.7753 1387.52 98.8629C1387.55 98.9072 1387.57 98.9872 1387.63 99.0756C1387.66 99.1199 1387.64 99.1924 1387.66 99.2723C1387.69 99.3471 1387.7 99.4269 1387.69 99.5058C1387.72 99.5806 1387.73 99.6602 1387.72 99.739C1387.74 99.82 1387.72 99.8924 1387.75 99.9725L1387.7 100.191C1387.68 100.264 1387.63 100.329 1387.62 100.401L1387.57 100.619C1387.52 100.677 1387.48 100.746 1387.45 100.822C1387.4 100.88 1387.36 100.95 1387.34 101.026C1387.29 101.085 1387.24 101.138 1387.19 101.185C1387.15 101.254 1387.08 101.307 1387 101.336C1386.95 101.402 1386.87 101.422 1386.83 101.451C1386.74 101.508 1386.69 101.574 1386.61 101.595C1386.54 101.628 1386.48 101.652 1386.41 101.666C1386.33 101.681 1386.27 101.705 1386.2 101.737L1385.96 101.8C1385.88 101.822 1385.81 101.807 1385.73 101.828L1385.29 101.737C1385.22 101.722 1385.14 101.743 1385.07 101.692C1385 101.682 1384.92 101.653 1384.86 101.609C1384.79 101.585 1384.72 101.545 1384.66 101.491C1384.58 101.482 1384.51 101.453 1384.45 101.409C1384.38 101.357 1384.36 101.277 1384.3 101.226C1384.24 101.184 1384.18 101.135 1384.14 101.079C1384.08 100.991 1384.02 100.939 1383.99 100.896C1383.98 100.815 1383.94 100.74 1383.88 100.683C1383.86 100.603 1383.79 100.551 1383.77 100.471C1383.75 100.391 1383.77 100.318 1383.74 100.274C1383.71 100.199 1383.7 100.119 1383.71 100.04C1383.68 99.9655 1383.68 99.8858 1383.68 99.807C1383.67 99.7321 1383.67 99.6546 1383.69 99.5812C1383.68 99.5063 1383.68 99.4287 1383.7 99.3553L1383.75 99.1372C1383.77 99.0615 1383.81 98.9922 1383.87 98.9343C1383.88 98.8586 1383.9 98.7864 1383.95 98.7237C1384 98.6589 1384.01 98.5864 1384.07 98.5208C1384.11 98.4614 1384.16 98.408 1384.21 98.362C1384.27 98.3026 1384.33 98.2513 1384.4 98.2099C1384.45 98.1452 1384.53 98.1238 1384.58 98.0588C1384.66 98.0361 1384.73 97.9996 1384.79 97.9512C1384.87 97.9305 1384.92 97.8647 1385 97.8442C1385.07 97.8113 1385.14 97.7873 1385.21 97.773C1385.28 97.7464 1385.36 97.7369 1385.44 97.7453C1385.52 97.7248 1385.59 97.7399 1385.67 97.7184L1385.89 97.7639C1385.97 97.7485 1386.04 97.7516 1386.12 97.7729L1386.34 97.8184Z" fill="#13120F"/>
<path d="M1329.36 74.2363L1330.1 77.1023L1332.88 78.1177L1330.38 79.7075L1330.28 82.6663L1327.99 80.7827L1325.15 81.5953L1326.24 78.8411L1324.58 76.3846L1327.54 76.5668L1329.36 74.2363Z" fill="#13120F"/>
<path d="M1397.64 88.5908L1398.38 91.4569L1401.15 92.4723L1398.66 94.0621L1398.55 97.0209L1396.27 95.1372L1393.42 95.9498L1394.51 93.1957L1392.86 90.7392L1395.81 90.9213L1397.64 88.5908Z" fill="#13120F"/>
<path d="M838.564 205.211L863.258 181.846L871.146 214.914L838.564 205.211Z" fill="#6EB171" stroke="#13120F"/>
<path d="M266.5 149L266.922 186.652L283.638 152.912L267.682 187.018L297.382 163.872L268.208 187.677L305.01 179.711L268.396 188.5L305.01 197.29L268.208 189.323L297.382 213.128L267.682 189.982L283.638 224.088L266.922 190.349L266.5 228L266.078 190.349L249.362 224.088L265.318 189.982L235.618 213.128L264.792 189.323L227.99 197.29L264.604 188.5L227.99 179.711L264.792 187.677L235.618 163.872L265.318 187.018L249.362 152.912L266.078 186.652L266.5 149Z" fill="#13120F"/>
<path d="M278.938 621.108C284.644 618.162 291.285 617.601 297.401 619.548C303.516 621.495 308.605 625.791 311.548 631.491L322.094 651.915L279.067 674.132L268.522 653.708C265.579 648.008 265.023 641.371 266.976 635.258C268.93 629.144 273.233 624.055 278.938 621.108Z" stroke="#6EB171" stroke-width="10" stroke-miterlimit="10"/>
<path d="M277.514 621.844C283.22 618.898 289.861 618.336 295.977 620.283C302.092 622.231 307.181 626.526 310.124 632.226L320.67 652.651L277.644 674.867L267.098 654.443C264.155 648.743 263.599 642.106 265.552 635.993C267.506 629.879 271.809 624.79 277.514 621.844Z" fill="#6EB171"/>
<path d="M274.936 646.943C274.954 646.999 274.929 647.057 274.859 647.093C273.766 647.569 272.71 648.125 271.7 648.757C271.665 648.774 271.625 648.78 271.586 648.772C271.485 648.79 271.351 648.705 271.394 648.571C271.585 648.063 271.548 647.519 271.404 646.984C271.275 646.498 271.062 646.044 270.85 645.589C270.566 644.996 270.277 644.415 269.975 643.83C269.678 643.276 269.398 642.691 269.048 642.164C268.766 641.724 268.351 641.329 267.815 641.341C267.795 641.341 267.775 641.338 267.756 641.33C267.737 641.322 267.72 641.31 267.706 641.296C267.692 641.281 267.682 641.263 267.675 641.244C267.669 641.225 267.666 641.205 267.668 641.184C267.663 641.151 267.667 641.117 267.681 641.087C267.694 641.056 267.717 641.03 267.745 641.012C268.719 640.454 269.728 639.944 270.755 639.469C270.786 639.464 270.803 639.455 270.829 639.464C270.961 639.418 271.121 639.556 271.022 639.685C270.65 640.187 270.821 640.84 271.06 641.367C271.322 641.961 271.62 642.537 271.913 643.104C272.215 643.69 272.521 644.261 272.849 644.832C273.313 645.644 273.891 646.528 274.831 646.784C274.848 646.787 274.865 646.793 274.88 646.803C274.895 646.812 274.908 646.825 274.918 646.84C274.928 646.855 274.935 646.872 274.938 646.889C274.941 646.907 274.94 646.925 274.936 646.943Z" fill="#DF6845"/>
<path d="M280.788 643.786C280.814 643.799 280.834 643.819 280.847 643.844C280.86 643.869 280.865 643.898 280.86 643.926C280.874 643.974 280.849 644.032 280.779 644.068C279.948 644.408 279.154 644.83 278.407 645.326C278.393 645.335 278.378 645.34 278.362 645.343C278.346 645.345 278.33 645.345 278.314 645.341C278.287 645.346 278.259 645.344 278.232 645.336C278.206 645.328 278.182 645.313 278.163 645.293C278.144 645.273 278.13 645.248 278.123 645.222C278.116 645.195 278.115 645.167 278.122 645.14C278.229 644.619 278.104 644.076 277.935 643.577C277.77 643.088 277.536 642.611 277.305 642.144C277.044 641.594 276.76 641.044 276.476 640.494C276.196 639.953 275.917 639.412 275.611 638.884C275.368 638.478 275.001 637.939 274.499 637.888C274.461 637.886 274.425 637.87 274.399 637.842C274.372 637.815 274.357 637.778 274.357 637.74C274.345 637.708 274.345 637.673 274.357 637.641C274.368 637.608 274.391 637.581 274.42 637.564C274.975 637.225 275.555 636.93 276.155 636.679C276.189 636.666 276.226 636.664 276.261 636.674C276.296 636.684 276.327 636.705 276.349 636.733C276.381 636.749 276.406 636.775 276.42 636.807L276.515 636.991C276.772 637.509 277.034 638.039 277.305 638.562C277.827 639.575 278.368 640.578 278.943 641.564C279.421 642.403 279.951 643.279 280.788 643.786Z" fill="#DF6845"/>
<path d="M286.071 636.415C287.202 638.606 286.413 641.259 284.316 642.342C283.337 642.847 282.243 642.915 281.241 642.625C280.826 642.542 280.432 642.377 280.083 642.139C279.944 642.038 279.81 641.93 279.683 641.815C279.179 641.414 278.768 640.909 278.476 640.336C277.349 638.153 278.134 635.492 280.222 634.414C282.32 633.332 284.944 634.233 286.071 636.415ZM284.976 638.86C284.625 638.245 284.13 637.716 283.632 637.222C283.134 636.714 282.569 636.276 281.953 635.921C281.548 635.693 281.105 635.54 280.645 635.469C280.426 635.436 280.204 635.439 279.986 635.478C279.805 635.515 279.646 635.597 279.549 635.725C279.22 636.138 279.382 636.817 279.573 637.249C279.849 637.892 280.274 638.48 280.721 639.023C281.166 639.564 281.666 640.058 282.212 640.497C282.715 640.888 283.27 641.323 283.913 641.455C284.486 641.579 285.174 641.346 285.36 640.741C285.546 640.114 285.286 639.397 284.976 638.86Z" fill="#DF6845"/>
<path d="M291.811 628.907C291.411 629.268 291.231 629.756 291.195 630.286C291.163 630.823 291.244 631.367 291.334 631.884C291.443 632.524 291.585 633.147 291.683 633.782C291.889 635.125 292.091 636.458 292.297 637.8C292.297 637.844 292.293 637.879 292.271 637.901C292.286 637.972 292.247 638.025 292.19 638.065C292.09 638.128 291.98 638.195 291.871 638.263C291.789 638.317 291.714 638.366 291.604 638.345C291.454 638.312 291.321 638.204 291.192 638.105C290.846 637.841 290.495 637.591 290.136 637.345C288.907 636.465 287.665 635.603 286.5 634.634C285.678 633.964 284.722 633.164 283.606 633.187C283.579 633.202 283.548 633.207 283.518 633.203C283.488 633.199 283.46 633.185 283.438 633.163C283.417 633.149 283.4 633.129 283.388 633.106C283.376 633.083 283.37 633.058 283.371 633.032C283.378 632.94 283.443 632.894 283.527 632.885C284.594 632.356 285.651 631.789 286.672 631.173C286.69 631.164 286.712 631.163 286.729 631.154C286.764 631.092 286.869 631.082 286.931 631.117C287.011 631.164 287.012 631.252 286.987 631.331C286.754 631.783 286.745 632.318 287.058 632.732C287.193 632.927 287.379 633.074 287.574 633.216C287.787 633.372 287.987 633.545 288.2 633.7C288.627 634.032 289.057 634.352 289.492 634.68C290.087 635.124 290.691 635.565 291.299 636.014C291.117 634.826 290.939 633.645 290.758 632.457C290.71 632.194 290.671 631.926 290.633 631.659C290.608 631.401 290.551 631.148 290.465 630.905C290.443 630.843 290.415 630.783 290.384 630.726L290.357 630.674C290.279 630.536 290.167 630.422 290.031 630.342C289.843 630.22 289.62 630.164 289.397 630.182C289.389 630.187 289.375 630.183 289.362 630.178L289.327 630.197C289.152 630.287 289.008 630.007 289.187 629.926C289.992 629.533 290.796 629.118 291.582 628.69L291.591 628.685C291.599 628.681 291.599 628.681 291.603 628.667C291.745 628.542 291.95 628.768 291.811 628.907Z" fill="#DF6845"/>
<path d="M301.783 630.128C301.788 630.158 301.802 630.184 301.807 630.216C302.028 630.643 302.24 631.075 302.465 631.49C302.582 631.717 302.703 631.931 302.807 632.153C302.853 632.249 302.89 632.349 302.917 632.451C302.966 632.526 302.958 632.617 302.858 632.658C302.823 632.678 302.787 632.693 302.748 632.704C302.744 632.717 302.731 632.713 302.714 632.722C302.272 632.917 301.821 633.116 301.384 633.32C300.584 633.7 299.788 634.089 299.011 634.49C298.984 634.515 298.951 634.532 298.915 634.54C298.036 635.004 297.167 635.486 296.306 635.987C296.136 636.086 295.996 635.815 296.166 635.716C296.158 635.685 296.16 635.652 296.174 635.624C296.33 635.09 296.287 634.537 296.158 634.006C296.024 633.511 295.816 633.044 295.59 632.585C295.311 632.044 295.009 631.503 294.699 630.967C294.533 630.688 294.362 630.4 294.196 630.121C294.044 629.859 293.879 629.604 293.702 629.359C293.402 628.972 292.962 628.59 292.439 628.629C292.418 628.629 292.404 628.625 292.387 628.634C292.224 628.662 292.111 628.422 292.282 628.345C292.776 628.123 293.266 627.892 293.751 627.653C295.482 626.825 297.177 625.906 298.814 624.917C298.905 624.859 298.985 624.906 299.017 624.989C299.134 625.129 299.21 625.298 299.3 625.451C299.412 625.647 299.504 625.846 299.606 626.044C299.813 626.445 300.034 626.851 300.246 627.261C300.3 627.366 300.222 627.45 300.134 627.474C300.12 627.493 300.102 627.51 300.082 627.523C300.044 627.541 300.002 627.544 299.962 627.531C299.923 627.519 299.89 627.492 299.87 627.456C299.733 627.246 299.554 627.067 299.344 626.93C299.297 626.915 299.256 626.886 299.225 626.848C299.211 626.844 299.193 626.831 299.167 626.823C299.144 626.825 299.121 626.823 299.099 626.814C299.078 626.806 299.058 626.793 299.043 626.777C299.025 626.775 299.008 626.769 298.993 626.759C298.978 626.749 298.967 626.736 298.958 626.72C298.918 626.702 298.877 626.686 298.834 626.674C298.808 626.665 298.786 626.666 298.768 626.652C298.181 626.458 297.539 626.48 296.947 626.642C296.404 626.79 295.897 627.052 295.417 627.343C295.634 627.784 295.85 628.226 296.071 628.675C296.364 629.243 296.653 629.824 296.95 630.399L297.383 630.143C297.657 630 297.91 629.817 298.132 629.601C298.492 629.206 298.709 628.618 298.5 628.107C298.482 628.069 298.479 628.026 298.492 627.987C298.504 627.948 298.532 627.914 298.568 627.894L298.629 627.863C298.699 627.827 298.809 627.847 298.837 627.922C299.024 628.433 299.267 628.927 299.497 629.416C299.715 629.901 299.936 630.373 300.153 630.858C300.157 630.864 300.164 630.869 300.171 630.87C300.175 630.887 300.179 630.903 300.185 630.919C300.266 631.098 299.995 631.238 299.914 631.059L299.882 630.998C299.578 630.536 298.977 630.381 298.45 630.454C298.138 630.494 297.858 630.616 297.578 630.739C297.452 630.793 297.337 630.853 297.211 630.906C297.752 631.954 298.31 632.991 298.869 634.031C299.07 633.949 299.258 633.863 299.45 633.764C300.171 633.402 300.843 632.923 301.252 632.215C301.574 631.661 301.737 630.969 301.532 630.356L301.491 630.277C301.48 630.256 301.474 630.232 301.476 630.208C301.477 630.184 301.485 630.161 301.498 630.141C301.502 630.123 301.511 630.106 301.523 630.092C301.535 630.078 301.55 630.067 301.567 630.061C301.641 630.023 301.751 630.044 301.783 630.128Z" fill="#DF6845"/>
<path d="M279.715 656.197C279.733 656.254 279.708 656.311 279.638 656.348C278.545 656.823 277.49 657.379 276.48 658.011C276.444 658.029 276.404 658.034 276.366 658.026C276.264 658.045 276.131 657.959 276.173 657.825C276.365 657.317 276.327 656.773 276.184 656.239C276.055 655.753 275.842 655.298 275.63 654.844C275.345 654.25 275.057 653.669 274.755 653.085C274.457 652.53 274.177 651.945 273.828 651.418C273.545 650.978 273.131 650.584 272.595 650.595C272.574 650.596 272.554 650.592 272.535 650.584C272.517 650.577 272.5 650.565 272.486 650.55C272.472 650.535 272.462 650.518 272.455 650.499C272.448 650.479 272.446 650.459 272.448 650.439C272.442 650.406 272.447 650.372 272.46 650.341C272.474 650.311 272.496 650.285 272.525 650.267C273.498 649.708 274.508 649.198 275.535 648.723C275.565 648.719 275.583 648.71 275.609 648.718C275.741 648.672 275.9 648.811 275.801 648.94C275.429 649.441 275.6 650.094 275.839 650.621C276.102 651.215 276.399 651.792 276.692 652.359C276.994 652.944 277.3 653.516 277.629 654.087C278.092 654.899 278.67 655.783 279.61 656.038C279.628 656.041 279.645 656.048 279.66 656.057C279.675 656.067 279.688 656.08 279.698 656.095C279.708 656.11 279.714 656.126 279.717 656.144C279.72 656.162 279.72 656.18 279.715 656.197Z" fill="#DF6845"/>
<path d="M285.568 653.042C285.593 653.055 285.613 653.075 285.626 653.1C285.639 653.125 285.644 653.154 285.64 653.182C285.654 653.23 285.628 653.288 285.558 653.324C284.728 653.664 283.933 654.085 283.186 654.582C283.172 654.59 283.157 654.596 283.141 654.598C283.125 654.601 283.109 654.6 283.093 654.597C283.066 654.602 283.038 654.6 283.012 654.592C282.985 654.583 282.961 654.569 282.942 654.549C282.923 654.529 282.909 654.504 282.902 654.477C282.895 654.451 282.895 654.423 282.901 654.396C283.009 653.875 282.883 653.332 282.714 652.833C282.55 652.343 282.316 651.867 282.085 651.4C281.823 650.85 281.539 650.3 281.255 649.75C280.976 649.209 280.696 648.667 280.39 648.14C280.148 647.734 279.78 647.194 279.278 647.144C279.24 647.142 279.204 647.125 279.178 647.098C279.152 647.07 279.137 647.034 279.136 646.996C279.124 646.964 279.124 646.929 279.136 646.896C279.147 646.864 279.17 646.837 279.2 646.82C279.755 646.481 280.334 646.185 280.934 645.935C280.968 645.922 281.005 645.92 281.041 645.93C281.076 645.939 281.106 645.96 281.129 645.989C281.16 646.005 281.186 646.031 281.2 646.063L281.294 646.246C281.551 646.764 281.813 647.294 282.084 647.818C282.607 648.831 283.147 649.834 283.723 650.82C284.2 651.658 284.73 652.534 285.568 653.042Z" fill="#DF6845"/>
<path d="M290.848 645.671C291.979 647.862 291.19 650.514 289.093 651.597C288.114 652.103 287.02 652.17 286.018 651.88C285.603 651.798 285.209 651.633 284.86 651.395C284.721 651.294 284.587 651.186 284.46 651.07C283.956 650.669 283.545 650.165 283.253 649.592C282.126 647.409 282.911 644.748 284.999 643.67C287.097 642.588 289.721 643.489 290.848 645.671ZM289.753 648.116C289.402 647.501 288.907 646.972 288.409 646.477C287.911 645.97 287.346 645.532 286.73 645.177C286.325 644.949 285.882 644.795 285.422 644.724C285.203 644.692 284.98 644.695 284.763 644.733C284.582 644.771 284.424 644.853 284.326 644.981C283.997 645.394 284.159 646.073 284.35 646.505C284.626 647.148 285.051 647.735 285.498 648.279C285.943 648.82 286.443 649.314 286.989 649.753C287.492 650.144 288.047 650.578 288.69 650.71C289.263 650.835 289.951 650.601 290.137 649.997C290.323 649.37 290.063 648.653 289.753 648.116Z" fill="#DF6845"/>
<path d="M296.591 638.163C296.191 638.525 296.012 639.015 295.975 639.543C295.942 640.079 296.024 640.623 296.114 641.141C296.223 641.781 296.365 642.404 296.463 643.039C296.669 644.381 296.87 645.715 297.076 647.057C297.077 647.101 297.073 647.136 297.051 647.158C297.065 647.229 297.026 647.282 296.97 647.322C296.87 647.385 296.76 647.452 296.651 647.519C296.568 647.574 296.494 647.623 296.384 647.602C296.234 647.569 296.101 647.461 295.972 647.362C295.626 647.098 295.275 646.848 294.916 646.602C293.687 645.722 292.444 644.86 291.28 643.891C290.458 643.221 289.502 642.421 288.385 642.444C288.359 642.459 288.328 642.464 288.298 642.46C288.268 642.456 288.24 642.442 288.218 642.42C288.197 642.405 288.18 642.386 288.168 642.363C288.156 642.34 288.15 642.315 288.15 642.289C288.158 642.197 288.223 642.151 288.307 642.142C289.374 641.613 290.431 641.046 291.452 640.43C291.469 640.421 291.491 640.42 291.509 640.411C291.543 640.349 291.649 640.339 291.711 640.374C291.79 640.421 291.791 640.509 291.766 640.588C291.534 641.04 291.525 641.575 291.838 641.989C291.972 642.184 292.159 642.331 292.354 642.473C292.567 642.629 292.767 642.801 292.98 642.957C293.407 643.289 293.837 643.609 294.272 643.937C294.867 644.381 295.471 644.822 296.079 645.271C295.897 644.083 295.719 642.902 295.537 641.714C295.49 641.451 295.451 641.183 295.413 640.915C295.387 640.658 295.331 640.405 295.245 640.162C295.222 640.1 295.195 640.04 295.163 639.983L295.136 639.93C295.059 639.794 294.947 639.68 294.811 639.601C294.624 639.479 294.401 639.423 294.178 639.441C294.169 639.446 294.156 639.442 294.143 639.437L294.108 639.456C293.933 639.546 293.789 639.266 293.968 639.185C294.772 638.792 295.576 638.377 296.362 637.948L296.371 637.944C296.38 637.939 296.38 637.939 296.384 637.926C296.524 637.797 296.729 638.024 296.591 638.163Z" fill="#DF6845"/>
<path d="M306.563 639.382C306.568 639.413 306.581 639.439 306.587 639.47C306.807 639.898 307.02 640.33 307.245 640.745C307.362 640.971 307.483 641.185 307.587 641.408C307.633 641.504 307.669 641.603 307.697 641.706C307.746 641.78 307.738 641.872 307.637 641.913C307.603 641.932 307.566 641.948 307.528 641.958C307.524 641.971 307.511 641.967 307.493 641.976C307.052 642.171 306.601 642.371 306.164 642.574C305.364 642.954 304.568 643.343 303.791 643.745C303.764 643.77 303.73 643.787 303.694 643.794C302.816 644.259 301.947 644.741 301.086 645.241C300.915 645.34 300.776 645.07 300.946 644.971C300.937 644.94 300.94 644.907 300.954 644.878C301.109 644.344 301.067 643.791 300.938 643.261C300.804 642.766 300.596 642.298 300.37 641.84C300.09 641.299 299.789 640.758 299.479 640.221C299.313 639.942 299.142 639.655 298.976 639.376C298.824 639.113 298.659 638.859 298.482 638.613C298.182 638.226 297.742 637.845 297.219 637.883C297.197 637.883 297.184 637.879 297.167 637.888C297.004 637.917 296.891 637.676 297.062 637.6C297.556 637.378 298.046 637.147 298.531 636.907C300.262 636.08 301.957 635.16 303.594 634.171C303.685 634.113 303.765 634.161 303.797 634.244C303.914 634.384 303.989 634.553 304.08 634.706C304.192 634.902 304.283 635.098 304.386 635.298C304.593 635.699 304.814 636.105 305.025 636.515C305.08 636.621 305.001 636.705 304.914 636.728C304.9 636.748 304.882 636.765 304.861 636.777C304.824 636.795 304.781 636.798 304.742 636.786C304.702 636.773 304.669 636.746 304.649 636.71C304.512 636.5 304.333 636.322 304.124 636.185C304.077 636.169 304.036 636.141 304.004 636.103C303.991 636.099 303.973 636.086 303.947 636.078C303.924 636.08 303.901 636.077 303.879 636.069C303.858 636.061 303.838 636.048 303.823 636.031C303.805 636.03 303.788 636.024 303.773 636.014C303.758 636.004 303.746 635.99 303.738 635.975C303.698 635.956 303.657 635.941 303.614 635.928C303.588 635.92 303.565 635.92 303.548 635.907C302.96 635.713 302.318 635.735 301.727 635.896C301.184 636.044 300.677 636.306 300.197 636.598C300.413 637.039 300.63 637.48 300.851 637.93C301.144 638.497 301.433 639.078 301.73 639.654L302.162 639.398C302.437 639.254 302.689 639.072 302.912 638.856C303.272 638.46 303.489 637.872 303.28 637.361C303.262 637.324 303.259 637.281 303.272 637.242C303.284 637.202 303.312 637.169 303.348 637.149L303.409 637.117C303.479 637.081 303.589 637.102 303.616 637.176C303.803 637.688 304.047 638.182 304.277 638.671C304.495 639.155 304.716 639.627 304.933 640.112C304.937 640.119 304.944 640.123 304.951 640.125C304.955 640.141 304.959 640.157 304.964 640.173C305.046 640.352 304.775 640.492 304.694 640.313L304.662 640.252C304.357 639.79 303.757 639.636 303.23 639.709C302.918 639.748 302.638 639.871 302.358 639.993C302.231 640.048 302.116 640.107 301.991 640.161C302.532 641.208 303.089 642.246 303.649 643.285C303.85 643.204 304.038 643.118 304.23 643.018C304.951 642.657 305.622 642.178 306.031 641.469C306.354 640.915 306.517 640.223 306.312 639.611L306.271 639.532C306.26 639.51 306.254 639.487 306.256 639.463C306.257 639.439 306.265 639.415 306.278 639.395C306.282 639.377 306.291 639.361 306.303 639.347C306.315 639.333 306.33 639.322 306.347 639.315C306.421 639.279 306.531 639.299 306.563 639.382Z" fill="#DF6845"/>
<path d="M284.371 665.217C284.39 665.274 284.364 665.331 284.294 665.367C283.202 665.843 282.146 666.399 281.136 667.031C281.1 667.049 281.06 667.054 281.022 667.046C280.921 667.065 280.787 666.979 280.829 666.845C281.021 666.337 280.983 665.792 280.84 665.258C280.711 664.772 280.498 664.318 280.286 663.863C280.001 663.269 279.713 662.689 279.41 662.104C279.113 661.55 278.833 660.965 278.483 660.437C278.201 659.997 277.787 659.603 277.251 659.615C277.23 659.615 277.21 659.612 277.191 659.604C277.173 659.596 277.156 659.584 277.142 659.57C277.128 659.555 277.118 659.537 277.111 659.518C277.104 659.499 277.102 659.479 277.104 659.458C277.098 659.425 277.103 659.391 277.116 659.361C277.13 659.33 277.152 659.304 277.18 659.286C278.154 658.728 279.164 658.218 280.19 657.743C280.221 657.738 280.239 657.729 280.265 657.738C280.397 657.692 280.556 657.83 280.457 657.959C280.085 658.461 280.256 659.114 280.495 659.641C280.758 660.235 281.055 660.811 281.348 661.379C281.65 661.963 281.956 662.535 282.285 663.106C282.748 663.918 283.326 664.802 284.266 665.058C284.284 665.061 284.301 665.067 284.316 665.077C284.331 665.086 284.344 665.099 284.354 665.114C284.364 665.129 284.371 665.146 284.374 665.164C284.377 665.181 284.376 665.2 284.371 665.217Z" fill="#DF6845"/>
<path d="M290.225 662.062C290.25 662.074 290.271 662.095 290.284 662.12C290.297 662.145 290.301 662.174 290.297 662.202C290.311 662.249 290.285 662.308 290.215 662.344C289.385 662.684 288.59 663.105 287.843 663.602C287.83 663.61 287.814 663.616 287.798 663.618C287.783 663.621 287.766 663.62 287.751 663.616C287.723 663.622 287.695 663.62 287.669 663.611C287.643 663.603 287.619 663.588 287.6 663.568C287.581 663.548 287.567 663.524 287.56 663.497C287.552 663.47 287.552 663.442 287.558 663.415C287.666 662.896 287.541 662.352 287.372 661.853C287.207 661.363 286.973 660.887 286.742 660.42C286.48 659.87 286.196 659.32 285.912 658.77C285.633 658.229 285.353 657.687 285.047 657.16C284.805 656.754 284.437 656.214 283.936 656.164C283.898 656.162 283.862 656.146 283.836 656.118C283.809 656.091 283.794 656.054 283.793 656.016C283.782 655.984 283.782 655.949 283.793 655.917C283.805 655.884 283.827 655.857 283.857 655.839C284.412 655.501 284.992 655.206 285.591 654.955C285.625 654.942 285.663 654.94 285.698 654.95C285.733 654.96 285.764 654.981 285.786 655.01C285.818 655.025 285.843 655.051 285.857 655.083L285.952 655.267C286.208 655.785 286.471 656.314 286.741 656.838C287.264 657.851 287.804 658.855 288.38 659.84C288.857 660.678 289.387 661.554 290.225 662.062Z" fill="#DF6845"/>
<path d="M295.506 654.691C296.638 656.882 295.849 659.534 293.751 660.617C292.772 661.123 291.678 661.19 290.676 660.9C290.261 660.817 289.867 660.652 289.518 660.415C289.379 660.314 289.245 660.205 289.118 660.09C288.615 659.689 288.203 659.185 287.912 658.611C286.785 656.429 287.569 653.768 289.658 652.69C291.756 651.607 294.379 652.508 295.506 654.691ZM294.411 657.136C294.06 656.521 293.565 655.991 293.067 655.497C292.569 654.989 292.004 654.552 291.388 654.197C290.983 653.968 290.54 653.815 290.08 653.744C289.861 653.712 289.639 653.715 289.421 653.753C289.24 653.791 289.082 653.873 288.984 654C288.655 654.414 288.818 655.092 289.008 655.525C289.284 656.168 289.709 656.755 290.156 657.299C290.602 657.84 291.101 658.334 291.648 658.773C292.15 659.164 292.705 659.598 293.349 659.73C293.922 659.855 294.609 659.621 294.795 659.016C294.981 658.39 294.721 657.672 294.411 657.136Z" fill="#DF6845"/>
<path d="M301.247 647.182C300.847 647.543 300.669 648.033 300.631 648.562C300.599 649.098 300.68 649.642 300.77 650.159C300.879 650.799 301.022 651.423 301.12 652.058C301.325 653.4 301.527 654.733 301.733 656.075C301.734 656.119 301.73 656.155 301.708 656.177C301.722 656.247 301.683 656.3 301.626 656.341C301.526 656.403 301.417 656.471 301.308 656.538C301.225 656.592 301.151 656.641 301.041 656.621C300.891 656.588 300.757 656.48 300.629 656.38C300.282 656.117 299.932 655.867 299.572 655.621C298.343 654.741 297.101 653.878 295.936 652.91C295.114 652.239 294.159 651.439 293.042 651.463C293.015 651.478 292.985 651.483 292.954 651.479C292.924 651.474 292.896 651.46 292.875 651.439C292.854 651.424 292.836 651.405 292.825 651.382C292.813 651.359 292.807 651.333 292.807 651.308C292.814 651.215 292.88 651.17 292.964 651.161C294.03 650.632 295.087 650.064 296.108 649.448C296.126 649.439 296.148 649.439 296.165 649.43C296.2 649.368 296.305 649.358 296.367 649.392C296.447 649.439 296.448 649.527 296.423 649.607C296.191 650.058 296.181 650.594 296.495 651.007C296.629 651.203 296.816 651.35 297.01 651.491C297.223 651.646 297.423 651.82 297.636 651.975C298.062 652.306 298.493 652.627 298.928 652.956C299.523 653.399 300.127 653.84 300.735 654.289C300.553 653.1 300.376 651.921 300.194 650.732C300.146 650.469 300.108 650.202 300.069 649.934C300.044 649.677 299.987 649.424 299.901 649.18C299.879 649.119 299.851 649.059 299.82 649.001L299.793 648.949C299.715 648.812 299.603 648.699 299.468 648.619C299.28 648.497 299.058 648.441 298.835 648.46C298.826 648.464 298.812 648.46 298.799 648.455L298.764 648.473C298.589 648.564 298.445 648.284 298.624 648.203C299.429 647.81 300.233 647.394 301.019 646.966L301.028 646.962C301.036 646.957 301.036 646.957 301.04 646.944C301.181 646.818 301.387 647.045 301.247 647.182Z" fill="#DF6845"/>
<path d="M311.219 648.402C311.224 648.433 311.238 648.459 311.243 648.49C311.464 648.918 311.676 649.35 311.901 649.765C312.018 649.992 312.14 650.206 312.244 650.428C312.289 650.524 312.326 650.623 312.353 650.726C312.402 650.8 312.395 650.892 312.294 650.933C312.26 650.953 312.223 650.968 312.185 650.979C312.18 650.992 312.167 650.988 312.15 650.997C311.708 651.191 311.257 651.391 310.82 651.595C310.02 651.975 309.224 652.363 308.447 652.764C308.42 652.79 308.387 652.807 308.351 652.814C307.473 653.279 306.603 653.761 305.742 654.261C305.572 654.36 305.432 654.09 305.602 653.991C305.594 653.96 305.596 653.927 305.61 653.898C305.766 653.364 305.723 652.811 305.594 652.281C305.46 651.786 305.252 651.319 305.026 650.86C304.747 650.319 304.445 649.778 304.135 649.242C303.969 648.962 303.798 648.675 303.632 648.396C303.48 648.134 303.316 647.879 303.138 647.634C302.838 647.247 302.398 646.865 301.876 646.903C301.854 646.904 301.84 646.899 301.823 646.908C301.661 646.937 301.547 646.697 301.718 646.62C302.213 646.398 302.702 646.167 303.187 645.928C304.919 645.1 306.613 644.18 308.25 643.192C308.342 643.133 308.421 643.181 308.453 643.264C308.57 643.403 308.646 643.573 308.736 643.726C308.849 643.922 308.939 644.118 309.042 644.318C309.25 644.72 309.47 645.126 309.682 645.536C309.736 645.641 309.658 645.726 309.57 645.749C309.556 645.769 309.539 645.785 309.518 645.798C309.481 645.816 309.438 645.819 309.399 645.806C309.359 645.794 309.326 645.767 309.306 645.73C309.169 645.521 308.99 645.342 308.78 645.206C308.734 645.19 308.693 645.161 308.661 645.124C308.647 645.12 308.63 645.107 308.603 645.098C308.58 645.1 308.557 645.097 308.536 645.089C308.514 645.081 308.495 645.068 308.479 645.051C308.461 645.05 308.444 645.044 308.429 645.034C308.415 645.024 308.403 645.011 308.395 644.995C308.354 644.977 308.313 644.961 308.271 644.948C308.244 644.94 308.222 644.941 308.204 644.928C307.617 644.733 306.975 644.755 306.383 644.917C305.84 645.065 305.333 645.326 304.853 645.619C305.07 646.06 305.286 646.501 305.508 646.951C305.8 647.518 306.089 648.098 306.387 648.675L306.819 648.419C307.094 648.265 307.343 648.104 307.568 647.876C307.928 647.48 308.146 646.893 307.937 646.382C307.919 646.344 307.916 646.302 307.928 646.262C307.941 646.223 307.968 646.19 308.005 646.17L308.066 646.138C308.135 646.102 308.246 646.123 308.273 646.197C308.46 646.709 308.703 647.202 308.934 647.691C309.151 648.176 309.373 648.648 309.59 649.133C309.594 649.139 309.6 649.144 309.608 649.146C309.611 649.162 309.616 649.178 309.621 649.194C309.703 649.373 309.432 649.513 309.35 649.334L309.319 649.273C309.014 648.811 308.414 648.656 307.886 648.73C307.574 648.769 307.295 648.891 307.015 649.014C306.888 649.068 306.773 649.128 306.647 649.181C307.188 650.229 307.746 651.266 308.305 652.306C308.507 652.224 308.695 652.138 308.887 652.039C309.608 651.678 310.279 651.198 310.688 650.49C311.011 649.936 311.174 649.244 310.968 648.631L310.927 648.552C310.916 648.531 310.911 648.507 310.912 648.483C310.914 648.459 310.921 648.435 310.934 648.415C310.938 648.397 310.947 648.381 310.959 648.367C310.971 648.353 310.986 648.342 311.004 648.335C311.076 648.297 311.188 648.319 311.219 648.402Z" fill="#DF6845"/>
<mask id="mask1_461_5603" style="mask-type:luminance" maskUnits="userSpaceOnUse" x="459" y="99" width="119" height="119">
<path d="M534.364 98.9995L459 142.511L502.511 217.874L577.875 174.363L534.364 98.9995Z" fill="white"/>
</mask>
<g mask="url(#mask1_461_5603)">
<path d="M555.254 137.182C566.993 157.515 560.027 183.514 539.694 195.253C519.361 206.992 493.362 200.026 481.623 179.693C469.883 159.36 476.85 133.361 497.183 121.622C517.516 109.883 543.515 116.849 555.254 137.182Z" fill="#E2A127" stroke="#13120F" stroke-width="2"/>
<path d="M538.437 139.021L538.468 139.079L538.504 139.131L538.505 139.132L538.506 139.133L538.51 139.14C538.516 139.149 538.528 139.166 538.543 139.19C538.574 139.238 538.622 139.315 538.685 139.42C538.809 139.631 538.988 139.955 539.195 140.392C539.609 141.265 540.132 142.583 540.541 144.327C541.359 147.809 541.73 153.016 539.845 159.801L539.843 159.811C538.186 166.006 535.965 172.288 532.179 182.227C521.68 180.539 515.129 179.321 508.935 177.656L508.925 177.653C502.102 175.895 497.777 172.971 495.169 170.522C493.863 169.296 492.983 168.184 492.434 167.39C492.159 166.992 491.968 166.674 491.847 166.461C491.787 166.355 491.745 166.275 491.719 166.224C491.706 166.198 491.697 166.18 491.692 166.17L491.688 166.161C491.688 166.16 491.687 166.16 491.687 166.16L491.653 166.088L491.607 166.019C491.523 165.897 491.445 165.763 491.345 165.589C487.722 159.314 489.876 150.787 496.42 147.008C501.179 144.261 507.096 144.943 511.26 147.806L512.989 148.995L512.824 146.904C512.426 141.865 514.792 136.401 519.551 133.654C526.095 129.875 534.557 132.273 538.18 138.549C538.267 138.698 538.35 138.854 538.437 139.021Z" fill="#DF6845" stroke="#13120F" stroke-width="2"/>
</g>
</g>
<g clip-path="url(#clip2_461_5603)">
<path fill-rule="evenodd" clip-rule="evenodd" d="M749.863 104.086C753.06 100.94 758.667 100.552 765.419 102.863C768.112 103.784 770.947 105.124 773.821 106.849C769.79 109.305 765.712 112.475 761.855 116.27C757.999 120.065 754.764 124.092 752.244 128.083C750.565 125.182 749.271 122.326 748.392 119.619C746.19 112.831 746.666 107.232 749.863 104.086ZM751.786 128.82C745.663 118.419 744.341 108.444 749.325 103.539C754.31 98.6342 764.263 100.116 774.566 106.403C784.967 100.281 794.942 98.9589 799.848 103.943C804.753 108.927 803.272 118.879 796.984 129.181C803.106 139.581 804.429 149.556 799.444 154.461C794.46 159.366 784.507 157.884 774.205 151.598C763.803 157.72 753.828 159.042 748.922 154.058C744.017 149.074 745.498 139.122 751.786 128.82ZM773.467 151.14C770.567 152.818 767.71 154.113 765.003 154.991C758.215 157.194 752.615 156.717 749.469 153.52C746.323 150.323 745.935 144.717 748.246 137.965C749.167 135.273 750.507 132.438 752.232 129.564C754.689 133.595 757.858 137.673 761.653 141.529C765.449 145.385 769.476 148.619 773.467 151.14ZM774.212 150.701C770.168 148.187 766.067 144.919 762.2 140.991C758.334 137.062 755.132 132.91 752.682 128.827C755.197 124.784 758.465 120.683 762.393 116.817C766.322 112.95 770.475 109.749 774.558 107.299C778.602 109.813 782.703 113.081 786.569 117.009C790.436 120.938 793.638 125.09 796.088 129.173C793.573 133.217 790.305 137.318 786.377 141.184C782.448 145.05 778.296 148.252 774.212 150.701ZM774.95 151.152C777.823 152.876 780.658 154.216 783.351 155.137C790.103 157.448 795.709 157.06 798.906 153.914C802.103 150.768 802.58 145.169 800.377 138.381C799.499 135.675 798.205 132.818 796.526 129.918C794.006 133.909 790.771 137.936 786.915 141.731C783.058 145.526 778.98 148.695 774.95 151.152ZM796.538 128.436C798.263 125.563 799.603 122.727 800.524 120.035C802.835 113.283 802.447 107.678 799.301 104.481C796.155 101.284 790.555 100.807 783.767 103.01C781.06 103.888 778.204 105.182 775.303 106.861C779.294 109.381 783.321 112.615 787.116 116.471C790.912 120.327 794.082 124.405 796.538 128.436ZM774.385 119.028C774.535 124.472 778.914 128.85 784.358 129C778.914 129.15 774.535 133.528 774.385 138.972C774.235 133.528 769.856 129.15 764.412 129C769.856 128.85 774.235 124.472 774.385 119.028Z" fill="#13120F"/>
</g>
</g>
<defs>
<clipPath id="clip0_461_5603">
<rect width="1440" height="852.81" fill="white"/>
</clipPath>
<clipPath id="clip1_461_5603">
<rect width="1440" height="852.81" fill="white"/>
</clipPath>
<clipPath id="clip2_461_5603">
<rect width="56.77" height="74" fill="white" transform="translate(746 92)"/>
</clipPath>
</defs>
</svg>
