<svg width="20" height="21" viewBox="0 0 20 21" fill="none" xmlns="http://www.w3.org/2000/svg">
<g id="SVG" clip-path="url(#clip0_3338_5918)">
<g id="Clip path group">
<mask id="mask0_3338_5918" style="mask-type:luminance" maskUnits="userSpaceOnUse" x="0" y="0" width="20" height="21">
<g id="clip0_1901_11513">
<path id="Vector" d="M20 0.810059H0V20.8101H20V0.810059Z" fill="white"/>
</g>
</mask>
<g mask="url(#mask0_3338_5918)">
<g id="Group">
<path id="Vector_2" d="M9.99951 18.9579C9.98018 18.9353 9.95944 18.9109 9.93738 18.8849C9.77792 18.6971 9.54971 18.4233 9.27568 18.0806C8.72739 17.3949 7.99674 16.4347 7.26656 15.3362C6.53592 14.2371 5.80877 13.0039 5.26502 11.772C4.71985 10.5368 4.36719 9.32088 4.36719 8.25123C4.36719 5.0849 6.88901 2.53064 9.99951 2.53064C13.1101 2.53064 15.6319 5.0849 15.6319 8.25123C15.6319 9.32088 15.2792 10.5368 14.7341 11.772C14.1903 13.0039 13.4631 14.2371 12.7325 15.3362C12.0023 16.4347 11.2717 17.3949 10.7234 18.0806C10.4494 18.4233 10.2211 18.6971 10.0617 18.8849C10.0396 18.9109 10.0189 18.9353 9.99951 18.9579ZM7.6487 8.25123C7.6487 9.56284 8.69831 10.6336 9.99951 10.6336C11.3008 10.6336 12.3504 9.56284 12.3504 8.25123C12.3504 6.93962 11.3008 5.86888 9.99951 5.86888C8.69831 5.86888 7.6487 6.93962 7.6487 8.25123Z" fill="#6EB171" stroke="#13120F" stroke-width="0.5"/>
</g>
</g>
</g>
</g>
<defs>
<clipPath id="clip0_3338_5918">
<rect width="20" height="20" fill="white" transform="translate(0 0.810059)"/>
</clipPath>
</defs>
</svg>
