<svg width="24" height="24" viewBox="0 0 24 24" fill="none" xmlns="http://www.w3.org/2000/svg">
<path d="M10.2609 4C6.80309 4 4 6.80309 4 10.2609C4 13.7187 6.80309 16.5217 10.2609 16.5217C11.7391 16.5217 13.0977 16.0094 14.1688 15.1526L18.8124 19.7962C19.0841 20.0679 19.5246 20.0679 19.7962 19.7962C20.0679 19.5246 20.0679 19.0841 19.7962 18.8124L15.1526 14.1688C16.0094 13.0977 16.5217 11.7391 16.5217 10.2609C16.5217 6.80309 13.7187 4 10.2609 4ZM5.3913 10.2609C5.3913 7.57148 7.57148 5.3913 10.2609 5.3913C12.9503 5.3913 15.1304 7.57148 15.1304 10.2609C15.1304 12.9503 12.9503 15.1304 10.2609 15.1304C7.57148 15.1304 5.3913 12.9503 5.3913 10.2609Z" fill="#13120F"/>
</svg>
