<svg width="24" height="25" viewBox="0 0 24 25" fill="none" xmlns="http://www.w3.org/2000/svg">
<path d="M7.55016 22.4504C16.6045 22.4504 21.5583 14.9471 21.5583 8.4423C21.5583 8.23136 21.5536 8.01574 21.5442 7.8048C22.5079 7.1079 23.3395 6.24469 24 5.25574C23.1025 5.65504 22.1496 5.91582 21.1739 6.02918C22.2013 5.41335 22.9705 4.44591 23.3391 3.30621C22.3726 3.879 21.3156 4.28305 20.2134 4.50105C19.4708 3.712 18.489 3.18956 17.4197 3.01449C16.3504 2.83943 15.2532 3.02149 14.2977 3.53254C13.3423 4.04358 12.5818 4.85515 12.1338 5.84175C11.6859 6.82836 11.5754 7.93506 11.8195 8.99074C9.86249 8.89253 7.94794 8.38414 6.19998 7.49854C4.45203 6.61293 2.90969 5.36988 1.67297 3.84996C1.0444 4.93368 0.852057 6.21609 1.13503 7.43653C1.418 8.65698 2.15506 9.72389 3.19641 10.4204C2.41463 10.3956 1.64998 10.1851 0.965625 9.80636V9.8673C0.964925 11.0045 1.3581 12.107 2.07831 12.9872C2.79852 13.8674 3.80132 14.471 4.91625 14.6954C4.19206 14.8935 3.43198 14.9224 2.69484 14.7798C3.00945 15.7578 3.62157 16.6133 4.44577 17.2267C5.26997 17.8402 6.26512 18.181 7.29234 18.2016C5.54842 19.5715 3.39417 20.3145 1.17656 20.311C0.783287 20.3104 0.390399 20.2863 0 20.2388C2.25286 21.6841 4.87353 22.4518 7.55016 22.4504Z" fill="#13120F"/>
</svg>
