<svg width="24" height="25" viewBox="0 0 24 25" fill="none" xmlns="http://www.w3.org/2000/svg">
<g clip-path="url(#clip0_3338_6302)">
<mask id="mask0_3338_6302" style="mask-type:luminance" maskUnits="userSpaceOnUse" x="0" y="0" width="24" height="25">
<path d="M24 0.700195H0V24.7002H24V0.700195Z" fill="white"/>
</mask>
<g mask="url(#mask0_3338_6302)">
<path d="M12 2.86114C15.2063 2.86114 15.5859 2.8752 16.8469 2.93145C18.0188 2.98301 18.6516 3.17989 19.0734 3.34395C19.6313 3.55958 20.0344 3.82208 20.4516 4.23926C20.8734 4.66114 21.1313 5.05958 21.3469 5.61739C21.5109 6.03926 21.7078 6.67676 21.7594 7.84395C21.8156 9.10957 21.8297 9.48925 21.8297 12.6908C21.8297 15.8971 21.8156 16.2768 21.7594 17.5377C21.7078 18.7096 21.5109 19.3424 21.3469 19.7643C21.1313 20.3221 20.8687 20.7252 20.4516 21.1424C20.0297 21.5643 19.6313 21.8221 19.0734 22.0377C18.6516 22.2018 18.0141 22.3986 16.8469 22.4502C15.5813 22.5064 15.2016 22.5205 12 22.5205C8.79375 22.5205 8.41406 22.5064 7.15313 22.4502C5.98125 22.3986 5.34844 22.2018 4.92656 22.0377C4.36875 21.8221 3.96563 21.5596 3.54844 21.1424C3.12656 20.7205 2.86875 20.3221 2.65313 19.7643C2.48906 19.3424 2.29219 18.7049 2.24063 17.5377C2.18438 16.2721 2.17031 15.8924 2.17031 12.6908C2.17031 9.48458 2.18438 9.10489 2.24063 7.84395C2.29219 6.67207 2.48906 6.03926 2.65313 5.61739C2.86875 5.05958 3.13125 4.65645 3.54844 4.23926C3.97031 3.81739 4.36875 3.55958 4.92656 3.34395C5.34844 3.17989 5.98594 2.98301 7.15313 2.93145C8.41406 2.8752 8.79375 2.86114 12 2.86114ZM12 0.700195C8.74219 0.700195 8.33438 0.714258 7.05469 0.770508C5.77969 0.826758 4.90313 1.03301 4.14375 1.32832C3.35156 1.6377 2.68125 2.04551 2.01563 2.71582C1.34531 3.38145 0.9375 4.05176 0.628125 4.83926C0.332812 5.60333 0.126563 6.4752 0.0703125 7.7502C0.0140625 9.03457 0 9.44239 0 12.7002C0 15.958 0.0140625 16.3658 0.0703125 17.6455C0.126563 18.9205 0.332812 19.7971 0.628125 20.5565C0.9375 21.3486 1.34531 22.019 2.01563 22.6846C2.68125 23.3502 3.35156 23.7627 4.13906 24.0674C4.90313 24.3627 5.775 24.5689 7.05 24.6252C8.32969 24.6814 8.7375 24.6955 11.9953 24.6955C15.2531 24.6955 15.6609 24.6814 16.9406 24.6252C18.2156 24.5689 19.0922 24.3627 19.8516 24.0674C20.6391 23.7627 21.3094 23.3502 21.975 22.6846C22.6406 22.019 23.0531 21.3486 23.3578 20.5611C23.6531 19.7971 23.8594 18.9252 23.9156 17.6502C23.9719 16.3705 23.9859 15.9627 23.9859 12.7049C23.9859 9.44708 23.9719 9.03926 23.9156 7.75958C23.8594 6.48458 23.6531 5.60801 23.3578 4.84864C23.0625 4.05176 22.6547 3.38145 21.9844 2.71582C21.3188 2.0502 20.6484 1.6377 19.8609 1.33301C19.0969 1.0377 18.225 0.831445 16.95 0.775195C15.6656 0.714258 15.2578 0.700195 12 0.700195Z" fill="#13120F"/>
<path d="M12 6.53613C8.59688 6.53613 5.83594 9.29707 5.83594 12.7002C5.83594 16.1033 8.59688 18.8643 12 18.8643C15.4031 18.8643 18.1641 16.1033 18.1641 12.7002C18.1641 9.29707 15.4031 6.53613 12 6.53613ZM12 16.6986C9.79219 16.6986 8.00156 14.908 8.00156 12.7002C8.00156 10.4924 9.79219 8.70175 12 8.70175C14.2078 8.70175 15.9984 10.4924 15.9984 12.7002C15.9984 14.908 14.2078 16.6986 12 16.6986Z" fill="#13120F"/>
<path d="M19.8469 6.29258C19.8469 7.08946 19.2 7.73164 18.4078 7.73164C17.6109 7.73164 16.9688 7.08477 16.9688 6.29258C16.9688 5.4957 17.6156 4.85352 18.4078 4.85352C19.2 4.85352 19.8469 5.50039 19.8469 6.29258Z" fill="#13120F"/>
</g>
</g>
<defs>
<clipPath id="clip0_3338_6302">
<rect width="24" height="24" fill="white" transform="translate(0 0.700195)"/>
</clipPath>
</defs>
</svg>
