<svg width="24" height="25" viewBox="0 0 24 25" fill="none" xmlns="http://www.w3.org/2000/svg">
<g clip-path="url(#clip0_3338_6310)">
<path d="M24 12.7002C24 6.07278 18.6274 0.700195 12 0.700195C5.37258 0.700195 0 6.07278 0 12.7002C0 18.6897 4.3882 23.6542 10.125 24.5544V16.169H7.07812V12.7002H10.125V10.0564C10.125 7.04895 11.9166 5.3877 14.6576 5.3877C15.9701 5.3877 17.3438 5.62208 17.3438 5.62208V8.5752H15.8306C14.34 8.5752 13.875 9.50028 13.875 10.4502V12.7002H17.2031L16.6711 16.169H13.875V24.5544C19.6118 23.6542 24 18.6897 24 12.7002Z" fill="#13120F"/>
</g>
<defs>
<clipPath id="clip0_3338_6310">
<rect width="24" height="24" fill="white" transform="translate(0 0.700195)"/>
</clipPath>
</defs>
</svg>
