<svg width="24" height="25" viewBox="0 0 24 25" fill="none" xmlns="http://www.w3.org/2000/svg">
<g clip-path="url(#clip0_3338_6314)">
<path d="M9.88806 10.7681C9.20406 10.7681 8.66406 11.3681 8.66406 12.1001C8.66406 12.8321 9.21606 13.4321 9.88806 13.4321C10.5721 13.4321 11.1121 12.8321 11.1121 12.1001C11.1241 11.3681 10.5721 10.7681 9.88806 10.7681ZM14.2681 10.7681C13.5841 10.7681 13.0441 11.3681 13.0441 12.1001C13.0441 12.8321 13.5961 13.4321 14.2681 13.4321C14.9521 13.4321 15.4921 12.8321 15.4921 12.1001C15.4921 11.3681 14.9521 10.7681 14.2681 10.7681Z" fill="#13120F"/>
<path d="M20.1024 0.700195H4.0225C2.6665 0.700195 1.5625 1.8042 1.5625 3.1722V19.3962C1.5625 20.7642 2.6665 21.8682 4.0225 21.8682H17.6304L16.9945 19.6482L18.5304 21.0762L19.9824 22.4202L22.5624 24.7002V3.1722C22.5624 1.8042 21.4584 0.700195 20.1024 0.700195ZM15.4705 16.3722C15.4705 16.3722 15.0385 15.8562 14.6785 15.4002C16.2505 14.9562 16.8504 13.9722 16.8504 13.9722C16.3584 14.2962 15.8905 14.5242 15.4705 14.6802C14.8705 14.9322 14.2945 15.1002 13.7305 15.1962C12.5785 15.4122 11.5224 15.3522 10.6224 15.1842C9.9385 15.0522 9.3505 14.8602 8.8585 14.6682C8.5825 14.5602 8.2825 14.4282 7.9825 14.2602C7.9465 14.2362 7.9105 14.2242 7.8745 14.2002C7.8505 14.1882 7.8385 14.1762 7.8265 14.1642C7.6105 14.0442 7.4905 13.9602 7.4905 13.9602C7.4905 13.9602 8.0665 14.9202 9.5905 15.3762C9.2305 15.8322 8.7865 16.3722 8.7865 16.3722C6.1345 16.2882 5.1265 14.5482 5.1265 14.5482C5.1265 10.6842 6.8545 7.5522 6.8545 7.5522C8.5825 6.2562 10.2264 6.2922 10.2264 6.2922L10.3464 6.4362C8.1865 7.0602 7.1905 8.0082 7.1905 8.0082C7.1905 8.0082 7.4545 7.8642 7.8985 7.6602C9.1825 7.0962 10.2024 6.9402 10.6224 6.9042C10.6944 6.8922 10.7545 6.8802 10.8265 6.8802C11.5585 6.7842 12.3865 6.7602 13.2505 6.8562C14.3905 6.9882 15.6145 7.3242 16.8625 8.0082C16.8625 8.0082 15.9145 7.1082 13.8745 6.4842L14.0424 6.2922C14.0424 6.2922 15.6865 6.2562 17.4145 7.5522C17.4145 7.5522 19.1424 10.6842 19.1424 14.5482C19.1424 14.5482 18.1225 16.2882 15.4705 16.3722Z" fill="#13120F"/>
</g>
<defs>
<clipPath id="clip0_3338_6314">
<rect width="24" height="24" fill="white" transform="translate(0 0.700195)"/>
</clipPath>
</defs>
</svg>
